<svg width="128" height="128" viewBox="0 0 128 128" fill="none" xmlns="http://www.w3.org/2000/svg"><circle cx="64" cy="64" r="54" fill="#EDF2FF" stroke="#3B82F6" stroke-width="4"/><path d="M64 28C56.5 28 49 30 42.5 34C36 38 31 44 28 51.5C25 59 24 67 25 75C26 83 30 90 37 96L41 93C35 88 31 81 30 74C29 67 30 60 33 54C36 48 41 43 47 40C53 37 59.5 36 66 36C72.5 36 79 37 85 40C91 43 96 48 99 54C102 60 103 67 102 74C101 81 97 88 91 93L95 96C102 90 106 83 107 75C108 67 107 59 104 51.5C101 44 96 38 89.5 34C83 30 75.5 28 68 28H64Z" fill="#2A52BE"/><path d="M64 70C60 70 56 68 53 65L50 68C54 72 59 74 64 74C69 74 74 72 78 68L75 65C72 68 68 70 64 70Z" fill="#4285F4"/></svg>
