<?xml version="1.0" encoding="UTF-8"?>
<svg xmlns="http://www.w3.org/2000/svg" version="1.1" width="300" height="300" viewBox="0 0 300 300"><rect x="0" y="0" width="300" height="300" fill="#ffffff"/><g transform="scale(5.66)"><g transform="translate(0,0)"><path fill-rule="evenodd" d="M8 0L8 4L9 4L9 5L8 5L8 7L9 7L9 5L10 5L10 7L11 7L11 5L12 5L12 8L13 8L13 9L12 9L12 10L11 10L11 11L10 11L10 12L9 12L9 11L8 11L8 10L10 10L10 9L11 9L11 8L10 8L10 9L8 9L8 10L6 10L6 11L5 11L5 10L4 10L4 9L7 9L7 8L4 8L4 9L3 9L3 11L2 11L2 12L1 12L1 10L2 10L2 8L0 8L0 9L1 9L1 10L0 10L0 12L1 12L1 14L0 14L0 16L1 16L1 17L0 17L0 18L1 18L1 17L2 17L2 18L3 18L3 19L0 19L0 21L2 21L2 22L1 22L1 23L0 23L0 24L1 24L1 23L2 23L2 22L4 22L4 23L7 23L7 24L4 24L4 25L3 25L3 26L4 26L4 29L3 29L3 30L4 30L4 31L2 31L2 32L5 32L5 29L7 29L7 30L6 30L6 31L7 31L7 30L8 30L8 32L9 32L9 33L8 33L8 34L6 34L6 33L7 33L7 32L6 32L6 33L4 33L4 34L2 34L2 35L0 35L0 36L1 36L1 37L2 37L2 38L3 38L3 37L4 37L4 36L5 36L5 39L8 39L8 40L9 40L9 41L7 41L7 40L6 40L6 41L7 41L7 42L4 42L4 41L5 41L5 40L4 40L4 39L2 39L2 40L1 40L1 39L0 39L0 40L1 40L1 41L0 41L0 43L1 43L1 44L3 44L3 45L4 45L4 44L3 44L3 43L7 43L7 44L6 44L6 45L8 45L8 46L9 46L9 47L8 47L8 49L9 49L9 51L8 51L8 53L12 53L12 52L13 52L13 48L12 48L12 50L10 50L10 49L11 49L11 48L10 48L10 46L11 46L11 47L12 47L12 46L11 46L11 45L10 45L10 46L9 46L9 45L8 45L8 42L9 42L9 43L10 43L10 44L12 44L12 43L15 43L15 40L14 40L14 39L13 39L13 37L14 37L14 38L15 38L15 39L16 39L16 41L18 41L18 40L20 40L20 39L21 39L21 41L19 41L19 43L18 43L18 42L17 42L17 43L16 43L16 45L17 45L17 44L18 44L18 46L19 46L19 44L20 44L20 47L16 47L16 48L14 48L14 49L16 49L16 50L14 50L14 51L16 51L16 52L17 52L17 51L16 51L16 50L17 50L17 49L19 49L19 50L20 50L20 47L21 47L21 44L20 44L20 42L22 42L22 43L24 43L24 46L22 46L22 48L23 48L23 50L22 50L22 51L21 51L21 52L19 52L19 51L18 51L18 53L25 53L25 52L26 52L26 49L27 49L27 53L29 53L29 52L28 52L28 51L30 51L30 50L31 50L31 51L32 51L32 49L33 49L33 50L34 50L34 51L33 51L33 52L30 52L30 53L33 53L33 52L34 52L34 53L35 53L35 50L36 50L36 49L38 49L38 50L37 50L37 53L39 53L39 52L42 52L42 51L41 51L41 49L38 49L38 47L36 47L36 49L35 49L35 47L34 47L34 46L35 46L35 45L36 45L36 46L38 46L38 44L36 44L36 42L38 42L38 43L39 43L39 41L40 41L40 43L41 43L41 45L42 45L42 43L41 43L41 42L42 42L42 41L44 41L44 40L45 40L45 41L46 41L46 42L45 42L45 43L43 43L43 44L44 44L44 45L43 45L43 46L40 46L40 45L39 45L39 46L40 46L40 47L39 47L39 48L40 48L40 47L43 47L43 49L42 49L42 50L43 50L43 49L44 49L44 50L45 50L45 51L44 51L44 53L52 53L52 52L49 52L49 50L50 50L50 51L53 51L53 50L52 50L52 48L51 48L51 47L52 47L52 45L53 45L53 44L52 44L52 43L53 43L53 42L52 42L52 43L51 43L51 40L52 40L52 39L53 39L53 38L51 38L51 37L53 37L53 35L52 35L52 36L50 36L50 37L46 37L46 36L49 36L49 35L48 35L48 34L49 34L49 33L50 33L50 35L51 35L51 33L52 33L52 34L53 34L53 33L52 33L52 32L53 32L53 30L52 30L52 28L53 28L53 26L52 26L52 28L51 28L51 25L52 25L52 23L53 23L53 21L52 21L52 15L53 15L53 14L52 14L52 15L51 15L51 13L52 13L52 11L53 11L53 8L49 8L49 9L50 9L50 11L49 11L49 12L48 12L48 11L47 11L47 9L48 9L48 8L47 8L47 9L45 9L45 8L44 8L44 7L45 7L45 6L44 6L44 7L43 7L43 3L44 3L44 4L45 4L45 3L44 3L44 1L43 1L43 0L40 0L40 1L42 1L42 2L41 2L41 4L40 4L40 5L39 5L39 6L38 6L38 5L36 5L36 7L37 7L37 8L35 8L35 4L37 4L37 3L38 3L38 4L39 4L39 3L38 3L38 2L39 2L39 0L37 0L37 1L36 1L36 0L34 0L34 2L33 2L33 1L32 1L32 0L31 0L31 1L30 1L30 0L29 0L29 1L30 1L30 2L33 2L33 4L32 4L32 3L28 3L28 2L27 2L27 3L26 3L26 4L22 4L22 3L21 3L21 4L19 4L19 3L20 3L20 2L19 2L19 1L22 1L22 0L19 0L19 1L18 1L18 0L13 0L13 1L12 1L12 0L11 0L11 1L10 1L10 0ZM26 0L26 1L27 1L27 0ZM9 1L9 4L10 4L10 3L11 3L11 4L12 4L12 2L10 2L10 1ZM13 1L13 3L17 3L17 4L15 4L15 7L14 7L14 6L13 6L13 7L14 7L14 8L15 8L15 10L14 10L14 9L13 9L13 10L12 10L12 11L11 11L11 12L12 12L12 13L13 13L13 14L15 14L15 12L14 12L14 11L15 11L15 10L17 10L17 12L16 12L16 15L15 15L15 16L14 16L14 15L13 15L13 16L12 16L12 17L11 17L11 18L10 18L10 19L13 19L13 17L16 17L16 19L15 19L15 18L14 18L14 19L15 19L15 20L16 20L16 19L17 19L17 20L18 20L18 19L19 19L19 18L20 18L20 17L19 17L19 18L18 18L18 16L16 16L16 15L17 15L17 14L18 14L18 15L19 15L19 13L21 13L21 15L20 15L20 16L22 16L22 18L21 18L21 19L20 19L20 20L21 20L21 21L26 21L26 20L25 20L25 19L27 19L27 18L28 18L28 17L29 17L29 18L30 18L30 17L31 17L31 19L28 19L28 21L27 21L27 22L29 22L29 23L26 23L26 22L23 22L23 23L25 23L25 24L29 24L29 23L30 23L30 25L29 25L29 26L30 26L30 27L29 27L29 29L27 29L27 30L25 30L25 29L24 29L24 28L23 28L23 27L24 27L24 26L23 26L23 27L22 27L22 26L21 26L21 27L20 27L20 26L19 26L19 25L20 25L20 24L21 24L21 23L22 23L22 22L21 22L21 23L20 23L20 22L18 22L18 21L15 21L15 22L14 22L14 20L13 20L13 21L12 21L12 22L11 22L11 20L10 20L10 22L9 22L9 21L8 21L8 20L9 20L9 17L8 17L8 14L7 14L7 13L6 13L6 14L7 14L7 15L4 15L4 14L3 14L3 12L4 12L4 13L5 13L5 12L4 12L4 11L3 11L3 12L2 12L2 14L1 14L1 16L3 16L3 17L4 17L4 18L5 18L5 19L6 19L6 20L7 20L7 21L6 21L6 22L7 22L7 21L8 21L8 24L10 24L10 25L9 25L9 27L10 27L10 26L11 26L11 25L12 25L12 26L14 26L14 27L12 27L12 28L11 28L11 29L10 29L10 28L9 28L9 29L8 29L8 30L9 30L9 32L10 32L10 31L11 31L11 33L12 33L12 34L11 34L11 35L10 35L10 33L9 33L9 35L8 35L8 36L7 36L7 35L6 35L6 34L4 34L4 35L3 35L3 36L4 36L4 35L5 35L5 36L7 36L7 37L6 37L6 38L9 38L9 40L12 40L12 41L13 41L13 42L14 42L14 41L13 41L13 39L12 39L12 38L11 38L11 35L12 35L12 37L13 37L13 36L14 36L14 35L15 35L15 36L16 36L16 37L15 37L15 38L16 38L16 39L19 39L19 37L17 37L17 36L16 36L16 35L19 35L19 34L20 34L20 33L19 33L19 32L18 32L18 34L16 34L16 35L15 35L15 34L14 34L14 35L13 35L13 33L15 33L15 32L16 32L16 33L17 33L17 32L16 32L16 31L20 31L20 32L22 32L22 33L21 33L21 35L20 35L20 36L21 36L21 35L22 35L22 36L23 36L23 37L22 37L22 38L21 38L21 37L20 37L20 38L21 38L21 39L22 39L22 38L23 38L23 40L22 40L22 42L24 42L24 43L25 43L25 44L27 44L27 41L25 41L25 37L26 37L26 36L27 36L27 33L28 33L28 36L30 36L30 37L31 37L31 38L30 38L30 41L32 41L32 44L31 44L31 42L29 42L29 41L28 41L28 42L29 42L29 43L28 43L28 44L29 44L29 46L30 46L30 48L29 48L29 50L30 50L30 49L31 49L31 48L32 48L32 47L33 47L33 49L34 49L34 47L33 47L33 46L34 46L34 45L33 45L33 46L32 46L32 47L31 47L31 46L30 46L30 45L32 45L32 44L33 44L33 43L34 43L34 42L36 42L36 41L39 41L39 40L41 40L41 41L42 41L42 40L44 40L44 39L45 39L45 40L46 40L46 41L47 41L47 42L48 42L48 43L46 43L46 44L48 44L48 43L49 43L49 44L50 44L50 41L49 41L49 40L51 40L51 39L50 39L50 38L49 38L49 39L47 39L47 38L46 38L46 37L45 37L45 38L43 38L43 37L44 37L44 36L46 36L46 35L45 35L45 34L46 34L46 33L47 33L47 34L48 34L48 33L49 33L49 31L47 31L47 32L46 32L46 33L45 33L45 34L42 34L42 33L44 33L44 32L45 32L45 31L46 31L46 30L45 30L45 29L44 29L44 30L43 30L43 27L39 27L39 26L40 26L40 25L41 25L41 26L43 26L43 25L44 25L44 24L46 24L46 23L47 23L47 24L48 24L48 20L46 20L46 18L47 18L47 19L50 19L50 17L51 17L51 16L50 16L50 12L51 12L51 11L50 11L50 12L49 12L49 13L48 13L48 12L47 12L47 13L46 13L46 12L45 12L45 11L46 11L46 10L45 10L45 11L44 11L44 12L43 12L43 11L42 11L42 9L43 9L43 10L44 10L44 9L43 9L43 7L42 7L42 6L41 6L41 5L40 5L40 6L39 6L39 7L38 7L38 6L37 6L37 7L38 7L38 8L39 8L39 9L41 9L41 12L42 12L42 13L43 13L43 14L42 14L42 15L40 15L40 10L39 10L39 11L37 11L37 9L34 9L34 8L33 8L33 7L34 7L34 4L33 4L33 7L32 7L32 4L29 4L29 5L31 5L31 7L30 7L30 6L29 6L29 7L30 7L30 8L29 8L29 9L28 9L28 10L26 10L26 9L25 9L25 10L24 10L24 13L25 13L25 12L27 12L27 11L28 11L28 13L27 13L27 14L29 14L29 15L27 15L27 16L26 16L26 15L25 15L25 14L23 14L23 11L22 11L22 12L21 12L21 11L20 11L20 12L19 12L19 13L18 13L18 11L19 11L19 10L20 10L20 8L21 8L21 10L22 10L22 9L23 9L23 8L21 8L21 7L22 7L22 6L23 6L23 7L24 7L24 6L23 6L23 5L22 5L22 4L21 4L21 5L19 5L19 4L18 4L18 3L17 3L17 2L16 2L16 1L15 1L15 2L14 2L14 1ZM23 1L23 3L24 3L24 1ZM35 1L35 3L37 3L37 2L36 2L36 1ZM42 2L42 3L43 3L43 2ZM13 4L13 5L14 5L14 4ZM17 4L17 5L16 5L16 7L15 7L15 8L17 8L17 5L18 5L18 8L20 8L20 7L21 7L21 6L22 6L22 5L21 5L21 6L20 6L20 7L19 7L19 5L18 5L18 4ZM25 5L25 8L28 8L28 5ZM26 6L26 7L27 7L27 6ZM40 6L40 7L41 7L41 6ZM31 7L31 9L30 9L30 10L28 10L28 11L30 11L30 10L31 10L31 9L33 9L33 8L32 8L32 7ZM13 10L13 11L14 11L14 10ZM25 10L25 11L26 11L26 10ZM33 10L33 11L32 11L32 12L31 12L31 13L30 13L30 15L29 15L29 17L30 17L30 15L31 15L31 14L33 14L33 13L34 13L34 12L36 12L36 13L35 13L35 15L34 15L34 16L35 16L35 18L34 18L34 17L33 17L33 15L32 15L32 16L31 16L31 17L33 17L33 19L34 19L34 21L33 21L33 20L32 20L32 19L31 19L31 21L33 21L33 22L34 22L34 25L33 25L33 24L31 24L31 25L30 25L30 26L32 26L32 25L33 25L33 26L34 26L34 29L35 29L35 28L36 28L36 29L37 29L37 30L38 30L38 31L37 31L37 32L36 32L36 30L34 30L34 33L36 33L36 34L37 34L37 35L34 35L34 36L33 36L33 35L32 35L32 34L31 34L31 33L33 33L33 31L32 31L32 32L31 32L31 33L30 33L30 31L29 31L29 30L32 30L32 29L29 29L29 30L28 30L28 31L29 31L29 32L28 32L28 33L30 33L30 34L29 34L29 35L32 35L32 36L31 36L31 37L33 37L33 39L34 39L34 41L33 41L33 40L32 40L32 39L31 39L31 40L32 40L32 41L33 41L33 42L34 42L34 41L35 41L35 40L38 40L38 39L36 39L36 37L35 37L35 36L37 36L37 38L39 38L39 37L40 37L40 39L43 39L43 38L42 38L42 37L40 37L40 36L41 36L41 35L42 35L42 34L41 34L41 33L40 33L40 36L39 36L39 37L38 37L38 36L37 36L37 35L39 35L39 34L37 34L37 33L38 33L38 31L39 31L39 29L37 29L37 28L36 28L36 27L35 27L35 26L34 26L34 25L35 25L35 22L34 22L34 21L36 21L36 22L37 22L37 24L36 24L36 25L38 25L38 22L40 22L40 23L39 23L39 24L41 24L41 25L42 25L42 23L41 23L41 21L40 21L40 20L41 20L41 19L42 19L42 18L41 18L41 17L40 17L40 15L39 15L39 18L37 18L37 20L35 20L35 18L36 18L36 17L38 17L38 15L37 15L37 16L36 16L36 13L37 13L37 14L39 14L39 13L38 13L38 12L37 12L37 11L35 11L35 10ZM6 11L6 12L7 12L7 11ZM33 11L33 12L32 12L32 13L33 13L33 12L34 12L34 11ZM8 12L8 13L9 13L9 15L10 15L10 14L11 14L11 15L12 15L12 14L11 14L11 13L9 13L9 12ZM44 12L44 15L43 15L43 16L44 16L44 17L43 17L43 18L44 18L44 19L43 19L43 20L44 20L44 19L45 19L45 16L44 16L44 15L46 15L46 17L47 17L47 18L48 18L48 17L49 17L49 14L45 14L45 12ZM22 14L22 16L23 16L23 18L22 18L22 19L21 19L21 20L22 20L22 19L23 19L23 20L24 20L24 19L25 19L25 17L26 17L26 18L27 18L27 17L26 17L26 16L25 16L25 17L24 17L24 16L23 16L23 14ZM3 15L3 16L4 16L4 15ZM5 16L5 17L7 17L7 18L6 18L6 19L7 19L7 18L8 18L8 17L7 17L7 16ZM47 16L47 17L48 17L48 16ZM23 18L23 19L24 19L24 18ZM39 18L39 19L38 19L38 20L39 20L39 19L40 19L40 18ZM45 20L45 21L43 21L43 24L44 24L44 22L45 22L45 23L46 23L46 22L45 22L45 21L46 21L46 20ZM4 21L4 22L5 22L5 21ZM37 21L37 22L38 22L38 21ZM49 21L49 23L50 23L50 24L49 24L49 27L50 27L50 24L51 24L51 23L50 23L50 21ZM51 21L51 22L52 22L52 21ZM15 22L15 23L16 23L16 24L14 24L14 23L12 23L12 25L14 25L14 26L15 26L15 27L14 27L14 28L15 28L15 27L16 27L16 29L13 29L13 31L12 31L12 33L13 33L13 31L14 31L14 32L15 32L15 31L16 31L16 30L19 30L19 29L17 29L17 28L20 28L20 31L21 31L21 30L22 30L22 31L25 31L25 30L24 30L24 29L23 29L23 28L22 28L22 27L21 27L21 28L20 28L20 27L16 27L16 24L18 24L18 25L17 25L17 26L18 26L18 25L19 25L19 24L18 24L18 23L16 23L16 22ZM30 22L30 23L31 23L31 22ZM23 24L23 25L24 25L24 24ZM0 25L0 26L2 26L2 25ZM5 25L5 28L8 28L8 25ZM25 25L25 28L28 28L28 25ZM45 25L45 28L48 28L48 25ZM6 26L6 27L7 27L7 26ZM26 26L26 27L27 27L27 26ZM37 26L37 27L38 27L38 26ZM46 26L46 27L47 27L47 26ZM0 27L0 28L3 28L3 27ZM31 27L31 28L32 28L32 27ZM0 29L0 30L1 30L1 29ZM11 29L11 30L12 30L12 29ZM40 29L40 31L41 31L41 32L42 32L42 31L43 31L43 32L44 32L44 31L43 31L43 30L42 30L42 29ZM48 29L48 30L50 30L50 29ZM41 30L41 31L42 31L42 30ZM0 31L0 34L1 34L1 31ZM50 31L50 32L51 32L51 31ZM24 32L24 33L25 33L25 35L24 35L24 34L23 34L23 33L22 33L22 35L24 35L24 36L26 36L26 32ZM47 32L47 33L48 33L48 32ZM9 35L9 36L8 36L8 37L9 37L9 38L10 38L10 39L11 39L11 38L10 38L10 35ZM43 35L43 36L44 36L44 35ZM16 37L16 38L17 38L17 37ZM27 37L27 38L26 38L26 40L28 40L28 38L29 38L29 37ZM34 37L34 38L35 38L35 37ZM45 38L45 39L46 39L46 40L47 40L47 41L48 41L48 42L49 42L49 41L48 41L48 40L47 40L47 39L46 39L46 38ZM1 41L1 42L2 42L2 43L3 43L3 41ZM10 41L10 43L12 43L12 42L11 42L11 41ZM24 41L24 42L25 42L25 43L26 43L26 42L25 42L25 41ZM29 43L29 44L30 44L30 43ZM14 44L14 46L13 46L13 47L15 47L15 44ZM51 44L51 45L52 45L52 44ZM25 45L25 48L28 48L28 45ZM45 45L45 48L48 48L48 45ZM49 45L49 49L46 49L46 51L45 51L45 52L47 52L47 51L48 51L48 50L49 50L49 49L50 49L50 47L51 47L51 46L50 46L50 45ZM26 46L26 47L27 47L27 46ZM46 46L46 47L47 47L47 46ZM9 48L9 49L10 49L10 48ZM16 48L16 49L17 49L17 48ZM23 50L23 51L22 51L22 52L23 52L23 51L24 51L24 52L25 52L25 50ZM38 50L38 52L39 52L39 51L40 51L40 50ZM10 51L10 52L11 52L11 51ZM14 52L14 53L15 53L15 52ZM0 0L0 7L7 7L7 0ZM1 1L1 6L6 6L6 1ZM2 2L2 5L5 5L5 2ZM46 0L46 7L53 7L53 0ZM47 1L47 6L52 6L52 1ZM48 2L48 5L51 5L51 2ZM0 46L0 53L7 53L7 46ZM1 47L1 52L6 52L6 47ZM2 48L2 51L5 51L5 48Z" fill="#000000"/></g></g></svg>
