<?xml version="1.0" encoding="UTF-8"?>
<svg xmlns="http://www.w3.org/2000/svg" version="1.1" width="300" height="300" viewBox="0 0 300 300"><rect x="0" y="0" width="300" height="300" fill="#ffffff"/><g transform="scale(5.66)"><g transform="translate(0,0)"><path fill-rule="evenodd" d="M9 0L9 1L10 1L10 3L8 3L8 5L9 5L9 6L8 6L8 7L9 7L9 9L8 9L8 8L5 8L5 9L2 9L2 8L0 8L0 9L2 9L2 10L5 10L5 11L4 11L4 12L6 12L6 13L7 13L7 12L10 12L10 11L12 11L12 10L13 10L13 11L14 11L14 12L15 12L15 11L16 11L16 10L17 10L17 12L16 12L16 13L11 13L11 14L9 14L9 13L8 13L8 14L6 14L6 15L5 15L5 13L2 13L2 12L1 12L1 13L2 13L2 14L4 14L4 15L5 15L5 17L8 17L8 18L6 18L6 19L8 19L8 20L6 20L6 21L7 21L7 22L5 22L5 23L3 23L3 24L4 24L4 25L3 25L3 26L4 26L4 28L2 28L2 27L1 27L1 26L0 26L0 27L1 27L1 29L0 29L0 32L1 32L1 33L0 33L0 35L1 35L1 38L2 38L2 37L3 37L3 36L4 36L4 37L5 37L5 38L4 38L4 39L5 39L5 40L2 40L2 41L1 41L1 39L0 39L0 41L1 41L1 42L0 42L0 43L1 43L1 44L3 44L3 45L4 45L4 44L3 44L3 43L7 43L7 42L6 42L6 41L7 41L7 40L6 40L6 39L9 39L9 42L8 42L8 43L9 43L9 44L8 44L8 48L9 48L9 47L10 47L10 49L9 49L9 51L8 51L8 53L9 53L9 51L10 51L10 49L11 49L11 50L12 50L12 52L10 52L10 53L12 53L12 52L13 52L13 53L14 53L14 52L15 52L15 53L16 53L16 52L18 52L18 53L19 53L19 52L18 52L18 51L19 51L19 50L17 50L17 48L16 48L16 47L19 47L19 48L18 48L18 49L20 49L20 50L21 50L21 49L20 49L20 47L21 47L21 45L22 45L22 46L23 46L23 45L22 45L22 44L24 44L24 49L23 49L23 47L22 47L22 49L23 49L23 51L24 51L24 52L22 52L22 53L27 53L27 51L28 51L28 50L29 50L29 49L30 49L30 51L29 51L29 52L28 52L28 53L29 53L29 52L30 52L30 53L31 53L31 51L32 51L32 52L33 52L33 53L35 53L35 52L39 52L39 53L40 53L40 52L41 52L41 51L42 51L42 52L43 52L43 53L44 53L44 52L43 52L43 50L44 50L44 49L45 49L45 52L46 52L46 53L49 53L49 52L46 52L46 51L48 51L48 50L46 50L46 49L49 49L49 46L51 46L51 47L50 47L50 49L51 49L51 50L50 50L50 52L52 52L52 49L53 49L53 42L52 42L52 44L51 44L51 43L50 43L50 41L48 41L48 40L49 40L49 39L47 39L47 38L49 38L49 37L48 37L48 36L46 36L46 34L45 34L45 33L44 33L44 31L45 31L45 30L46 30L46 31L47 31L47 33L48 33L48 35L49 35L49 34L50 34L50 35L51 35L51 36L50 36L50 37L51 37L51 36L52 36L52 35L53 35L53 34L52 34L52 35L51 35L51 33L48 33L48 32L50 32L50 31L48 31L48 29L49 29L49 30L50 30L50 29L49 29L49 28L50 28L50 27L51 27L51 28L53 28L53 27L51 27L51 26L50 26L50 25L51 25L51 24L50 24L50 23L52 23L52 25L53 25L53 23L52 23L52 22L51 22L51 21L49 21L49 20L51 20L51 19L52 19L52 20L53 20L53 19L52 19L52 17L51 17L51 16L48 16L48 17L47 17L47 15L46 15L46 14L44 14L44 13L46 13L46 12L44 12L44 11L45 11L45 10L46 10L46 9L42 9L42 10L41 10L41 12L44 12L44 13L40 13L40 11L39 11L39 10L40 10L40 8L44 8L44 7L45 7L45 6L44 6L44 7L43 7L43 3L44 3L44 4L45 4L45 3L44 3L44 1L43 1L43 0L42 0L42 2L43 2L43 3L42 3L42 4L40 4L40 3L41 3L41 2L40 2L40 3L39 3L39 4L37 4L37 5L36 5L36 7L35 7L35 3L38 3L38 2L37 2L37 1L40 1L40 0L37 0L37 1L36 1L36 2L35 2L35 1L34 1L34 0L33 0L33 1L34 1L34 2L33 2L33 3L31 3L31 1L32 1L32 0L31 0L31 1L30 1L30 2L27 2L27 1L29 1L29 0L26 0L26 1L25 1L25 2L24 2L24 0L22 0L22 1L23 1L23 2L22 2L22 3L23 3L23 4L21 4L21 3L20 3L20 2L21 2L21 0L19 0L19 1L16 1L16 4L15 4L15 5L16 5L16 7L17 7L17 8L18 8L18 7L19 7L19 10L17 10L17 9L16 9L16 8L15 8L15 9L13 9L13 8L14 8L14 7L15 7L15 6L14 6L14 7L13 7L13 5L14 5L14 3L13 3L13 2L14 2L14 1L15 1L15 0ZM11 2L11 3L12 3L12 4L13 4L13 3L12 3L12 2ZM17 2L17 3L18 3L18 5L17 5L17 4L16 4L16 5L17 5L17 7L18 7L18 5L21 5L21 7L20 7L20 6L19 6L19 7L20 7L20 9L21 9L21 10L22 10L22 11L20 11L20 12L19 12L19 11L18 11L18 12L19 12L19 13L16 13L16 14L17 14L17 16L16 16L16 20L14 20L14 21L15 21L15 22L13 22L13 21L12 21L12 22L13 22L13 23L12 23L12 24L10 24L10 23L9 23L9 21L11 21L11 20L13 20L13 19L14 19L14 18L15 18L15 17L13 17L13 19L12 19L12 17L11 17L11 16L15 16L15 15L13 15L13 14L12 14L12 15L11 15L11 16L9 16L9 15L6 15L6 16L8 16L8 17L11 17L11 18L10 18L10 19L9 19L9 21L8 21L8 22L7 22L7 23L6 23L6 24L7 24L7 23L8 23L8 24L10 24L10 25L9 25L9 28L10 28L10 27L11 27L11 29L9 29L9 30L8 30L8 29L5 29L5 31L4 31L4 30L3 30L3 32L2 32L2 30L1 30L1 32L2 32L2 33L5 33L5 35L6 35L6 36L5 36L5 37L6 37L6 38L5 38L5 39L6 39L6 38L7 38L7 37L8 37L8 35L9 35L9 37L10 37L10 38L9 38L9 39L10 39L10 38L11 38L11 37L13 37L13 36L14 36L14 35L15 35L15 34L14 34L14 33L13 33L13 32L14 32L14 31L15 31L15 29L13 29L13 28L15 28L15 25L16 25L16 26L17 26L17 25L16 25L16 24L18 24L18 23L16 23L16 24L15 24L15 22L16 22L16 20L17 20L17 19L18 19L18 20L19 20L19 25L18 25L18 26L19 26L19 27L17 27L17 29L19 29L19 27L20 27L20 26L21 26L21 28L20 28L20 32L19 32L19 31L18 31L18 30L16 30L16 32L15 32L15 33L16 33L16 34L17 34L17 32L18 32L18 34L19 34L19 33L21 33L21 32L22 32L22 34L21 34L21 35L20 35L20 36L21 36L21 37L22 37L22 38L21 38L21 41L19 41L19 39L17 39L17 40L18 40L18 41L15 41L15 40L11 40L11 41L10 41L10 45L9 45L9 46L11 46L11 47L12 47L12 46L13 46L13 52L14 52L14 50L16 50L16 48L14 48L14 47L16 47L16 45L15 45L15 43L16 43L16 44L17 44L17 46L18 46L18 44L19 44L19 43L20 43L20 45L21 45L21 43L22 43L22 42L24 42L24 41L28 41L28 42L29 42L29 48L30 48L30 49L31 49L31 50L32 50L32 51L33 51L33 52L34 52L34 51L35 51L35 50L32 50L32 49L31 49L31 48L32 48L32 47L33 47L33 46L36 46L36 45L34 45L34 44L36 44L36 43L34 43L34 42L36 42L36 41L37 41L37 42L38 42L38 43L37 43L37 47L36 47L36 48L37 48L37 47L38 47L38 51L39 51L39 52L40 52L40 51L41 51L41 50L42 50L42 49L43 49L43 48L42 48L42 49L41 49L41 50L39 50L39 48L40 48L40 47L43 47L43 46L44 46L44 45L43 45L43 44L42 44L42 42L43 42L43 41L44 41L44 40L45 40L45 42L46 42L46 41L47 41L47 42L48 42L48 41L47 41L47 40L45 40L45 38L46 38L46 36L45 36L45 34L44 34L44 33L43 33L43 32L42 32L42 31L43 31L43 30L44 30L44 28L41 28L41 27L43 27L43 26L44 26L44 24L45 24L45 22L46 22L46 21L47 21L47 22L48 22L48 24L49 24L49 25L50 25L50 24L49 24L49 23L50 23L50 22L48 22L48 20L49 20L49 19L48 19L48 18L49 18L49 17L48 17L48 18L47 18L47 17L45 17L45 16L44 16L44 17L43 17L43 16L41 16L41 15L42 15L42 14L40 14L40 13L39 13L39 11L37 11L37 12L38 12L38 13L36 13L36 14L35 14L35 13L34 13L34 12L36 12L36 11L35 11L35 10L38 10L38 9L39 9L39 7L40 7L40 6L41 6L41 7L42 7L42 6L41 6L41 5L40 5L40 6L39 6L39 7L38 7L38 5L37 5L37 7L38 7L38 8L37 8L37 9L35 9L35 10L34 10L34 9L33 9L33 8L35 8L35 7L34 7L34 5L33 5L33 4L34 4L34 3L35 3L35 2L34 2L34 3L33 3L33 4L32 4L32 6L31 6L31 7L32 7L32 8L30 8L30 6L29 6L29 10L26 10L26 11L25 11L25 10L24 10L24 11L25 11L25 12L23 12L23 13L21 13L21 12L22 12L22 11L23 11L23 10L22 10L22 9L21 9L21 7L22 7L22 6L23 6L23 8L24 8L24 6L23 6L23 5L21 5L21 4L20 4L20 3L19 3L19 2ZM23 2L23 3L24 3L24 2ZM25 2L25 4L28 4L28 3L27 3L27 2ZM29 3L29 5L31 5L31 3ZM9 4L9 5L10 5L10 6L9 6L9 7L10 7L10 6L11 6L11 7L12 7L12 8L11 8L11 10L12 10L12 8L13 8L13 7L12 7L12 5L10 5L10 4ZM25 5L25 8L28 8L28 5ZM26 6L26 7L27 7L27 6ZM32 6L32 7L33 7L33 6ZM48 8L48 9L49 9L49 10L47 10L47 11L48 11L48 12L47 12L47 13L49 13L49 14L50 14L50 15L51 15L51 14L50 14L50 13L51 13L51 12L50 12L50 11L52 11L52 13L53 13L53 11L52 11L52 9L50 9L50 8ZM5 9L5 10L7 10L7 9ZM15 9L15 10L14 10L14 11L15 11L15 10L16 10L16 9ZM30 9L30 11L28 11L28 13L30 13L30 14L29 14L29 15L30 15L30 16L29 16L29 17L28 17L28 14L25 14L25 13L27 13L27 12L25 12L25 13L23 13L23 15L22 15L22 16L21 16L21 14L18 14L18 15L19 15L19 16L18 16L18 19L19 19L19 20L20 20L20 19L19 19L19 18L20 18L20 17L19 17L19 16L21 16L21 17L22 17L22 20L21 20L21 21L20 21L20 23L21 23L21 22L22 22L22 20L25 20L25 21L23 21L23 23L25 23L25 21L26 21L26 23L27 23L27 24L23 24L23 25L22 25L22 26L23 26L23 27L24 27L24 30L23 30L23 28L22 28L22 29L21 29L21 30L22 30L22 31L23 31L23 32L24 32L24 33L25 33L25 32L24 32L24 30L25 30L25 31L27 31L27 32L26 32L26 33L27 33L27 35L28 35L28 36L31 36L31 37L29 37L29 38L30 38L30 40L29 40L29 39L26 39L26 38L23 38L23 40L28 40L28 41L29 41L29 42L30 42L30 44L31 44L31 41L32 41L32 44L33 44L33 42L34 42L34 41L35 41L35 39L34 39L34 37L33 37L33 36L34 36L34 35L39 35L39 36L40 36L40 38L42 38L42 36L44 36L44 37L45 37L45 36L44 36L44 35L43 35L43 33L42 33L42 35L41 35L41 36L40 36L40 35L39 35L39 34L38 34L38 33L40 33L40 32L41 32L41 30L42 30L42 29L40 29L40 26L41 26L41 24L39 24L39 25L38 25L38 23L39 23L39 22L40 22L40 21L39 21L39 20L36 20L36 21L35 21L35 20L34 20L34 19L35 19L35 18L36 18L36 19L37 19L37 18L40 18L40 19L41 19L41 20L43 20L43 21L44 21L44 22L41 22L41 23L42 23L42 24L44 24L44 22L45 22L45 20L46 20L46 19L47 19L47 18L46 18L46 19L45 19L45 20L44 20L44 18L41 18L41 17L39 17L39 15L37 15L37 14L36 14L36 16L35 16L35 14L34 14L34 15L33 15L33 17L30 17L30 16L31 16L31 15L30 15L30 14L31 14L31 13L32 13L32 12L34 12L34 10L33 10L33 11L32 11L32 12L31 12L31 10L32 10L32 9ZM8 10L8 11L10 11L10 10ZM42 10L42 11L43 11L43 10ZM49 10L49 11L50 11L50 10ZM6 11L6 12L7 12L7 11ZM30 12L30 13L31 13L31 12ZM49 12L49 13L50 13L50 12ZM43 14L43 15L44 15L44 14ZM0 15L0 16L1 16L1 17L0 17L0 19L1 19L1 20L0 20L0 21L1 21L1 22L0 22L0 25L1 25L1 22L4 22L4 21L1 21L1 20L3 20L3 19L2 19L2 18L1 18L1 17L2 17L2 16L3 16L3 17L4 17L4 16L3 16L3 15L2 15L2 16L1 16L1 15ZM25 15L25 16L24 16L24 17L26 17L26 18L28 18L28 17L26 17L26 16L27 16L27 15ZM34 16L34 18L35 18L35 16ZM37 16L37 17L36 17L36 18L37 18L37 17L38 17L38 16ZM29 17L29 18L30 18L30 19L31 19L31 20L28 20L28 19L27 19L27 20L26 20L26 21L27 21L27 22L28 22L28 23L29 23L29 27L30 27L30 25L31 25L31 27L35 27L35 29L33 29L33 31L34 31L34 32L36 32L36 31L34 31L34 30L39 30L39 31L38 31L38 32L37 32L37 33L38 33L38 32L39 32L39 31L40 31L40 29L36 29L36 27L35 27L35 26L37 26L37 25L35 25L35 23L36 23L36 22L37 22L37 23L38 23L38 21L36 21L36 22L33 22L33 21L32 21L32 20L33 20L33 19L31 19L31 18L30 18L30 17ZM50 17L50 19L51 19L51 17ZM4 18L4 20L5 20L5 18ZM23 18L23 19L25 19L25 18ZM17 21L17 22L18 22L18 21ZM28 21L28 22L29 22L29 23L30 23L30 24L31 24L31 25L32 25L32 26L34 26L34 23L33 23L33 24L31 24L31 23L30 23L30 22L29 22L29 21ZM31 21L31 22L32 22L32 21ZM13 23L13 25L12 25L12 26L13 26L13 27L12 27L12 28L13 28L13 27L14 27L14 25L15 25L15 24L14 24L14 23ZM46 23L46 24L47 24L47 23ZM20 24L20 25L21 25L21 24ZM5 25L5 28L8 28L8 25ZM10 25L10 26L11 26L11 25ZM25 25L25 28L28 28L28 25ZM39 25L39 26L38 26L38 27L37 27L37 28L38 28L38 27L39 27L39 26L40 26L40 25ZM45 25L45 28L48 28L48 25ZM6 26L6 27L7 27L7 26ZM26 26L26 27L27 27L27 26ZM46 26L46 27L47 27L47 26ZM49 26L49 27L50 27L50 26ZM29 28L29 29L25 29L25 30L27 30L27 31L28 31L28 30L29 30L29 32L30 32L30 33L29 33L29 35L31 35L31 36L33 36L33 35L34 35L34 33L33 33L33 32L32 32L32 31L31 31L31 32L30 32L30 30L29 30L29 29L31 29L31 30L32 30L32 29L31 29L31 28ZM11 29L11 30L10 30L10 31L8 31L8 30L6 30L6 31L5 31L5 32L6 32L6 33L7 33L7 34L6 34L6 35L8 35L8 33L9 33L9 34L11 34L11 35L10 35L10 37L11 37L11 36L13 36L13 35L14 35L14 34L13 34L13 35L12 35L12 31L13 31L13 30L12 30L12 29ZM51 29L51 31L53 31L53 30L52 30L52 29ZM11 30L11 31L10 31L10 32L9 32L9 33L10 33L10 32L11 32L11 31L12 31L12 30ZM6 31L6 32L8 32L8 31ZM30 33L30 34L31 34L31 35L32 35L32 33ZM35 33L35 34L36 34L36 33ZM1 34L1 35L2 35L2 36L3 36L3 35L2 35L2 34ZM24 34L24 35L22 35L22 36L23 36L23 37L24 37L24 35L25 35L25 36L26 36L26 37L27 37L27 36L26 36L26 34ZM16 35L16 36L15 36L15 37L14 37L14 38L12 38L12 39L15 39L15 38L16 38L16 36L17 36L17 38L20 38L20 37L18 37L18 36L19 36L19 35ZM6 36L6 37L7 37L7 36ZM35 36L35 38L36 38L36 39L37 39L37 41L39 41L39 40L40 40L40 43L39 43L39 44L38 44L38 45L39 45L39 46L41 46L41 45L42 45L42 44L41 44L41 42L42 42L42 41L43 41L43 39L41 39L41 40L40 40L40 39L37 39L37 38L36 38L36 36ZM37 36L37 37L38 37L38 36ZM31 38L31 39L33 39L33 38ZM50 38L50 40L51 40L51 41L52 41L52 40L51 40L51 39L52 39L52 38ZM30 40L30 41L31 41L31 40ZM32 40L32 41L33 41L33 40ZM41 40L41 41L42 41L42 40ZM2 41L2 43L3 43L3 42L4 42L4 41ZM11 41L11 42L12 42L12 43L11 43L11 44L12 44L12 43L13 43L13 42L14 42L14 41L13 41L13 42L12 42L12 41ZM17 42L17 43L19 43L19 42ZM20 42L20 43L21 43L21 42ZM25 42L25 43L24 43L24 44L28 44L28 43L26 43L26 42ZM45 43L45 44L46 44L46 43ZM48 43L48 44L49 44L49 45L51 45L51 44L50 44L50 43ZM6 44L6 45L7 45L7 44ZM13 44L13 46L15 46L15 45L14 45L14 44ZM40 44L40 45L41 45L41 44ZM25 45L25 48L28 48L28 45ZM30 45L30 48L31 48L31 46L32 46L32 45ZM45 45L45 48L48 48L48 45ZM19 46L19 47L20 47L20 46ZM26 46L26 47L27 47L27 46ZM46 46L46 47L47 47L47 46ZM34 47L34 49L35 49L35 47ZM51 48L51 49L52 49L52 48ZM25 49L25 50L26 50L26 51L27 51L27 50L26 50L26 49ZM36 49L36 50L37 50L37 49ZM20 51L20 52L21 52L21 51ZM0 0L0 7L7 7L7 0ZM1 1L1 6L6 6L6 1ZM2 2L2 5L5 5L5 2ZM46 0L46 7L53 7L53 0ZM47 1L47 6L52 6L52 1ZM48 2L48 5L51 5L51 2ZM0 46L0 53L7 53L7 46ZM1 47L1 52L6 52L6 47ZM2 48L2 51L5 51L5 48Z" fill="#000000"/></g></g></svg>
