<?xml version="1.0" encoding="UTF-8"?>
<svg xmlns="http://www.w3.org/2000/svg" version="1.1" width="300" height="300" viewBox="0 0 300 300"><rect x="0" y="0" width="300" height="300" fill="#ffffff"/><g transform="scale(5.66)"><g transform="translate(0,0)"><path fill-rule="evenodd" d="M11 0L11 2L10 2L10 1L8 1L8 2L9 2L9 3L8 3L8 4L9 4L9 3L11 3L11 4L10 4L10 5L8 5L8 7L9 7L9 8L6 8L6 9L7 9L7 10L5 10L5 8L0 8L0 9L2 9L2 11L3 11L3 10L5 10L5 11L4 11L4 13L5 13L5 15L3 15L3 14L2 14L2 13L3 13L3 12L1 12L1 11L0 11L0 12L1 12L1 13L0 13L0 14L2 14L2 15L0 15L0 16L1 16L1 17L2 17L2 16L3 16L3 17L4 17L4 16L5 16L5 17L8 17L8 16L11 16L11 15L14 15L14 16L12 16L12 17L11 17L11 18L13 18L13 19L14 19L14 20L15 20L15 21L13 21L13 20L11 20L11 19L10 19L10 20L9 20L9 21L7 21L7 20L8 20L8 19L9 19L9 18L10 18L10 17L9 17L9 18L4 18L4 19L5 19L5 20L4 20L4 21L2 21L2 20L3 20L3 19L2 19L2 18L1 18L1 19L0 19L0 20L1 20L1 22L2 22L2 23L4 23L4 21L5 21L5 22L6 22L6 23L7 23L7 22L8 22L8 23L10 23L10 21L13 21L13 22L11 22L11 24L10 24L10 26L11 26L11 27L10 27L10 28L9 28L9 24L4 24L4 25L3 25L3 24L1 24L1 23L0 23L0 24L1 24L1 26L0 26L0 31L1 31L1 32L0 32L0 34L1 34L1 36L2 36L2 37L3 37L3 38L2 38L2 41L1 41L1 39L0 39L0 41L1 41L1 42L0 42L0 43L1 43L1 44L3 44L3 45L4 45L4 44L3 44L3 43L8 43L8 41L9 41L9 42L11 42L11 44L10 44L10 43L9 43L9 44L8 44L8 47L9 47L9 46L11 46L11 47L10 47L10 48L11 48L11 49L12 49L12 50L11 50L11 52L10 52L10 53L11 53L11 52L13 52L13 53L16 53L16 52L17 52L17 50L18 50L18 51L19 51L19 52L18 52L18 53L22 53L22 52L23 52L23 53L27 53L27 52L31 52L31 53L32 53L32 50L33 50L33 51L36 51L36 53L41 53L41 52L37 52L37 50L34 50L34 48L33 48L33 47L35 47L35 46L36 46L36 48L35 48L35 49L37 49L37 46L36 46L36 45L38 45L38 46L39 46L39 48L38 48L38 49L39 49L39 51L40 51L40 50L44 50L44 51L46 51L46 53L49 53L49 52L47 52L47 51L48 51L48 50L44 50L44 49L50 49L50 48L53 48L53 43L51 43L51 42L52 42L52 41L51 41L51 42L50 42L50 41L49 41L49 39L47 39L47 38L49 38L49 37L51 37L51 35L52 35L52 31L53 31L53 29L51 29L51 30L50 30L50 28L51 28L51 26L52 26L52 25L51 25L51 26L50 26L50 23L52 23L52 22L53 22L53 21L52 21L52 22L50 22L50 21L49 21L49 20L50 20L50 19L51 19L51 20L53 20L53 18L50 18L50 17L51 17L51 16L53 16L53 15L51 15L51 14L50 14L50 13L51 13L51 12L53 12L53 11L52 11L52 10L53 10L53 9L52 9L52 8L51 8L51 9L52 9L52 10L50 10L50 8L49 8L49 10L47 10L47 9L48 9L48 8L47 8L47 9L46 9L46 8L45 8L45 9L46 9L46 10L47 10L47 11L48 11L48 12L44 12L44 11L45 11L45 10L44 10L44 9L42 9L42 10L41 10L41 9L39 9L39 8L38 8L38 7L39 7L39 6L40 6L40 7L41 7L41 8L43 8L43 3L44 3L44 4L45 4L45 3L44 3L44 1L43 1L43 0L40 0L40 1L41 1L41 2L39 2L39 1L38 1L38 2L39 2L39 3L38 3L38 4L40 4L40 5L39 5L39 6L38 6L38 7L37 7L37 5L34 5L34 4L35 4L35 3L37 3L37 1L35 1L35 0L34 0L34 1L33 1L33 0L32 0L32 1L31 1L31 2L30 2L30 0L29 0L29 1L28 1L28 2L26 2L26 3L28 3L28 2L29 2L29 4L24 4L24 7L23 7L23 6L22 6L22 5L20 5L20 4L19 4L19 3L18 3L18 4L17 4L17 5L16 5L16 3L17 3L17 2L20 2L20 1L19 1L19 0L16 0L16 1L15 1L15 2L14 2L14 1L13 1L13 0ZM21 0L21 2L22 2L22 3L23 3L23 2L24 2L24 3L25 3L25 2L24 2L24 1L23 1L23 0ZM25 0L25 1L26 1L26 0ZM12 1L12 2L11 2L11 3L12 3L12 4L11 4L11 5L10 5L10 6L9 6L9 7L10 7L10 6L11 6L11 7L12 7L12 4L14 4L14 5L13 5L13 7L14 7L14 8L12 8L12 9L11 9L11 11L10 11L10 8L9 8L9 12L7 12L7 11L6 11L6 12L5 12L5 13L6 13L6 14L7 14L7 15L5 15L5 16L7 16L7 15L10 15L10 14L9 14L9 13L11 13L11 12L12 12L12 13L13 13L13 14L14 14L14 13L13 13L13 12L14 12L14 11L16 11L16 12L15 12L15 14L17 14L17 15L15 15L15 16L16 16L16 17L13 17L13 18L14 18L14 19L15 19L15 20L16 20L16 21L15 21L15 22L13 22L13 23L14 23L14 24L13 24L13 25L12 25L12 24L11 24L11 25L12 25L12 26L13 26L13 25L14 25L14 27L13 27L13 28L12 28L12 27L11 27L11 28L12 28L12 29L10 29L10 31L6 31L6 30L9 30L9 29L4 29L4 27L3 27L3 26L2 26L2 27L1 27L1 28L2 28L2 27L3 27L3 29L1 29L1 31L2 31L2 32L1 32L1 33L2 33L2 36L5 36L5 37L4 37L4 38L5 38L5 40L7 40L7 39L6 39L6 38L7 38L7 37L6 37L6 36L7 36L7 35L8 35L8 37L9 37L9 35L10 35L10 34L9 34L9 33L10 33L10 31L12 31L12 32L11 32L11 35L12 35L12 34L14 34L14 35L13 35L13 36L12 36L12 37L11 37L11 36L10 36L10 37L11 37L11 38L8 38L8 39L9 39L9 40L11 40L11 42L12 42L12 43L14 43L14 44L13 44L13 46L12 46L12 47L13 47L13 48L12 48L12 49L13 49L13 48L16 48L16 49L14 49L14 50L13 50L13 51L15 51L15 52L16 52L16 51L15 51L15 50L16 50L16 49L18 49L18 48L17 48L17 47L18 47L18 46L19 46L19 50L22 50L22 51L20 51L20 52L22 52L22 51L23 51L23 49L24 49L24 50L27 50L27 51L24 51L24 52L27 52L27 51L29 51L29 50L30 50L30 49L31 49L31 50L32 50L32 49L31 49L31 48L29 48L29 50L28 50L28 49L24 49L24 48L23 48L23 49L20 49L20 48L21 48L21 47L24 47L24 44L22 44L22 43L23 43L23 42L25 42L25 41L26 41L26 44L29 44L29 46L30 46L30 47L31 47L31 46L32 46L32 47L33 47L33 46L34 46L34 45L35 45L35 42L37 42L37 43L36 43L36 44L39 44L39 43L41 43L41 44L42 44L42 45L43 45L43 46L42 46L42 47L43 47L43 46L44 46L44 45L43 45L43 44L42 44L42 43L45 43L45 42L44 42L44 41L45 41L45 40L46 40L46 41L47 41L47 43L46 43L46 44L48 44L48 43L50 43L50 42L48 42L48 40L47 40L47 39L45 39L45 37L49 37L49 36L47 36L47 35L50 35L50 34L51 34L51 31L50 31L50 32L47 32L47 31L49 31L49 29L48 29L48 30L46 30L46 29L45 29L45 30L44 30L44 28L42 28L42 27L43 27L43 26L44 26L44 25L43 25L43 24L47 24L47 22L49 22L49 23L48 23L48 24L49 24L49 23L50 23L50 22L49 22L49 21L48 21L48 20L47 20L47 17L48 17L48 18L49 18L49 17L48 17L48 16L50 16L50 14L49 14L49 13L47 13L47 14L45 14L45 13L44 13L44 14L43 14L43 15L44 15L44 17L43 17L43 16L39 16L39 15L41 15L41 14L42 14L42 13L43 13L43 12L42 12L42 11L43 11L43 10L42 10L42 11L41 11L41 10L39 10L39 9L37 9L37 8L35 8L35 7L36 7L36 6L35 6L35 7L34 7L34 5L32 5L32 4L33 4L33 3L35 3L35 1L34 1L34 2L33 2L33 1L32 1L32 2L31 2L31 7L32 7L32 6L33 6L33 8L32 8L32 9L31 9L31 8L30 8L30 5L29 5L29 9L26 9L26 10L24 10L24 9L23 9L23 8L22 8L22 11L23 11L23 12L22 12L22 14L21 14L21 13L19 13L19 14L20 14L20 16L19 16L19 19L17 19L17 20L16 20L16 19L15 19L15 18L16 18L16 17L18 17L18 16L17 16L17 15L18 15L18 13L17 13L17 12L19 12L19 11L20 11L20 10L19 10L19 11L17 11L17 10L18 10L18 9L21 9L21 7L22 7L22 6L21 6L21 7L20 7L20 6L19 6L19 5L18 5L18 6L17 6L17 7L16 7L16 6L15 6L15 4L14 4L14 2L13 2L13 1ZM22 1L22 2L23 2L23 1ZM15 2L15 3L16 3L16 2ZM41 2L41 5L40 5L40 6L41 6L41 7L42 7L42 6L41 6L41 5L42 5L42 3L43 3L43 2ZM25 5L25 8L28 8L28 5ZM14 6L14 7L15 7L15 8L16 8L16 7L15 7L15 6ZM18 6L18 7L19 7L19 8L20 8L20 7L19 7L19 6ZM26 6L26 7L27 7L27 6ZM44 6L44 7L45 7L45 6ZM17 8L17 9L18 9L18 8ZM33 8L33 9L32 9L32 10L31 10L31 9L30 9L30 11L29 11L29 10L26 10L26 11L27 11L27 12L30 12L30 13L31 13L31 14L29 14L29 15L28 15L28 13L27 13L27 15L26 15L26 16L25 16L25 14L26 14L26 12L25 12L25 11L24 11L24 10L23 10L23 11L24 11L24 12L23 12L23 14L24 14L24 16L23 16L23 17L22 17L22 15L21 15L21 17L22 17L22 18L21 18L21 19L22 19L22 20L20 20L20 22L21 22L21 21L22 21L22 20L23 20L23 22L25 22L25 23L24 23L24 24L23 24L23 23L21 23L21 24L22 24L22 26L20 26L20 25L18 25L18 24L17 24L17 25L18 25L18 26L17 26L17 30L16 30L16 29L15 29L15 28L16 28L16 27L14 27L14 28L13 28L13 31L14 31L14 32L13 32L13 33L16 33L16 34L15 34L15 35L14 35L14 36L13 36L13 37L14 37L14 38L15 38L15 37L16 37L16 36L17 36L17 38L16 38L16 39L18 39L18 38L19 38L19 37L20 37L20 35L22 35L22 36L21 36L21 38L23 38L23 36L25 36L25 32L24 32L24 31L21 31L21 32L22 32L22 33L21 33L21 34L20 34L20 31L19 31L19 30L23 30L23 29L22 29L22 28L23 28L23 27L22 27L22 26L24 26L24 29L25 29L25 30L26 30L26 29L27 29L27 30L28 30L28 31L26 31L26 32L27 32L27 33L28 33L28 32L29 32L29 31L30 31L30 33L31 33L31 32L32 32L32 30L33 30L33 31L34 31L34 30L33 30L33 29L32 29L32 26L33 26L33 27L35 27L35 28L34 28L34 29L35 29L35 30L36 30L36 33L37 33L37 32L38 32L38 33L39 33L39 34L41 34L41 31L39 31L39 32L38 32L38 30L36 30L36 29L39 29L39 30L41 30L41 29L42 29L42 28L41 28L41 29L39 29L39 28L37 28L37 26L38 26L38 25L39 25L39 26L41 26L41 25L42 25L42 24L43 24L43 23L42 23L42 24L38 24L38 22L37 22L37 21L39 21L39 22L43 22L43 21L42 21L42 20L44 20L44 19L45 19L45 18L46 18L46 17L47 17L47 16L45 16L45 18L44 18L44 19L43 19L43 18L42 18L42 20L41 20L41 21L40 21L40 20L37 20L37 21L36 21L36 23L35 23L35 24L34 24L34 25L35 25L35 24L36 24L36 26L33 26L33 25L32 25L32 24L33 24L33 23L32 23L32 22L33 22L33 21L35 21L35 20L33 20L33 19L34 19L34 17L35 17L35 16L34 16L34 15L36 15L36 16L38 16L38 18L35 18L35 19L38 19L38 18L39 18L39 16L38 16L38 15L39 15L39 14L38 14L38 13L39 13L39 12L40 12L40 11L39 11L39 10L35 10L35 11L36 11L36 12L33 12L33 11L32 11L32 10L33 10L33 9L35 9L35 8ZM13 9L13 11L14 11L14 9ZM15 9L15 10L16 10L16 9ZM49 10L49 12L51 12L51 11L50 11L50 10ZM31 11L31 13L32 13L32 11ZM38 11L38 12L37 12L37 13L38 13L38 12L39 12L39 11ZM6 12L6 13L7 13L7 14L8 14L8 13L7 13L7 12ZM24 12L24 13L25 13L25 12ZM41 12L41 13L40 13L40 14L41 14L41 13L42 13L42 12ZM31 14L31 15L34 15L34 14ZM44 14L44 15L45 15L45 14ZM47 14L47 15L49 15L49 14ZM24 16L24 17L23 17L23 18L22 18L22 19L23 19L23 18L24 18L24 17L25 17L25 16ZM28 16L28 17L26 17L26 18L27 18L27 20L26 20L26 19L25 19L25 20L24 20L24 21L25 21L25 20L26 20L26 22L27 22L27 21L29 21L29 23L30 23L30 22L31 22L31 21L33 21L33 20L32 20L32 19L33 19L33 18L32 18L32 17L31 17L31 18L28 18L28 17L30 17L30 16ZM40 17L40 18L41 18L41 17ZM31 18L31 19L29 19L29 21L31 21L31 19L32 19L32 18ZM1 19L1 20L2 20L2 19ZM6 19L6 20L7 20L7 19ZM45 20L45 22L44 22L44 23L45 23L45 22L46 22L46 21L47 21L47 20ZM6 21L6 22L7 22L7 21ZM17 21L17 22L15 22L15 23L18 23L18 22L19 22L19 21ZM25 23L25 24L26 24L26 23ZM27 23L27 24L28 24L28 23ZM31 23L31 24L32 24L32 23ZM36 23L36 24L37 24L37 25L38 25L38 24L37 24L37 23ZM5 25L5 28L8 28L8 25ZM15 25L15 26L16 26L16 25ZM25 25L25 28L28 28L28 25ZM29 25L29 29L28 29L28 30L29 30L29 29L30 29L30 30L32 30L32 29L31 29L31 28L30 28L30 27L31 27L31 26L32 26L32 25L31 25L31 26L30 26L30 25ZM45 25L45 28L48 28L48 25ZM6 26L6 27L7 27L7 26ZM19 26L19 27L18 27L18 28L19 28L19 27L20 27L20 29L21 29L21 28L22 28L22 27L20 27L20 26ZM26 26L26 27L27 27L27 26ZM46 26L46 27L47 27L47 26ZM49 26L49 28L50 28L50 26ZM35 28L35 29L36 29L36 28ZM3 29L3 30L2 30L2 31L4 31L4 29ZM17 30L17 31L15 31L15 32L16 32L16 33L18 33L18 32L17 32L17 31L18 31L18 30ZM42 30L42 32L43 32L43 33L42 33L42 36L41 36L41 35L40 35L40 36L37 36L37 35L38 35L38 34L36 34L36 35L35 35L35 34L34 34L34 33L35 33L35 32L34 32L34 33L32 33L32 34L31 34L31 35L29 35L29 36L26 36L26 38L27 38L27 37L29 37L29 36L31 36L31 35L32 35L32 36L33 36L33 37L32 37L32 38L31 38L31 37L30 37L30 38L28 38L28 39L25 39L25 37L24 37L24 39L21 39L21 40L24 40L24 41L25 41L25 40L28 40L28 41L29 41L29 42L30 42L30 43L29 43L29 44L31 44L31 45L30 45L30 46L31 46L31 45L32 45L32 46L33 46L33 45L34 45L34 44L32 44L32 42L33 42L33 43L34 43L34 41L37 41L37 42L38 42L38 41L39 41L39 40L38 40L38 39L39 39L39 38L38 38L38 37L40 37L40 36L41 36L41 37L42 37L42 39L41 39L41 40L42 40L42 42L41 42L41 43L42 43L42 42L43 42L43 37L44 37L44 35L43 35L43 34L44 34L44 33L45 33L45 36L46 36L46 34L48 34L48 33L46 33L46 31L45 31L45 32L44 32L44 31L43 31L43 30ZM4 32L4 33L3 33L3 35L4 35L4 33L5 33L5 32ZM6 32L6 33L7 33L7 34L6 34L6 35L5 35L5 36L6 36L6 35L7 35L7 34L8 34L8 33L9 33L9 32L8 32L8 33L7 33L7 32ZM23 32L23 34L22 34L22 35L24 35L24 32ZM39 32L39 33L40 33L40 32ZM49 33L49 34L50 34L50 33ZM19 34L19 35L17 35L17 36L18 36L18 37L19 37L19 35L20 35L20 34ZM32 34L32 35L34 35L34 36L35 36L35 35L34 35L34 34ZM15 35L15 36L16 36L16 35ZM36 36L36 37L34 37L34 40L35 40L35 39L36 39L36 38L37 38L37 39L38 39L38 38L37 38L37 36ZM42 36L42 37L43 37L43 36ZM52 36L52 37L53 37L53 36ZM5 37L5 38L6 38L6 37ZM11 38L11 40L14 40L14 39L12 39L12 38ZM32 38L32 39L31 39L31 40L32 40L32 41L33 41L33 38ZM50 38L50 39L51 39L51 38ZM3 39L3 40L4 40L4 39ZM19 39L19 41L18 41L18 40L17 40L17 41L18 41L18 43L17 43L17 44L16 44L16 43L15 43L15 42L16 42L16 41L15 41L15 42L14 42L14 41L13 41L13 42L14 42L14 43L15 43L15 44L16 44L16 45L14 45L14 46L13 46L13 47L14 47L14 46L16 46L16 45L17 45L17 44L18 44L18 43L19 43L19 44L20 44L20 43L22 43L22 42L23 42L23 41L20 41L20 39ZM24 39L24 40L25 40L25 39ZM28 39L28 40L29 40L29 41L30 41L30 40L29 40L29 39ZM44 39L44 40L45 40L45 39ZM52 39L52 40L53 40L53 39ZM37 40L37 41L38 41L38 40ZM3 41L3 42L2 42L2 43L3 43L3 42L4 42L4 41ZM5 41L5 42L7 42L7 41ZM19 42L19 43L20 43L20 42ZM27 42L27 43L28 43L28 42ZM6 44L6 45L7 45L7 44ZM11 44L11 45L12 45L12 44ZM21 44L21 45L22 45L22 46L23 46L23 45L22 45L22 44ZM49 44L49 45L50 45L50 46L49 46L49 48L50 48L50 47L52 47L52 46L51 46L51 45L50 45L50 44ZM25 45L25 48L28 48L28 45ZM40 45L40 49L42 49L42 48L41 48L41 45ZM45 45L45 48L48 48L48 45ZM20 46L20 47L21 47L21 46ZM26 46L26 47L27 47L27 46ZM46 46L46 47L47 47L47 46ZM8 48L8 53L9 53L9 51L10 51L10 50L9 50L9 48ZM43 48L43 49L44 49L44 48ZM49 50L49 51L50 51L50 53L51 53L51 51L52 51L52 52L53 52L53 51L52 51L52 50ZM42 51L42 52L43 52L43 53L44 53L44 52L43 52L43 51ZM34 52L34 53L35 53L35 52ZM0 0L0 7L7 7L7 0ZM1 1L1 6L6 6L6 1ZM2 2L2 5L5 5L5 2ZM46 0L46 7L53 7L53 0ZM47 1L47 6L52 6L52 1ZM48 2L48 5L51 5L51 2ZM0 46L0 53L7 53L7 46ZM1 47L1 52L6 52L6 47ZM2 48L2 51L5 51L5 48Z" fill="#000000"/></g></g></svg>
