<?xml version="1.0" encoding="UTF-8"?>
<svg xmlns="http://www.w3.org/2000/svg" version="1.1" width="300" height="300" viewBox="0 0 300 300"><rect x="0" y="0" width="300" height="300" fill="#ffffff"/><g transform="scale(5.66)"><g transform="translate(0,0)"><path fill-rule="evenodd" d="M8 0L8 4L9 4L9 5L8 5L8 7L9 7L9 10L6 10L6 11L9 11L9 10L10 10L10 8L11 8L11 9L12 9L12 10L13 10L13 11L14 11L14 12L15 12L15 14L14 14L14 13L12 13L12 11L10 11L10 12L9 12L9 13L10 13L10 14L13 14L13 15L10 15L10 17L9 17L9 15L8 15L8 14L6 14L6 13L8 13L8 12L6 12L6 13L5 13L5 14L4 14L4 12L5 12L5 9L7 9L7 8L4 8L4 9L3 9L3 10L2 10L2 12L3 12L3 13L2 13L2 16L1 16L1 15L0 15L0 16L1 16L1 18L0 18L0 19L2 19L2 18L3 18L3 20L2 20L2 21L4 21L4 22L1 22L1 23L4 23L4 26L3 26L3 25L2 25L2 26L1 26L1 24L0 24L0 26L1 26L1 27L2 27L2 28L3 28L3 29L1 29L1 28L0 28L0 31L1 31L1 32L0 32L0 33L1 33L1 32L2 32L2 31L4 31L4 32L3 32L3 33L2 33L2 34L0 34L0 36L1 36L1 38L0 38L0 39L1 39L1 40L3 40L3 41L4 41L4 42L3 42L3 43L2 43L2 42L0 42L0 43L1 43L1 44L3 44L3 45L4 45L4 44L3 44L3 43L7 43L7 44L6 44L6 45L8 45L8 46L9 46L9 47L8 47L8 49L9 49L9 51L8 51L8 53L11 53L11 52L15 52L15 51L16 51L16 50L17 50L17 52L18 52L18 53L19 53L19 52L20 52L20 51L23 51L23 50L24 50L24 49L25 49L25 51L24 51L24 52L23 52L23 53L25 53L25 51L27 51L27 52L28 52L28 51L29 51L29 47L30 47L30 46L31 46L31 48L33 48L33 47L34 47L34 48L35 48L35 49L37 49L37 50L39 50L39 51L40 51L40 53L41 53L41 52L42 52L42 51L43 51L43 49L44 49L44 51L46 51L46 49L49 49L49 50L48 50L48 51L47 51L47 52L44 52L44 53L50 53L50 52L51 52L51 53L52 53L52 52L51 52L51 51L53 51L53 50L52 50L52 47L50 47L50 49L49 49L49 45L50 45L50 46L51 46L51 45L50 45L50 44L52 44L52 46L53 46L53 44L52 44L52 43L53 43L53 42L52 42L52 43L51 43L51 41L52 41L52 40L48 40L48 42L47 42L47 41L46 41L46 42L45 42L45 43L43 43L43 42L44 42L44 41L45 41L45 39L46 39L46 40L47 40L47 39L49 39L49 38L50 38L50 39L51 39L51 38L52 38L52 39L53 39L53 38L52 38L52 37L53 37L53 34L51 34L51 32L53 32L53 31L52 31L52 30L53 30L53 29L52 29L52 28L53 28L53 26L52 26L52 28L51 28L51 25L52 25L52 24L53 24L53 21L52 21L52 15L53 15L53 14L52 14L52 11L53 11L53 8L49 8L49 9L50 9L50 11L51 11L51 13L50 13L50 16L51 16L51 17L50 17L50 18L49 18L49 20L48 20L48 21L50 21L50 23L48 23L48 24L47 24L47 22L46 22L46 24L44 24L44 25L43 25L43 26L41 26L41 25L42 25L42 23L43 23L43 22L44 22L44 23L45 23L45 20L44 20L44 19L45 19L45 16L44 16L44 15L45 15L45 13L44 13L44 15L43 15L43 16L44 16L44 17L43 17L43 18L44 18L44 19L43 19L43 21L42 21L42 18L41 18L41 17L40 17L40 15L41 15L41 13L42 13L42 14L43 14L43 13L42 13L42 11L43 11L43 12L44 12L44 11L45 11L45 10L46 10L46 17L47 17L47 18L46 18L46 21L47 21L47 18L48 18L48 17L49 17L49 15L47 15L47 13L49 13L49 12L48 12L48 11L47 11L47 9L48 9L48 8L47 8L47 9L45 9L45 8L43 8L43 9L42 9L42 11L41 11L41 9L40 9L40 8L41 8L41 6L42 6L42 7L43 7L43 3L44 3L44 4L45 4L45 3L44 3L44 1L43 1L43 0L37 0L37 1L35 1L35 0L33 0L33 1L32 1L32 0L31 0L31 1L32 1L32 2L33 2L33 1L35 1L35 2L34 2L34 3L33 3L33 4L34 4L34 3L35 3L35 4L37 4L37 5L32 5L32 4L29 4L29 2L30 2L30 0L29 0L29 1L28 1L28 0L26 0L26 1L25 1L25 3L24 3L24 1L23 1L23 0L22 0L22 1L23 1L23 3L22 3L22 4L20 4L20 5L22 5L22 4L24 4L24 8L23 8L23 9L24 9L24 11L23 11L23 10L20 10L20 11L17 11L17 10L16 10L16 11L14 11L14 10L15 10L15 9L16 9L16 8L17 8L17 9L18 9L18 10L19 10L19 9L21 9L21 8L22 8L22 7L23 7L23 6L22 6L22 7L21 7L21 6L20 6L20 7L19 7L19 6L18 6L18 5L19 5L19 4L18 4L18 3L19 3L19 1L20 1L20 2L21 2L21 0L13 0L13 1L14 1L14 5L13 5L13 2L12 2L12 0ZM9 1L9 2L10 2L10 3L9 3L9 4L10 4L10 3L11 3L11 8L13 8L13 7L14 7L14 8L15 8L15 7L16 7L16 5L17 5L17 4L15 4L15 7L14 7L14 6L13 6L13 7L12 7L12 3L11 3L11 1ZM15 1L15 3L17 3L17 2L16 2L16 1ZM26 1L26 3L25 3L25 4L26 4L26 3L27 3L27 4L28 4L28 3L27 3L27 1ZM38 1L38 2L35 2L35 3L37 3L37 4L38 4L38 3L39 3L39 1ZM40 1L40 4L41 4L41 5L39 5L39 7L38 7L38 6L37 6L37 7L36 7L36 6L35 6L35 9L34 9L34 6L33 6L33 9L32 9L32 8L31 8L31 7L32 7L32 6L31 6L31 7L30 7L30 5L29 5L29 7L30 7L30 8L29 8L29 9L27 9L27 11L26 11L26 9L25 9L25 11L24 11L24 13L25 13L25 14L24 14L24 17L23 17L23 16L21 16L21 15L22 15L22 14L23 14L23 11L22 11L22 12L19 12L19 13L21 13L21 14L20 14L20 16L21 16L21 17L23 17L23 19L21 19L21 18L16 18L16 19L15 19L15 18L14 18L14 19L13 19L13 18L11 18L11 17L18 17L18 16L19 16L19 14L18 14L18 13L17 13L17 12L16 12L16 15L15 15L15 16L14 16L14 15L13 15L13 16L11 16L11 17L10 17L10 18L9 18L9 19L8 19L8 20L7 20L7 19L6 19L6 18L7 18L7 17L8 17L8 16L7 16L7 15L6 15L6 16L7 16L7 17L5 17L5 15L4 15L4 14L3 14L3 15L4 15L4 16L3 16L3 17L4 17L4 19L6 19L6 20L7 20L7 21L6 21L6 22L5 22L5 23L6 23L6 24L9 24L9 22L10 22L10 23L11 23L11 25L13 25L13 26L14 26L14 27L13 27L13 28L12 28L12 27L10 27L10 25L9 25L9 30L16 30L16 31L15 31L15 32L14 32L14 31L13 31L13 32L12 32L12 31L11 31L11 32L10 32L10 31L6 31L6 32L5 32L5 33L4 33L4 34L3 34L3 35L4 35L4 36L2 36L2 37L3 37L3 38L4 38L4 39L3 39L3 40L5 40L5 42L9 42L9 43L8 43L8 45L9 45L9 46L10 46L10 47L9 47L9 48L11 48L11 49L10 49L10 50L11 50L11 51L15 51L15 49L18 49L18 48L20 48L20 49L22 49L22 50L23 50L23 49L24 49L24 47L22 47L22 46L21 46L21 47L20 47L20 46L19 46L19 44L18 44L18 43L20 43L20 44L21 44L21 45L23 45L23 46L24 46L24 44L25 44L25 42L26 42L26 44L28 44L28 43L27 43L27 42L26 42L26 41L24 41L24 39L27 39L27 41L28 41L28 42L29 42L29 41L30 41L30 40L31 40L31 42L30 42L30 45L32 45L32 47L33 47L33 45L35 45L35 44L36 44L36 43L37 43L37 45L36 45L36 48L38 48L38 49L39 49L39 50L40 50L40 49L42 49L42 48L43 48L43 47L42 47L42 46L41 46L41 45L40 45L40 44L41 44L41 43L42 43L42 45L44 45L44 44L43 44L43 43L42 43L42 40L44 40L44 39L45 39L45 38L46 38L46 39L47 39L47 38L46 38L46 37L51 37L51 36L52 36L52 35L51 35L51 36L49 36L49 35L50 35L50 33L49 33L49 31L47 31L47 32L45 32L45 31L46 31L46 30L45 30L45 29L44 29L44 30L43 30L43 27L42 27L42 29L41 29L41 28L40 28L40 21L41 21L41 20L40 20L40 18L39 18L39 15L40 15L40 14L39 14L39 15L38 15L38 19L37 19L37 14L38 14L38 13L39 13L39 11L40 11L40 9L39 9L39 8L40 8L40 6L41 6L41 5L42 5L42 4L41 4L41 1ZM42 2L42 3L43 3L43 2ZM9 5L9 7L10 7L10 5ZM25 5L25 8L28 8L28 5ZM17 6L17 7L18 7L18 6ZM26 6L26 7L27 7L27 6ZM44 6L44 7L45 7L45 6ZM20 7L20 8L21 8L21 7ZM37 7L37 8L38 8L38 7ZM0 8L0 11L1 11L1 9L2 9L2 8ZM18 8L18 9L19 9L19 8ZM13 9L13 10L14 10L14 9ZM30 9L30 10L29 10L29 11L27 11L27 12L26 12L26 14L25 14L25 16L26 16L26 18L25 18L25 17L24 17L24 18L25 18L25 19L26 19L26 22L27 22L27 23L28 23L28 22L29 22L29 23L30 23L30 22L29 22L29 21L33 21L33 22L34 22L34 24L33 24L33 23L32 23L32 22L31 22L31 23L32 23L32 25L31 25L31 24L24 24L24 23L25 23L25 21L24 21L24 20L23 20L23 22L22 22L22 21L21 21L21 22L22 22L22 23L21 23L21 24L19 24L19 22L20 22L20 20L19 20L19 19L17 19L17 20L19 20L19 21L17 21L17 22L18 22L18 23L16 23L16 21L15 21L15 19L14 19L14 20L10 20L10 21L15 21L15 23L16 23L16 24L14 24L14 23L13 23L13 25L14 25L14 26L15 26L15 25L16 25L16 24L17 24L17 25L18 25L18 26L19 26L19 25L20 25L20 27L18 27L18 28L17 28L17 26L16 26L16 27L14 27L14 28L15 28L15 29L16 29L16 28L17 28L17 31L16 31L16 32L17 32L17 31L18 31L18 30L19 30L19 28L20 28L20 29L21 29L21 28L20 28L20 27L23 27L23 28L24 28L24 29L25 29L25 30L23 30L23 29L22 29L22 31L21 31L21 32L20 32L20 31L19 31L19 32L18 32L18 33L10 33L10 32L9 32L9 34L8 34L8 33L7 33L7 32L6 32L6 33L7 33L7 34L6 34L6 35L7 35L7 36L6 36L6 37L5 37L5 36L4 36L4 37L5 37L5 40L6 40L6 41L7 41L7 40L8 40L8 41L10 41L10 43L9 43L9 44L10 44L10 46L12 46L12 47L13 47L13 48L12 48L12 49L11 49L11 50L12 50L12 49L14 49L14 48L15 48L15 46L14 46L14 45L17 45L17 43L18 43L18 42L19 42L19 41L18 41L18 40L20 40L20 41L22 41L22 42L20 42L20 43L23 43L23 41L22 41L22 39L24 39L24 38L26 38L26 36L25 36L25 37L24 37L24 38L23 38L23 36L22 36L22 39L21 39L21 40L20 40L20 39L19 39L19 38L21 38L21 36L20 36L20 35L24 35L24 34L27 34L27 33L29 33L29 32L30 32L30 33L31 33L31 34L28 34L28 37L27 37L27 39L28 39L28 41L29 41L29 38L30 38L30 39L32 39L32 37L33 37L33 36L34 36L34 37L36 37L36 36L35 36L35 35L36 35L36 34L35 34L35 35L32 35L32 33L35 33L35 32L36 32L36 33L37 33L37 35L38 35L38 34L39 34L39 33L40 33L40 35L41 35L41 37L42 37L42 38L40 38L40 37L38 37L38 39L37 39L37 40L35 40L35 39L36 39L36 38L33 38L33 40L32 40L32 41L33 41L33 40L34 40L34 41L38 41L38 42L40 42L40 43L39 43L39 44L40 44L40 43L41 43L41 42L40 42L40 40L41 40L41 39L42 39L42 38L45 38L45 37L46 37L46 36L47 36L47 35L49 35L49 34L48 34L48 33L46 33L46 34L45 34L45 33L44 33L44 34L45 34L45 36L44 36L44 35L43 35L43 36L44 36L44 37L42 37L42 34L43 34L43 33L42 33L42 34L41 34L41 32L42 32L42 30L41 30L41 29L40 29L40 28L39 28L39 29L37 29L37 27L34 27L34 25L35 25L35 23L36 23L36 26L37 26L37 25L38 25L38 26L39 26L39 25L38 25L38 22L39 22L39 21L36 21L36 22L34 22L34 21L35 21L35 20L37 20L37 19L35 19L35 18L33 18L33 19L32 19L32 17L31 17L31 16L34 16L34 17L35 17L35 16L36 16L36 15L31 15L31 16L30 16L30 17L28 17L28 18L27 18L27 16L28 16L28 15L29 15L29 14L27 14L27 13L28 13L28 12L29 12L29 11L30 11L30 10L31 10L31 11L32 11L32 12L30 12L30 13L32 13L32 12L33 12L33 11L32 11L32 9ZM33 9L33 10L34 10L34 14L37 14L37 13L38 13L38 11L39 11L39 9L37 9L37 12L36 12L36 11L35 11L35 10L34 10L34 9ZM43 9L43 10L44 10L44 9ZM3 10L3 11L4 11L4 10ZM10 12L10 13L11 13L11 12ZM40 12L40 13L41 13L41 12ZM0 13L0 14L1 14L1 13ZM17 14L17 15L16 15L16 16L17 16L17 15L18 15L18 14ZM26 14L26 16L27 16L27 14ZM51 14L51 15L52 15L52 14ZM47 16L47 17L48 17L48 16ZM10 18L10 19L11 19L11 18ZM28 18L28 19L27 19L27 20L28 20L28 21L27 21L27 22L28 22L28 21L29 21L29 20L32 20L32 19L29 19L29 18ZM33 19L33 21L34 21L34 19ZM50 19L50 20L51 20L51 19ZM7 21L7 22L6 22L6 23L7 23L7 22L8 22L8 21ZM36 22L36 23L37 23L37 22ZM22 23L22 24L23 24L23 23ZM50 23L50 24L49 24L49 29L48 29L48 30L50 30L50 24L52 24L52 23ZM18 24L18 25L19 25L19 24ZM5 25L5 28L8 28L8 25ZM25 25L25 28L28 28L28 25ZM29 25L29 26L30 26L30 25ZM32 25L32 28L31 28L31 27L30 27L30 28L29 28L29 29L26 29L26 30L25 30L25 32L26 32L26 31L28 31L28 30L29 30L29 31L30 31L30 32L31 32L31 29L32 29L32 32L34 32L34 31L33 31L33 29L32 29L32 28L34 28L34 27L33 27L33 25ZM45 25L45 28L48 28L48 25ZM2 26L2 27L3 27L3 28L4 28L4 27L3 27L3 26ZM6 26L6 27L7 27L7 26ZM26 26L26 27L27 27L27 26ZM46 26L46 27L47 27L47 26ZM10 28L10 29L12 29L12 28ZM35 28L35 29L34 29L34 30L35 30L35 29L36 29L36 32L37 32L37 29L36 29L36 28ZM3 29L3 30L7 30L7 29ZM29 29L29 30L30 30L30 29ZM39 29L39 30L38 30L38 33L39 33L39 31L40 31L40 32L41 32L41 31L40 31L40 29ZM51 29L51 30L52 30L52 29ZM22 31L22 32L23 32L23 34L24 34L24 31ZM43 31L43 32L44 32L44 31ZM50 31L50 32L51 32L51 31ZM19 32L19 34L16 34L16 35L15 35L15 34L14 34L14 35L13 35L13 34L12 34L12 35L11 35L11 34L9 34L9 35L10 35L10 36L9 36L9 37L8 37L8 36L7 36L7 37L6 37L6 38L8 38L8 39L10 39L10 37L11 37L11 40L12 40L12 41L11 41L11 45L12 45L12 44L13 44L13 43L14 43L14 44L15 44L15 43L16 43L16 42L18 42L18 41L17 41L17 40L16 40L16 39L18 39L18 38L17 38L17 35L20 35L20 32ZM21 33L21 34L22 34L22 33ZM7 34L7 35L8 35L8 34ZM12 35L12 36L11 36L11 37L12 37L12 36L13 36L13 35ZM14 35L14 36L15 36L15 35ZM30 35L30 37L31 37L31 36L32 36L32 35ZM18 36L18 37L20 37L20 36ZM13 37L13 38L12 38L12 39L13 39L13 41L12 41L12 43L13 43L13 41L14 41L14 43L15 43L15 41L16 41L16 40L14 40L14 39L13 39L13 38L14 38L14 37ZM15 37L15 38L16 38L16 37ZM28 37L28 38L29 38L29 37ZM1 38L1 39L2 39L2 38ZM39 38L39 39L38 39L38 41L39 41L39 40L40 40L40 38ZM6 39L6 40L7 40L7 39ZM49 41L49 43L48 43L48 44L49 44L49 43L50 43L50 41ZM31 42L31 44L32 44L32 42ZM33 42L33 43L34 43L34 44L35 44L35 42ZM46 42L46 43L47 43L47 42ZM25 45L25 48L28 48L28 45ZM37 45L37 46L38 46L38 45ZM45 45L45 48L48 48L48 45ZM16 46L16 48L17 48L17 47L18 47L18 46ZM26 46L26 47L27 47L27 46ZM34 46L34 47L35 47L35 46ZM39 46L39 48L41 48L41 46ZM46 46L46 47L47 47L47 46ZM21 47L21 48L22 48L22 49L23 49L23 48L22 48L22 47ZM30 49L30 50L31 50L31 52L30 52L30 53L31 53L31 52L32 52L32 53L35 53L35 52L36 52L36 53L37 53L37 52L36 52L36 51L34 51L34 50L33 50L33 51L34 51L34 52L32 52L32 49ZM18 50L18 51L19 51L19 50ZM27 50L27 51L28 51L28 50ZM9 51L9 52L10 52L10 51ZM49 51L49 52L50 52L50 51ZM0 0L0 7L7 7L7 0ZM1 1L1 6L6 6L6 1ZM2 2L2 5L5 5L5 2ZM46 0L46 7L53 7L53 0ZM47 1L47 6L52 6L52 1ZM48 2L48 5L51 5L51 2ZM0 46L0 53L7 53L7 46ZM1 47L1 52L6 52L6 47ZM2 48L2 51L5 51L5 48Z" fill="#000000"/></g></g></svg>
