<?xml version="1.0" encoding="UTF-8"?>
<svg xmlns="http://www.w3.org/2000/svg" version="1.1" width="300" height="300" viewBox="0 0 300 300"><rect x="0" y="0" width="300" height="300" fill="#ffffff"/><g transform="scale(6.122)"><g transform="translate(0,0)"><path fill-rule="evenodd" d="M8 0L8 1L9 1L9 0ZM12 0L12 1L10 1L10 2L9 2L9 3L10 3L10 4L9 4L9 6L8 6L8 8L10 8L10 9L11 9L11 10L13 10L13 11L10 11L10 13L11 13L11 12L13 12L13 11L14 11L14 12L16 12L16 13L17 13L17 12L18 12L18 11L17 11L17 6L18 6L18 7L19 7L19 5L20 5L20 7L21 7L21 8L22 8L22 9L21 9L21 11L22 11L22 13L21 13L21 12L20 12L20 11L19 11L19 13L18 13L18 14L16 14L16 18L15 18L15 17L14 17L14 16L12 16L12 17L11 17L11 16L10 16L10 15L11 15L11 14L8 14L8 15L7 15L7 14L6 14L6 13L8 13L8 12L9 12L9 11L8 11L8 12L6 12L6 11L7 11L7 10L8 10L8 9L7 9L7 8L6 8L6 9L5 9L5 8L3 8L3 9L2 9L2 8L0 8L0 9L1 9L1 10L0 10L0 12L1 12L1 13L2 13L2 14L0 14L0 16L2 16L2 14L3 14L3 16L4 16L4 17L2 17L2 18L1 18L1 17L0 17L0 18L1 18L1 19L0 19L0 21L1 21L1 20L2 20L2 19L4 19L4 20L3 20L3 21L4 21L4 20L5 20L5 21L7 21L7 20L5 20L5 18L6 18L6 19L9 19L9 20L11 20L11 21L9 21L9 22L4 22L4 23L3 23L3 24L2 24L2 25L3 25L3 24L4 24L4 26L0 26L0 27L5 27L5 28L4 28L4 29L5 29L5 30L3 30L3 29L2 29L2 30L1 30L1 28L0 28L0 31L1 31L1 32L0 32L0 33L1 33L1 32L2 32L2 34L4 34L4 33L5 33L5 35L7 35L7 34L6 34L6 33L10 33L10 32L9 32L9 30L8 30L8 29L7 29L7 28L8 28L8 27L9 27L9 29L11 29L11 28L13 28L13 29L14 29L14 28L13 28L13 26L14 26L14 27L15 27L15 28L17 28L17 27L18 27L18 25L17 25L17 24L18 24L18 23L19 23L19 24L20 24L20 25L19 25L19 29L16 29L16 31L17 31L17 30L18 30L18 31L20 31L20 32L19 32L19 34L17 34L17 33L18 33L18 32L17 32L17 33L16 33L16 34L17 34L17 35L15 35L15 33L14 33L14 31L15 31L15 30L13 30L13 31L12 31L12 33L11 33L11 34L10 34L10 36L9 36L9 37L8 37L8 36L6 36L6 37L8 37L8 39L9 39L9 40L6 40L6 41L8 41L8 42L9 42L9 43L10 43L10 44L8 44L8 46L10 46L10 47L11 47L11 48L12 48L12 49L13 49L13 47L14 47L14 49L16 49L16 48L17 48L17 49L21 49L21 48L22 48L22 49L28 49L28 48L26 48L26 46L27 46L27 47L28 47L28 46L27 46L27 45L30 45L30 44L31 44L31 45L34 45L34 46L35 46L35 47L33 47L33 46L30 46L30 49L31 49L31 48L32 48L32 49L34 49L34 48L35 48L35 49L36 49L36 47L37 47L37 46L35 46L35 45L34 45L34 42L35 42L35 39L36 39L36 45L37 45L37 44L38 44L38 45L39 45L39 48L37 48L37 49L39 49L39 48L40 48L40 49L43 49L43 47L42 47L42 48L41 48L41 47L40 47L40 45L41 45L41 46L45 46L45 47L46 47L46 46L47 46L47 47L49 47L49 44L48 44L48 43L49 43L49 41L48 41L48 40L47 40L47 41L46 41L46 40L45 40L45 39L46 39L46 38L45 38L45 37L47 37L47 36L48 36L48 38L47 38L47 39L49 39L49 36L48 36L48 34L49 34L49 33L47 33L47 32L45 32L45 31L46 31L46 30L47 30L47 31L48 31L48 30L49 30L49 28L48 28L48 30L47 30L47 29L46 29L46 30L45 30L45 29L44 29L44 30L45 30L45 31L42 31L42 29L43 29L43 28L47 28L47 27L48 27L48 25L49 25L49 20L47 20L47 19L46 19L46 18L48 18L48 17L49 17L49 16L48 16L48 17L45 17L45 15L44 15L44 18L43 18L43 17L42 17L42 18L43 18L43 19L41 19L41 20L44 20L44 19L46 19L46 20L47 20L47 21L46 21L46 23L45 23L45 22L42 22L42 21L41 21L41 22L40 22L40 19L39 19L39 18L41 18L41 17L40 17L40 16L41 16L41 13L40 13L40 12L41 12L41 10L40 10L40 12L39 12L39 13L38 13L38 11L39 11L39 9L40 9L40 7L41 7L41 6L40 6L40 7L39 7L39 5L36 5L36 4L38 4L38 3L37 3L37 2L39 2L39 4L40 4L40 3L41 3L41 0L40 0L40 1L38 1L38 0L37 0L37 1L35 1L35 0L34 0L34 1L35 1L35 2L33 2L33 0L32 0L32 2L31 2L31 1L30 1L30 0L27 0L27 1L30 1L30 2L29 2L29 3L28 3L28 2L27 2L27 3L28 3L28 7L27 7L27 4L26 4L26 0L25 0L25 1L24 1L24 0L21 0L21 1L24 1L24 4L23 4L23 2L22 2L22 4L21 4L21 3L20 3L20 2L19 2L19 1L20 1L20 0L19 0L19 1L18 1L18 0L17 0L17 1L16 1L16 0L14 0L14 1L13 1L13 0ZM12 1L12 4L14 4L14 3L15 3L15 5L14 5L14 6L13 6L13 7L12 7L12 5L11 5L11 4L10 4L10 6L9 6L9 7L10 7L10 8L11 8L11 9L14 9L14 11L16 11L16 10L15 10L15 9L14 9L14 8L15 8L15 7L16 7L16 6L17 6L17 5L18 5L18 3L17 3L17 5L16 5L16 1L15 1L15 2L13 2L13 1ZM17 1L17 2L18 2L18 1ZM32 2L32 3L33 3L33 4L32 4L32 6L31 6L31 8L30 8L30 4L31 4L31 3L29 3L29 7L28 7L28 10L27 10L27 11L26 11L26 9L23 9L23 10L22 10L22 11L23 11L23 13L22 13L22 16L21 16L21 17L20 17L20 18L19 18L19 20L20 20L20 21L22 21L22 20L20 20L20 19L21 19L21 17L22 17L22 16L24 16L24 17L23 17L23 18L26 18L26 19L25 19L25 21L24 21L24 19L23 19L23 21L24 21L24 22L25 22L25 21L26 21L26 19L27 19L27 22L28 22L28 23L27 23L27 25L28 25L28 23L29 23L29 24L30 24L30 23L29 23L29 22L30 22L30 21L31 21L31 22L32 22L32 21L33 21L33 23L31 23L31 24L33 24L33 25L32 25L32 27L31 27L31 29L29 29L29 27L27 27L27 29L28 29L28 30L29 30L29 31L28 31L28 32L26 32L26 30L23 30L23 31L22 31L22 30L21 30L21 29L20 29L20 31L21 31L21 32L20 32L20 33L21 33L21 34L19 34L19 35L20 35L20 36L19 36L19 38L21 38L21 41L19 41L19 39L17 39L17 38L16 38L16 40L17 40L17 41L15 41L15 42L12 42L12 43L14 43L14 44L13 44L13 46L14 46L14 44L15 44L15 48L16 48L16 47L17 47L17 48L19 48L19 47L18 47L18 45L19 45L19 46L20 46L20 48L21 48L21 47L22 47L22 48L25 48L25 47L23 47L23 46L25 46L25 45L23 45L23 46L20 46L20 45L19 45L19 44L20 44L20 43L21 43L21 41L22 41L22 40L23 40L23 39L22 39L22 37L24 37L24 36L22 36L22 33L23 33L23 35L26 35L26 36L27 36L27 35L29 35L29 36L30 36L30 37L29 37L29 38L30 38L30 37L31 37L31 36L30 36L30 34L31 34L31 35L32 35L32 36L33 36L33 37L32 37L32 38L31 38L31 40L29 40L29 43L28 43L28 39L27 39L27 37L26 37L26 39L25 39L25 38L24 38L24 39L25 39L25 40L26 40L26 39L27 39L27 44L29 44L29 43L32 43L32 44L33 44L33 43L32 43L32 42L30 42L30 41L32 41L32 40L33 40L33 38L34 38L34 39L35 39L35 37L36 37L36 38L37 38L37 37L36 37L36 36L37 36L37 35L36 35L36 34L37 34L37 32L35 32L35 31L36 31L36 30L37 30L37 31L39 31L39 28L40 28L40 31L41 31L41 28L40 28L40 24L39 24L39 23L38 23L38 22L37 22L37 21L38 21L38 18L39 18L39 16L40 16L40 15L39 15L39 14L40 14L40 13L39 13L39 14L37 14L37 13L35 13L35 12L36 12L36 10L37 10L37 11L38 11L38 9L35 9L35 7L36 7L36 5L35 5L35 3L36 3L36 2L35 2L35 3L33 3L33 2ZM19 3L19 4L20 4L20 5L21 5L21 7L22 7L22 5L21 5L21 4L20 4L20 3ZM33 4L33 5L34 5L34 7L35 7L35 5L34 5L34 4ZM23 5L23 8L26 8L26 5ZM10 6L10 7L11 7L11 8L12 8L12 7L11 7L11 6ZM14 6L14 7L13 7L13 8L14 8L14 7L15 7L15 6ZM24 6L24 7L25 7L25 6ZM32 6L32 8L31 8L31 9L32 9L32 10L30 10L30 9L29 9L29 10L30 10L30 11L28 11L28 12L26 12L26 11L25 11L25 10L23 10L23 11L25 11L25 12L24 12L24 13L23 13L23 14L24 14L24 15L25 15L25 14L26 14L26 16L25 16L25 17L26 17L26 16L27 16L27 17L28 17L28 19L29 19L29 17L28 17L28 15L29 15L29 12L31 12L31 14L32 14L32 13L33 13L33 15L32 15L32 16L31 16L31 15L30 15L30 16L31 16L31 17L30 17L30 18L32 18L32 19L30 19L30 20L34 20L34 16L35 16L35 18L36 18L36 20L35 20L35 21L34 21L34 23L33 23L33 24L35 24L35 25L37 25L37 24L35 24L35 21L37 21L37 18L36 18L36 15L37 15L37 14L35 14L35 15L34 15L34 13L33 13L33 12L35 12L35 11L34 11L34 10L35 10L35 9L34 9L34 8L33 8L33 6ZM37 6L37 7L38 7L38 6ZM18 8L18 10L20 10L20 9L19 9L19 8ZM42 8L42 12L45 12L45 11L46 11L46 12L47 12L47 14L49 14L49 12L48 12L48 11L49 11L49 8L48 8L48 10L47 10L47 9L45 9L45 10L44 10L44 9L43 9L43 8ZM3 9L3 11L4 11L4 13L3 13L3 12L2 12L2 13L3 13L3 14L4 14L4 13L6 13L6 12L5 12L5 11L6 11L6 10L7 10L7 9L6 9L6 10L5 10L5 9ZM33 9L33 10L34 10L34 9ZM1 10L1 11L2 11L2 10ZM4 10L4 11L5 11L5 10ZM43 10L43 11L44 11L44 10ZM32 11L32 12L33 12L33 11ZM25 12L25 13L24 13L24 14L25 14L25 13L26 13L26 12ZM13 13L13 14L15 14L15 13ZM27 13L27 14L28 14L28 13ZM42 13L42 14L44 14L44 13ZM20 14L20 15L17 15L17 17L18 17L18 16L20 16L20 15L21 15L21 14ZM4 15L4 16L5 16L5 15ZM6 15L6 16L7 16L7 15ZM38 15L38 16L37 16L37 17L38 17L38 16L39 16L39 15ZM42 15L42 16L43 16L43 15ZM46 15L46 16L47 16L47 15ZM9 16L9 17L8 17L8 18L9 18L9 19L10 19L10 18L11 18L11 19L13 19L13 20L12 20L12 21L11 21L11 22L13 22L13 23L12 23L12 24L11 24L11 25L10 25L10 24L9 24L9 25L10 25L10 28L11 28L11 26L13 26L13 23L14 23L14 22L13 22L13 20L14 20L14 21L15 21L15 20L14 20L14 19L13 19L13 18L14 18L14 17L13 17L13 18L11 18L11 17L10 17L10 16ZM4 17L4 18L5 18L5 17ZM6 17L6 18L7 18L7 17ZM32 17L32 18L33 18L33 17ZM16 18L16 20L17 20L17 21L16 21L16 22L17 22L17 23L16 23L16 24L14 24L14 26L15 26L15 25L16 25L16 27L17 27L17 25L16 25L16 24L17 24L17 23L18 23L18 22L17 22L17 21L18 21L18 20L17 20L17 18ZM47 21L47 24L45 24L45 25L46 25L46 27L47 27L47 25L48 25L48 21ZM0 22L0 25L1 25L1 23L2 23L2 22ZM9 22L9 23L10 23L10 22ZM19 22L19 23L20 23L20 24L21 24L21 25L20 25L20 26L21 26L21 28L22 28L22 29L26 29L26 27L25 27L25 28L24 28L24 27L23 27L23 28L22 28L22 26L21 26L21 25L22 25L22 22ZM36 22L36 23L37 23L37 22ZM5 23L5 26L8 26L8 23ZM23 23L23 26L26 26L26 23ZM41 23L41 26L44 26L44 23ZM6 24L6 25L7 25L7 24ZM24 24L24 25L25 25L25 24ZM42 24L42 25L43 25L43 24ZM33 25L33 26L34 26L34 28L33 28L33 29L34 29L34 30L30 30L30 31L29 31L29 32L28 32L28 34L29 34L29 32L31 32L31 34L32 34L32 35L33 35L33 36L35 36L35 35L33 35L33 34L34 34L34 31L35 31L35 29L36 29L36 28L39 28L39 25L38 25L38 27L37 27L37 26L34 26L34 25ZM6 27L6 28L7 28L7 27ZM6 29L6 30L7 30L7 31L6 31L6 32L8 32L8 30L7 30L7 29ZM2 30L2 31L3 31L3 30ZM23 31L23 32L25 32L25 31ZM32 31L32 32L33 32L33 31ZM39 32L39 33L38 33L38 34L39 34L39 33L40 33L40 34L43 34L43 35L44 35L44 36L45 36L45 35L46 35L46 34L45 34L45 33L44 33L44 34L43 34L43 33L40 33L40 32ZM12 33L12 34L11 34L11 36L12 36L12 35L14 35L14 36L15 36L15 35L14 35L14 33ZM32 33L32 34L33 34L33 33ZM26 34L26 35L27 35L27 34ZM0 35L0 37L1 37L1 36L2 36L2 38L1 38L1 40L0 40L0 41L3 41L3 40L4 40L4 39L2 39L2 38L4 38L4 37L3 37L3 36L4 36L4 35L3 35L3 36L2 36L2 35ZM17 35L17 36L18 36L18 35ZM38 35L38 39L37 39L37 40L38 40L38 41L37 41L37 43L38 43L38 42L39 42L39 43L40 43L40 39L41 39L41 40L43 40L43 38L44 38L44 39L45 39L45 38L44 38L44 37L43 37L43 38L42 38L42 37L41 37L41 38L40 38L40 39L39 39L39 36L42 36L42 35ZM20 36L20 37L22 37L22 36ZM9 37L9 38L10 38L10 39L12 39L12 40L11 40L11 41L10 41L10 42L11 42L11 41L14 41L14 40L13 40L13 39L15 39L15 38L14 38L14 37L12 37L12 38L11 38L11 37ZM5 38L5 39L7 39L7 38ZM38 39L38 40L39 40L39 39ZM23 41L23 44L26 44L26 41ZM33 41L33 42L34 42L34 41ZM41 41L41 44L44 44L44 41ZM45 41L45 42L46 42L46 43L45 43L45 44L47 44L47 43L48 43L48 42L46 42L46 41ZM15 42L15 43L17 43L17 42ZM19 42L19 43L20 43L20 42ZM24 42L24 43L25 43L25 42ZM42 42L42 43L43 43L43 42ZM10 44L10 46L11 46L11 47L12 47L12 45L11 45L11 44ZM16 44L16 46L17 46L17 45L18 45L18 44ZM8 47L8 49L9 49L9 47ZM32 47L32 48L33 48L33 47ZM44 48L44 49L45 49L45 48ZM46 48L46 49L47 49L47 48ZM48 48L48 49L49 49L49 48ZM0 0L0 7L7 7L7 0ZM1 1L1 6L6 6L6 1ZM2 2L2 5L5 5L5 2ZM42 0L42 7L49 7L49 0ZM43 1L43 6L48 6L48 1ZM44 2L44 5L47 5L47 2ZM0 42L0 49L7 49L7 42ZM1 43L1 48L6 48L6 43ZM2 44L2 47L5 47L5 44Z" fill="#000000"/></g></g></svg>
