<?xml version="1.0" encoding="UTF-8"?>
<svg xmlns="http://www.w3.org/2000/svg" version="1.1" width="300" height="300" viewBox="0 0 300 300"><rect x="0" y="0" width="300" height="300" fill="#ffffff"/><g transform="scale(6.122)"><g transform="translate(0,0)"><path fill-rule="evenodd" d="M10 0L10 1L8 1L8 2L9 2L9 3L8 3L8 4L9 4L9 5L8 5L8 7L9 7L9 8L6 8L6 9L5 9L5 8L0 8L0 9L1 9L1 10L0 10L0 14L1 14L1 16L0 16L0 19L1 19L1 18L2 18L2 20L4 20L4 21L5 21L5 20L6 20L6 21L7 21L7 22L3 22L3 21L1 21L1 20L0 20L0 23L3 23L3 25L2 25L2 24L0 24L0 27L1 27L1 28L0 28L0 30L1 30L1 31L0 31L0 33L3 33L3 35L4 35L4 36L3 36L3 37L2 37L2 34L1 34L1 35L0 35L0 37L1 37L1 40L0 40L0 41L3 41L3 40L4 40L4 39L2 39L2 38L5 38L5 39L7 39L7 40L6 40L6 41L8 41L8 43L9 43L9 44L8 44L8 49L9 49L9 47L10 47L10 48L11 48L11 49L14 49L14 48L15 48L15 49L17 49L17 48L18 48L18 49L19 49L19 48L20 48L20 47L21 47L21 46L20 46L20 45L19 45L19 44L20 44L20 43L21 43L21 44L22 44L22 45L27 45L27 46L24 46L24 47L22 47L22 48L24 48L24 49L25 49L25 48L24 48L24 47L26 47L26 49L27 49L27 48L28 48L28 46L29 46L29 49L30 49L30 48L31 48L31 47L32 47L32 46L34 46L34 45L35 45L35 44L33 44L33 43L36 43L36 45L38 45L38 47L37 47L37 46L36 46L36 47L35 47L35 48L34 48L34 47L33 47L33 49L35 49L35 48L36 48L36 49L37 49L37 48L38 48L38 49L39 49L39 48L42 48L42 49L44 49L44 48L43 48L43 47L42 47L42 46L44 46L44 47L46 47L46 46L44 46L44 45L46 45L46 43L47 43L47 46L48 46L48 47L47 47L47 49L49 49L49 48L48 48L48 47L49 47L49 44L48 44L48 43L49 43L49 41L48 41L48 42L46 42L46 41L45 41L45 40L47 40L47 39L49 39L49 36L47 36L47 37L48 37L48 38L47 38L47 39L46 39L46 38L45 38L45 37L46 37L46 36L44 36L44 35L45 35L45 33L46 33L46 32L47 32L47 31L49 31L49 30L46 30L46 29L45 29L45 30L44 30L44 31L45 31L45 32L44 32L44 33L43 33L43 32L42 32L42 31L43 31L43 28L44 28L44 27L48 27L48 25L49 25L49 20L47 20L47 19L48 19L48 18L45 18L45 19L44 19L44 18L43 18L43 19L41 19L41 18L40 18L40 14L41 14L41 13L42 13L42 14L43 14L43 15L42 15L42 17L45 17L45 16L44 16L44 14L45 14L45 15L46 15L46 16L47 16L47 17L49 17L49 16L47 16L47 15L46 15L46 14L45 14L45 12L46 12L46 13L47 13L47 14L49 14L49 12L48 12L48 13L47 13L47 12L46 12L46 11L47 11L47 10L45 10L45 9L46 9L46 8L45 8L45 9L44 9L44 8L43 8L43 9L44 9L44 10L45 10L45 11L43 11L43 10L41 10L41 9L42 9L42 8L41 8L41 9L40 9L40 10L39 10L39 8L38 8L38 9L36 9L36 8L33 8L33 6L34 6L34 7L35 7L35 6L36 6L36 7L37 7L37 6L38 6L38 7L39 7L39 5L35 5L35 6L34 6L34 4L38 4L38 2L39 2L39 4L40 4L40 3L41 3L41 0L40 0L40 1L38 1L38 2L37 2L37 1L36 1L36 0L35 0L35 2L36 2L36 3L34 3L34 2L33 2L33 4L32 4L32 3L31 3L31 2L32 2L32 0L27 0L27 1L31 1L31 2L27 2L27 3L25 3L25 4L24 4L24 3L21 3L21 5L22 5L22 8L21 8L21 9L20 9L20 8L18 8L18 11L17 11L17 10L16 10L16 11L17 11L17 12L18 12L18 13L16 13L16 12L15 12L15 13L16 13L16 14L15 14L15 15L14 15L14 13L12 13L12 11L13 11L13 12L14 12L14 11L13 11L13 10L15 10L15 9L16 9L16 7L17 7L17 6L16 6L16 7L15 7L15 6L14 6L14 5L13 5L13 6L12 6L12 8L10 8L10 7L11 7L11 6L10 6L10 7L9 7L9 5L12 5L12 4L10 4L10 3L13 3L13 4L15 4L15 5L16 5L16 4L15 4L15 2L18 2L18 1L17 1L17 0L15 0L15 1L14 1L14 0L13 0L13 2L12 2L12 1L11 1L11 0ZM20 0L20 1L19 1L19 2L22 2L22 0ZM24 1L24 2L26 2L26 1ZM13 2L13 3L14 3L14 2ZM17 3L17 4L18 4L18 7L19 7L19 6L20 6L20 7L21 7L21 6L20 6L20 5L19 5L19 4L20 4L20 3L19 3L19 4L18 4L18 3ZM28 3L28 4L27 4L27 5L28 5L28 6L27 6L27 7L28 7L28 8L27 8L27 9L21 9L21 10L22 10L22 12L21 12L21 11L20 11L20 10L19 10L19 11L20 11L20 12L19 12L19 13L21 13L21 14L23 14L23 15L24 15L24 17L23 17L23 16L20 16L20 18L22 18L22 19L20 19L20 21L19 21L19 18L18 18L18 17L16 17L16 15L15 15L15 17L16 17L16 18L18 18L18 19L15 19L15 21L12 21L12 22L11 22L11 20L12 20L12 19L13 19L13 20L14 20L14 19L13 19L13 18L14 18L14 17L13 17L13 16L14 16L14 15L12 15L12 13L10 13L10 12L9 12L9 14L10 14L10 16L9 16L9 17L10 17L10 16L11 16L11 17L12 17L12 19L11 19L11 20L10 20L10 18L9 18L9 21L8 21L8 22L10 22L10 23L9 23L9 27L10 27L10 24L12 24L12 26L11 26L11 28L9 28L9 30L10 30L10 31L9 31L9 33L10 33L10 35L12 35L12 36L14 36L14 35L13 35L13 34L15 34L15 37L13 37L13 38L14 38L14 40L12 40L12 39L11 39L11 40L10 40L10 39L8 39L8 37L9 37L9 38L12 38L12 37L9 37L9 35L8 35L8 36L7 36L7 35L6 35L6 34L8 34L8 33L6 33L6 32L7 32L7 31L5 31L5 30L8 30L8 29L6 29L6 28L7 28L7 27L4 27L4 26L3 26L3 27L4 27L4 29L3 29L3 31L4 31L4 32L5 32L5 35L6 35L6 36L5 36L5 38L7 38L7 39L8 39L8 40L10 40L10 41L9 41L9 42L10 42L10 43L14 43L14 44L13 44L13 45L12 45L12 44L10 44L10 45L9 45L9 46L10 46L10 47L12 47L12 48L14 48L14 47L15 47L15 48L16 48L16 47L15 47L15 46L16 46L16 45L18 45L18 44L17 44L17 43L18 43L18 42L19 42L19 43L20 43L20 42L22 42L22 40L21 40L21 39L23 39L23 40L24 40L24 39L25 39L25 40L28 40L28 41L27 41L27 43L28 43L28 45L29 45L29 46L32 46L32 43L33 43L33 41L34 41L34 40L35 40L35 42L38 42L38 43L37 43L37 44L40 44L40 42L38 42L38 40L39 40L39 41L40 41L40 40L41 40L41 39L40 39L40 40L39 40L39 38L40 38L40 37L39 37L39 38L38 38L38 36L39 36L39 34L40 34L40 35L42 35L42 34L43 34L43 35L44 35L44 34L43 34L43 33L41 33L41 32L40 32L40 31L38 31L38 34L37 34L37 33L34 33L34 32L35 32L35 29L36 29L36 30L41 30L41 31L42 31L42 30L41 30L41 29L40 29L40 28L41 28L41 27L38 27L38 25L40 25L40 23L39 23L39 22L40 22L40 21L38 21L38 22L37 22L37 21L34 21L34 20L36 20L36 18L38 18L38 20L39 20L39 17L36 17L36 15L33 15L33 14L38 14L38 15L37 15L37 16L39 16L39 13L38 13L38 12L41 12L41 10L40 10L40 11L39 11L39 10L38 10L38 12L37 12L37 13L36 13L36 12L35 12L35 10L36 10L36 9L35 9L35 10L34 10L34 9L33 9L33 8L32 8L32 6L33 6L33 5L32 5L32 6L31 6L31 8L30 8L30 6L29 6L29 5L28 5L28 4L31 4L31 3ZM23 5L23 8L26 8L26 5ZM13 6L13 8L14 8L14 6ZM24 6L24 7L25 7L25 6ZM28 6L28 7L29 7L29 6ZM40 6L40 7L41 7L41 6ZM9 8L9 9L6 9L6 10L5 10L5 9L3 9L3 10L4 10L4 11L3 11L3 13L1 13L1 14L2 14L2 15L3 15L3 13L4 13L4 14L5 14L5 15L4 15L4 19L6 19L6 20L7 20L7 19L8 19L8 15L6 15L6 14L7 14L7 13L6 13L6 12L8 12L8 11L10 11L10 10L9 10L9 9L10 9L10 8ZM29 8L29 9L28 9L28 10L29 10L29 11L30 11L30 12L29 12L29 13L28 13L28 11L27 11L27 12L26 12L26 11L25 11L25 10L23 10L23 14L24 14L24 15L25 15L25 14L26 14L26 13L27 13L27 15L28 15L28 16L25 16L25 17L28 17L28 16L29 16L29 18L30 18L30 20L31 20L31 21L30 21L30 24L29 24L29 23L28 23L28 22L29 22L29 20L28 20L28 19L27 19L27 18L26 18L26 19L25 19L25 18L23 18L23 19L22 19L22 20L23 20L23 19L24 19L24 21L23 21L23 22L22 22L22 24L21 24L21 25L20 25L20 24L19 24L19 25L20 25L20 27L19 27L19 26L18 26L18 24L17 24L17 26L15 26L15 24L16 24L16 23L13 23L13 24L14 24L14 26L15 26L15 27L17 27L17 28L18 28L18 29L16 29L16 28L15 28L15 29L16 29L16 30L15 30L15 31L14 31L14 32L15 32L15 31L16 31L16 33L15 33L15 34L16 34L16 33L18 33L18 32L17 32L17 31L19 31L19 32L22 32L22 33L23 33L23 32L25 32L25 34L27 34L27 35L24 35L24 34L20 34L20 33L19 33L19 34L20 34L20 35L19 35L19 36L20 36L20 35L21 35L21 38L23 38L23 35L24 35L24 38L25 38L25 36L27 36L27 37L26 37L26 38L27 38L27 39L28 39L28 38L29 38L29 39L30 39L30 40L29 40L29 41L28 41L28 42L30 42L30 43L29 43L29 45L30 45L30 44L31 44L31 43L32 43L32 40L31 40L31 39L32 39L32 38L33 38L33 40L34 40L34 39L35 39L35 40L36 40L36 39L37 39L37 40L38 40L38 39L37 39L37 38L36 38L36 37L37 37L37 36L38 36L38 35L37 35L37 34L34 34L34 33L33 33L33 32L32 32L32 31L31 31L31 30L30 30L30 29L31 29L31 27L32 27L32 29L33 29L33 31L34 31L34 29L35 29L35 28L38 28L38 29L39 29L39 28L38 28L38 27L37 27L37 26L36 26L36 25L37 25L37 22L34 22L34 21L33 21L33 22L34 22L34 23L36 23L36 24L32 24L32 25L30 25L30 24L31 24L31 23L32 23L32 22L31 22L31 21L32 21L32 20L31 20L31 17L32 17L32 18L33 18L33 19L35 19L35 18L34 18L34 17L35 17L35 16L32 16L32 14L33 14L33 13L32 13L32 14L31 14L31 15L28 15L28 14L29 14L29 13L30 13L30 12L32 12L32 8L31 8L31 9L30 9L30 8ZM47 8L47 9L48 9L48 11L49 11L49 9L48 9L48 8ZM11 9L11 11L12 11L12 9ZM6 10L6 11L4 11L4 12L6 12L6 11L8 11L8 10ZM30 10L30 11L31 11L31 10ZM24 11L24 12L25 12L25 11ZM34 12L34 13L35 13L35 12ZM42 12L42 13L43 13L43 14L44 14L44 13L43 13L43 12ZM5 13L5 14L6 14L6 13ZM24 13L24 14L25 14L25 13ZM19 14L19 15L17 15L17 16L19 16L19 15L20 15L20 14ZM1 16L1 17L2 17L2 18L3 18L3 17L2 17L2 16ZM5 16L5 17L7 17L7 16ZM30 16L30 17L31 17L31 16ZM6 18L6 19L7 19L7 18ZM26 19L26 20L27 20L27 21L26 21L26 22L27 22L27 21L28 21L28 20L27 20L27 19ZM40 19L40 20L41 20L41 21L42 21L42 22L44 22L44 21L46 21L46 22L48 22L48 21L46 21L46 20L44 20L44 19L43 19L43 20L41 20L41 19ZM17 20L17 21L18 21L18 22L17 22L17 23L20 23L20 22L19 22L19 21L18 21L18 20ZM43 20L43 21L44 21L44 20ZM15 21L15 22L16 22L16 21ZM24 21L24 22L25 22L25 21ZM5 23L5 26L8 26L8 23ZM23 23L23 26L26 26L26 23ZM41 23L41 26L44 26L44 23ZM46 23L46 25L45 25L45 26L47 26L47 23ZM6 24L6 25L7 25L7 24ZM24 24L24 25L25 25L25 24ZM42 24L42 25L43 25L43 24ZM1 25L1 27L2 27L2 25ZM28 25L28 27L31 27L31 26L30 26L30 25ZM32 25L32 27L34 27L34 28L35 28L35 25ZM12 26L12 28L14 28L14 27L13 27L13 26ZM17 26L17 27L18 27L18 26ZM21 26L21 27L20 27L20 28L19 28L19 29L21 29L21 31L22 31L22 32L23 32L23 31L24 31L24 29L27 29L27 30L26 30L26 33L27 33L27 34L28 34L28 35L27 35L27 36L28 36L28 37L27 37L27 38L28 38L28 37L29 37L29 38L30 38L30 37L31 37L31 38L32 38L32 37L34 37L34 38L35 38L35 37L34 37L34 36L35 36L35 35L33 35L33 33L32 33L32 32L28 32L28 33L27 33L27 30L28 30L28 31L29 31L29 30L28 30L28 29L30 29L30 28L27 28L27 27L26 27L26 28L24 28L24 27L22 27L22 26ZM21 27L21 29L22 29L22 27ZM1 28L1 29L2 29L2 28ZM23 28L23 29L24 29L24 28ZM47 28L47 29L49 29L49 28ZM12 29L12 31L10 31L10 33L12 33L12 34L13 34L13 33L12 33L12 32L13 32L13 30L14 30L14 29ZM19 30L19 31L20 31L20 30ZM28 33L28 34L29 34L29 36L32 36L32 34L29 34L29 33ZM40 33L40 34L41 34L41 33ZM47 33L47 34L46 34L46 35L47 35L47 34L49 34L49 33ZM17 34L17 35L18 35L18 34ZM36 35L36 36L37 36L37 35ZM6 36L6 37L7 37L7 36ZM17 36L17 37L18 37L18 38L17 38L17 39L19 39L19 37L18 37L18 36ZM43 36L43 37L41 37L41 38L44 38L44 36ZM15 37L15 38L16 38L16 37ZM15 39L15 41L12 41L12 40L11 40L11 41L12 41L12 42L15 42L15 45L16 45L16 42L18 42L18 40L16 40L16 39ZM43 39L43 40L45 40L45 39ZM19 40L19 41L20 41L20 40ZM30 40L30 41L31 41L31 40ZM23 41L23 44L26 44L26 41ZM41 41L41 44L44 44L44 41ZM24 42L24 43L25 43L25 42ZM42 42L42 43L43 43L43 42ZM11 45L11 46L12 46L12 45ZM13 45L13 47L14 47L14 45ZM39 45L39 46L40 46L40 47L41 47L41 45ZM19 46L19 47L18 47L18 48L19 48L19 47L20 47L20 46ZM36 47L36 48L37 48L37 47ZM38 47L38 48L39 48L39 47ZM45 48L45 49L46 49L46 48ZM0 0L0 7L7 7L7 0ZM1 1L1 6L6 6L6 1ZM2 2L2 5L5 5L5 2ZM42 0L42 7L49 7L49 0ZM43 1L43 6L48 6L48 1ZM44 2L44 5L47 5L47 2ZM0 42L0 49L7 49L7 42ZM1 43L1 48L6 48L6 43ZM2 44L2 47L5 47L5 44Z" fill="#000000"/></g></g></svg>
