<?xml version="1.0" encoding="UTF-8"?>
<svg xmlns="http://www.w3.org/2000/svg" version="1.1" width="300" height="300" viewBox="0 0 300 300"><rect x="0" y="0" width="300" height="300" fill="#ffffff"/><g transform="scale(5.66)"><g transform="translate(0,0)"><path fill-rule="evenodd" d="M8 0L8 4L9 4L9 5L8 5L8 7L9 7L9 9L10 9L10 10L6 10L6 9L7 9L7 8L4 8L4 9L3 9L3 10L4 10L4 11L3 11L3 12L4 12L4 13L3 13L3 15L4 15L4 16L5 16L5 15L4 15L4 13L5 13L5 14L6 14L6 15L8 15L8 16L6 16L6 17L4 17L4 18L6 18L6 19L5 19L5 20L4 20L4 19L3 19L3 20L2 20L2 18L3 18L3 16L2 16L2 17L0 17L0 18L1 18L1 19L0 19L0 22L1 22L1 20L2 20L2 21L3 21L3 22L4 22L4 23L3 23L3 24L2 24L2 23L0 23L0 25L1 25L1 24L2 24L2 25L3 25L3 26L2 26L2 27L1 27L1 26L0 26L0 30L1 30L1 31L2 31L2 34L0 34L0 35L3 35L3 32L4 32L4 30L6 30L6 31L5 31L5 33L4 33L4 34L5 34L5 33L7 33L7 32L8 32L8 33L10 33L10 34L9 34L9 35L7 35L7 34L6 34L6 35L7 35L7 36L5 36L5 35L4 35L4 36L5 36L5 37L4 37L4 38L3 38L3 36L2 36L2 37L1 37L1 39L0 39L0 43L1 43L1 44L3 44L3 45L4 45L4 44L3 44L3 43L7 43L7 42L5 42L5 41L4 41L4 40L3 40L3 39L5 39L5 40L6 40L6 41L7 41L7 40L8 40L8 44L10 44L10 47L13 47L13 48L11 48L11 49L10 49L10 50L9 50L9 51L8 51L8 53L9 53L9 51L12 51L12 52L13 52L13 53L15 53L15 52L13 52L13 51L12 51L12 50L11 50L11 49L15 49L15 51L16 51L16 52L17 52L17 51L16 51L16 48L17 48L17 50L20 50L20 51L18 51L18 53L25 53L25 52L26 52L26 49L27 49L27 52L28 52L28 51L30 51L30 50L31 50L31 52L32 52L32 49L33 49L33 50L34 50L34 51L33 51L33 52L34 52L34 53L39 53L39 52L42 52L42 51L41 51L41 49L38 49L38 45L39 45L39 46L40 46L40 47L39 47L39 48L40 48L40 47L43 47L43 49L42 49L42 50L43 50L43 49L44 49L44 50L45 50L45 51L44 51L44 53L52 53L52 52L49 52L49 50L50 50L50 51L53 51L53 50L52 50L52 48L51 48L51 47L52 47L52 45L53 45L53 44L52 44L52 43L53 43L53 42L52 42L52 43L51 43L51 40L52 40L52 39L53 39L53 38L51 38L51 37L53 37L53 35L52 35L52 34L53 34L53 33L52 33L52 32L53 32L53 30L52 30L52 28L53 28L53 26L52 26L52 28L51 28L51 25L52 25L52 23L53 23L53 21L52 21L52 15L53 15L53 14L52 14L52 15L51 15L51 13L52 13L52 11L53 11L53 8L49 8L49 9L50 9L50 11L49 11L49 12L48 12L48 11L47 11L47 9L48 9L48 8L47 8L47 9L45 9L45 8L44 8L44 7L45 7L45 6L44 6L44 7L43 7L43 3L44 3L44 4L45 4L45 3L44 3L44 1L43 1L43 0L40 0L40 1L42 1L42 2L41 2L41 4L40 4L40 5L39 5L39 6L38 6L38 5L37 5L37 4L36 4L36 3L38 3L38 4L39 4L39 3L38 3L38 2L39 2L39 0L37 0L37 1L36 1L36 0L34 0L34 3L33 3L33 1L32 1L32 0L31 0L31 1L30 1L30 0L29 0L29 1L30 1L30 2L31 2L31 3L28 3L28 2L27 2L27 0L26 0L26 2L25 2L25 0L24 0L24 1L23 1L23 0L19 0L19 1L18 1L18 0L17 0L17 2L16 2L16 1L15 1L15 0L14 0L14 2L15 2L15 3L13 3L13 4L12 4L12 3L11 3L11 0L10 0L10 2L9 2L9 0ZM12 0L12 2L13 2L13 0ZM21 1L21 2L20 2L20 3L19 3L19 4L18 4L18 3L17 3L17 4L15 4L15 5L14 5L14 4L13 4L13 5L12 5L12 4L11 4L11 3L9 3L9 4L11 4L11 5L12 5L12 6L11 6L11 7L10 7L10 5L9 5L9 7L10 7L10 8L11 8L11 7L12 7L12 8L13 8L13 9L11 9L11 10L10 10L10 11L8 11L8 13L6 13L6 14L8 14L8 15L9 15L9 16L8 16L8 17L9 17L9 18L8 18L8 19L9 19L9 20L7 20L7 19L6 19L6 20L7 20L7 21L5 21L5 22L7 22L7 21L9 21L9 23L11 23L11 24L10 24L10 25L9 25L9 26L10 26L10 25L11 25L11 24L13 24L13 25L12 25L12 27L13 27L13 29L16 29L16 28L17 28L17 29L19 29L19 30L16 30L16 31L15 31L15 30L13 30L13 31L11 31L11 30L10 30L10 29L11 29L11 27L9 27L9 28L10 28L10 29L6 29L6 30L10 30L10 31L9 31L9 32L10 32L10 33L11 33L11 36L10 36L10 35L9 35L9 36L8 36L8 37L5 37L5 39L6 39L6 40L7 40L7 39L6 39L6 38L8 38L8 37L12 37L12 38L10 38L10 41L12 41L12 42L13 42L13 44L15 44L15 45L11 45L11 46L13 46L13 47L14 47L14 46L15 46L15 48L16 48L16 47L20 47L20 48L18 48L18 49L20 49L20 48L22 48L22 49L21 49L21 51L20 51L20 52L21 52L21 51L22 51L22 52L23 52L23 51L24 51L24 52L25 52L25 49L24 49L24 43L25 43L25 44L26 44L26 43L27 43L27 41L28 41L28 42L29 42L29 43L28 43L28 44L29 44L29 45L30 45L30 46L29 46L29 47L30 47L30 48L29 48L29 50L30 50L30 49L31 49L31 48L32 48L32 47L33 47L33 49L34 49L34 47L35 47L35 49L36 49L36 50L35 50L35 51L36 51L36 52L37 52L37 50L38 50L38 52L39 52L39 51L40 51L40 50L38 50L38 49L36 49L36 47L37 47L37 44L34 44L34 42L36 42L36 43L38 43L38 44L39 44L39 45L40 45L40 46L43 46L43 45L44 45L44 44L43 44L43 43L45 43L45 42L46 42L46 41L47 41L47 42L48 42L48 43L46 43L46 44L48 44L48 43L49 43L49 44L50 44L50 41L49 41L49 40L51 40L51 39L50 39L50 38L49 38L49 39L47 39L47 38L46 38L46 37L50 37L50 36L52 36L52 35L50 35L50 33L49 33L49 31L47 31L47 32L46 32L46 33L45 33L45 34L42 34L42 33L44 33L44 32L45 32L45 31L46 31L46 30L45 30L45 29L44 29L44 30L43 30L43 27L39 27L39 26L40 26L40 25L41 25L41 26L43 26L43 25L44 25L44 24L46 24L46 23L47 23L47 24L48 24L48 20L46 20L46 18L47 18L47 19L50 19L50 17L51 17L51 16L50 16L50 12L51 12L51 11L50 11L50 12L49 12L49 13L48 13L48 12L47 12L47 13L46 13L46 12L45 12L45 11L46 11L46 10L45 10L45 11L44 11L44 12L43 12L43 11L42 11L42 9L43 9L43 10L44 10L44 9L43 9L43 7L42 7L42 6L41 6L41 5L40 5L40 6L39 6L39 7L38 7L38 6L37 6L37 7L36 7L36 6L35 6L35 3L36 3L36 1L35 1L35 3L34 3L34 6L33 6L33 7L32 7L32 5L33 5L33 4L32 4L32 3L31 3L31 4L32 4L32 5L31 5L31 7L30 7L30 6L29 6L29 7L30 7L30 8L29 8L29 9L27 9L27 10L26 10L26 9L25 9L25 10L26 10L26 11L24 11L24 10L23 10L23 7L24 7L24 6L23 6L23 5L22 5L22 4L27 4L27 2L26 2L26 3L25 3L25 2L23 2L23 1ZM42 2L42 3L43 3L43 2ZM21 3L21 4L19 4L19 5L18 5L18 4L17 4L17 5L16 5L16 7L15 7L15 6L14 6L14 8L17 8L17 9L13 9L13 11L12 11L12 10L11 10L11 11L10 11L10 12L12 12L12 13L13 13L13 11L14 11L14 12L15 12L15 15L16 15L16 16L14 16L14 15L13 15L13 16L12 16L12 17L14 17L14 18L9 18L9 19L10 19L10 20L9 20L9 21L11 21L11 23L12 23L12 22L13 22L13 23L14 23L14 24L15 24L15 23L16 23L16 24L17 24L17 25L13 25L13 27L14 27L14 28L15 28L15 27L16 27L16 26L17 26L17 25L19 25L19 27L17 27L17 28L20 28L20 31L16 31L16 32L20 32L20 34L19 34L19 33L17 33L17 34L15 34L15 32L14 32L14 31L13 31L13 33L14 33L14 34L13 34L13 35L12 35L12 36L13 36L13 37L14 37L14 38L12 38L12 39L11 39L11 40L12 40L12 41L13 41L13 42L14 42L14 43L16 43L16 45L17 45L17 44L18 44L18 46L19 46L19 44L20 44L20 47L21 47L21 44L20 44L20 43L21 43L21 42L22 42L22 43L24 43L24 42L25 42L25 43L26 43L26 42L25 42L25 41L27 41L27 40L26 40L26 38L27 38L27 37L29 37L29 38L28 38L28 41L29 41L29 42L31 42L31 43L32 43L32 44L31 44L31 45L33 45L33 43L32 43L32 41L33 41L33 42L34 42L34 41L35 41L35 40L38 40L38 39L36 39L36 38L33 38L33 37L32 37L32 36L34 36L34 37L35 37L35 36L36 36L36 37L37 37L37 38L38 38L38 36L36 36L36 35L32 35L32 34L31 34L31 33L33 33L33 31L34 31L34 33L36 33L36 34L37 34L37 35L39 35L39 34L37 34L37 33L38 33L38 31L37 31L37 32L36 32L36 31L34 31L34 30L35 30L35 28L36 28L36 30L39 30L39 29L38 29L38 28L37 28L37 27L38 27L38 26L37 26L37 27L35 27L35 26L34 26L34 25L35 25L35 23L36 23L36 22L34 22L34 21L35 21L35 18L36 18L36 17L38 17L38 15L37 15L37 16L36 16L36 14L39 14L39 13L38 13L38 12L37 12L37 11L39 11L39 10L40 10L40 15L39 15L39 18L37 18L37 22L38 22L38 23L37 23L37 24L36 24L36 25L38 25L38 23L39 23L39 24L41 24L41 25L42 25L42 23L41 23L41 21L40 21L40 20L41 20L41 19L42 19L42 18L41 18L41 17L40 17L40 15L42 15L42 14L43 14L43 13L42 13L42 12L41 12L41 9L39 9L39 8L38 8L38 7L37 7L37 8L35 8L35 6L34 6L34 7L33 7L33 8L32 8L32 7L31 7L31 9L30 9L30 10L27 10L27 12L25 12L25 13L24 13L24 12L23 12L23 13L24 13L24 14L25 14L25 13L26 13L26 14L27 14L27 15L26 15L26 18L27 18L27 19L25 19L25 17L24 17L24 16L23 16L23 14L22 14L22 16L23 16L23 18L22 18L22 17L21 17L21 18L20 18L20 15L21 15L21 13L19 13L19 11L18 11L18 13L19 13L19 15L16 15L16 12L15 12L15 11L16 11L16 10L18 10L18 8L19 8L19 10L20 10L20 11L21 11L21 12L22 12L22 11L23 11L23 10L22 10L22 9L21 9L21 8L20 8L20 7L21 7L21 6L22 6L22 7L23 7L23 6L22 6L22 5L21 5L21 4L22 4L22 3ZM19 5L19 7L20 7L20 6L21 6L21 5ZM25 5L25 8L28 8L28 5ZM12 6L12 7L13 7L13 6ZM17 6L17 7L18 7L18 6ZM26 6L26 7L27 7L27 6ZM40 6L40 7L41 7L41 6ZM0 8L0 9L1 9L1 10L2 10L2 8ZM33 8L33 9L31 9L31 10L30 10L30 11L28 11L28 12L27 12L27 14L29 14L29 12L30 12L30 13L31 13L31 11L33 11L33 13L32 13L32 15L31 15L31 14L30 14L30 17L29 17L29 15L27 15L27 18L28 18L28 19L27 19L27 22L26 22L26 20L25 20L25 19L22 19L22 18L21 18L21 19L19 19L19 16L18 16L18 17L17 17L17 16L16 16L16 17L15 17L15 18L14 18L14 19L16 19L16 18L17 18L17 20L18 20L18 19L19 19L19 20L21 20L21 21L23 21L23 23L20 23L20 22L18 22L18 21L15 21L15 22L16 22L16 23L19 23L19 25L21 25L21 24L22 24L22 26L21 26L21 27L20 27L20 28L21 28L21 27L22 27L22 28L23 28L23 27L24 27L24 26L23 26L23 25L24 25L24 24L23 24L23 23L25 23L25 24L26 24L26 23L27 23L27 24L29 24L29 23L27 23L27 22L30 22L30 25L29 25L29 26L30 26L30 27L29 27L29 29L27 29L27 30L23 30L23 34L24 34L24 35L22 35L22 32L21 32L21 31L20 31L20 32L21 32L21 35L20 35L20 36L21 36L21 35L22 35L22 36L23 36L23 37L22 37L22 38L21 38L21 37L20 37L20 38L21 38L21 39L20 39L20 40L21 40L21 41L23 41L23 42L24 42L24 41L25 41L25 40L22 40L22 38L23 38L23 39L24 39L24 37L25 37L25 38L26 38L26 37L27 37L27 36L26 36L26 35L27 35L27 30L28 30L28 31L29 31L29 29L30 29L30 30L32 30L32 31L30 31L30 33L28 33L28 36L30 36L30 37L31 37L31 36L32 36L32 35L29 35L29 34L30 34L30 33L31 33L31 32L32 32L32 31L33 31L33 30L34 30L34 29L33 29L33 30L32 30L32 28L33 28L33 27L34 27L34 26L33 26L33 25L34 25L34 23L33 23L33 20L34 20L34 19L33 19L33 17L34 17L34 18L35 18L35 16L34 16L34 14L36 14L36 13L37 13L37 12L35 12L35 13L34 13L34 11L33 11L33 10L35 10L35 11L37 11L37 9L34 9L34 8ZM4 9L4 10L5 10L5 9ZM14 10L14 11L15 11L15 10ZM0 11L0 12L2 12L2 11ZM6 11L6 12L7 12L7 11ZM44 12L44 15L43 15L43 16L44 16L44 17L43 17L43 18L44 18L44 19L43 19L43 20L44 20L44 19L45 19L45 16L44 16L44 15L46 15L46 17L47 17L47 18L48 18L48 17L49 17L49 14L45 14L45 12ZM1 13L1 14L0 14L0 15L2 15L2 13ZM8 13L8 14L9 14L9 15L12 15L12 14L11 14L11 13L10 13L10 14L9 14L9 13ZM32 15L32 16L31 16L31 17L30 17L30 18L29 18L29 17L28 17L28 18L29 18L29 20L30 20L30 19L31 19L31 21L30 21L30 22L31 22L31 23L32 23L32 19L31 19L31 17L33 17L33 15ZM10 16L10 17L11 17L11 16ZM47 16L47 17L48 17L48 16ZM6 17L6 18L7 18L7 17ZM39 18L39 19L38 19L38 20L39 20L39 19L40 19L40 18ZM11 19L11 21L13 21L13 22L14 22L14 20L12 20L12 19ZM21 19L21 20L22 20L22 19ZM23 20L23 21L24 21L24 22L25 22L25 23L26 23L26 22L25 22L25 21L24 21L24 20ZM45 20L45 21L43 21L43 24L44 24L44 22L45 22L45 23L46 23L46 22L45 22L45 21L46 21L46 20ZM49 21L49 23L50 23L50 24L49 24L49 27L50 27L50 24L51 24L51 23L50 23L50 21ZM51 21L51 22L52 22L52 21ZM39 22L39 23L40 23L40 22ZM4 23L4 24L5 24L5 23ZM6 23L6 24L8 24L8 23ZM31 24L31 25L30 25L30 26L32 26L32 25L33 25L33 24ZM5 25L5 28L8 28L8 25ZM25 25L25 28L28 28L28 25ZM45 25L45 28L48 28L48 25ZM6 26L6 27L7 27L7 26ZM14 26L14 27L15 27L15 26ZM22 26L22 27L23 27L23 26ZM26 26L26 27L27 27L27 26ZM46 26L46 27L47 27L47 26ZM1 28L1 29L2 29L2 31L3 31L3 29L4 29L4 28L3 28L3 29L2 29L2 28ZM30 28L30 29L31 29L31 28ZM40 29L40 31L41 31L41 32L42 32L42 31L43 31L43 32L44 32L44 31L43 31L43 30L42 30L42 29ZM48 29L48 30L50 30L50 29ZM41 30L41 31L42 31L42 30ZM6 31L6 32L7 32L7 31ZM24 31L24 33L25 33L25 34L26 34L26 32L25 32L25 31ZM50 31L50 32L51 32L51 31ZM0 32L0 33L1 33L1 32ZM11 32L11 33L12 33L12 32ZM47 32L47 33L46 33L46 34L45 34L45 35L46 35L46 36L44 36L44 35L43 35L43 36L44 36L44 37L43 37L43 38L42 38L42 37L40 37L40 36L41 36L41 35L42 35L42 34L41 34L41 33L40 33L40 36L39 36L39 37L40 37L40 39L43 39L43 38L45 38L45 39L44 39L44 40L42 40L42 41L41 41L41 40L39 40L39 41L36 41L36 42L38 42L38 43L39 43L39 41L40 41L40 43L41 43L41 45L42 45L42 43L41 43L41 42L42 42L42 41L44 41L44 40L45 40L45 41L46 41L46 40L47 40L47 41L48 41L48 42L49 42L49 41L48 41L48 40L47 40L47 39L46 39L46 38L45 38L45 37L46 37L46 36L49 36L49 35L48 35L48 34L49 34L49 33L48 33L48 32ZM47 33L47 34L48 34L48 33ZM14 34L14 35L13 35L13 36L14 36L14 35L15 35L15 34ZM17 34L17 35L19 35L19 34ZM24 35L24 36L25 36L25 35ZM16 36L16 37L15 37L15 38L16 38L16 39L15 39L15 40L14 40L14 39L13 39L13 41L16 41L16 43L17 43L17 42L18 42L18 43L19 43L19 42L20 42L20 41L18 41L18 39L19 39L19 37L17 37L17 36ZM16 37L16 38L17 38L17 37ZM29 38L29 39L30 39L30 41L32 41L32 40L33 40L33 41L34 41L34 39L33 39L33 38ZM16 39L16 40L17 40L17 39ZM31 39L31 40L32 40L32 39ZM45 39L45 40L46 40L46 39ZM3 41L3 42L2 42L2 43L3 43L3 42L4 42L4 41ZM10 42L10 44L12 44L12 43L11 43L11 42ZM6 44L6 45L7 45L7 44ZM51 44L51 45L52 45L52 44ZM8 45L8 46L9 46L9 45ZM25 45L25 48L28 48L28 45ZM35 45L35 47L36 47L36 45ZM45 45L45 48L48 48L48 45ZM49 45L49 49L46 49L46 51L45 51L45 52L47 52L47 51L48 51L48 50L49 50L49 49L50 49L50 47L51 47L51 46L50 46L50 45ZM22 46L22 47L23 47L23 46ZM26 46L26 47L27 47L27 46ZM33 46L33 47L34 47L34 46ZM46 46L46 47L47 47L47 46ZM8 47L8 49L9 49L9 47ZM22 50L22 51L23 51L23 50ZM0 0L0 7L7 7L7 0ZM1 1L1 6L6 6L6 1ZM2 2L2 5L5 5L5 2ZM46 0L46 7L53 7L53 0ZM47 1L47 6L52 6L52 1ZM48 2L48 5L51 5L51 2ZM0 46L0 53L7 53L7 46ZM1 47L1 52L6 52L6 47ZM2 48L2 51L5 51L5 48Z" fill="#000000"/></g></g></svg>
