<?xml version="1.0" encoding="UTF-8"?>
<svg xmlns="http://www.w3.org/2000/svg" version="1.1" width="300" height="300" viewBox="0 0 300 300"><rect x="0" y="0" width="300" height="300" fill="#ffffff"/><g transform="scale(6.122)"><g transform="translate(0,0)"><path fill-rule="evenodd" d="M9 0L9 1L8 1L8 2L9 2L9 3L8 3L8 4L9 4L9 5L8 5L8 7L9 7L9 8L6 8L6 9L5 9L5 8L0 8L0 10L3 10L3 9L5 9L5 11L7 11L7 12L6 12L6 13L5 13L5 14L3 14L3 13L2 13L2 14L3 14L3 15L2 15L2 16L1 16L1 17L2 17L2 18L0 18L0 19L1 19L1 20L0 20L0 21L1 21L1 23L0 23L0 24L2 24L2 23L3 23L3 25L1 25L1 26L0 26L0 27L1 27L1 29L0 29L0 31L1 31L1 29L2 29L2 30L3 30L3 32L2 32L2 33L3 33L3 34L4 34L4 33L3 33L3 32L4 32L4 30L6 30L6 31L7 31L7 32L6 32L6 33L7 33L7 34L6 34L6 35L9 35L9 36L11 36L11 37L9 37L9 39L10 39L10 40L11 40L11 39L12 39L12 42L13 42L13 41L14 41L14 42L15 42L15 43L17 43L17 44L18 44L18 45L16 45L16 44L15 44L15 45L16 45L16 46L15 46L15 47L14 47L14 48L12 48L12 47L9 47L9 45L10 45L10 46L12 46L12 45L13 45L13 46L14 46L14 45L13 45L13 44L14 44L14 43L12 43L12 45L11 45L11 43L10 43L10 42L9 42L9 41L8 41L8 39L7 39L7 38L6 38L6 37L7 37L7 36L6 36L6 37L3 37L3 38L5 38L5 39L7 39L7 40L6 40L6 41L8 41L8 43L9 43L9 44L8 44L8 49L9 49L9 48L10 48L10 49L11 49L11 48L12 48L12 49L16 49L16 48L17 48L17 49L19 49L19 48L20 48L20 49L22 49L22 48L23 48L23 49L27 49L27 48L29 48L29 49L30 49L30 48L31 48L31 49L32 49L32 46L34 46L34 45L35 45L35 44L33 44L33 43L36 43L36 45L38 45L38 47L37 47L37 46L36 46L36 47L35 47L35 48L34 48L34 49L35 49L35 48L36 48L36 49L37 49L37 48L38 48L38 49L39 49L39 48L42 48L42 49L44 49L44 48L43 48L43 47L42 47L42 46L44 46L44 47L45 47L45 48L46 48L46 49L49 49L49 48L48 48L48 47L49 47L49 44L48 44L48 43L49 43L49 42L48 42L48 43L47 43L47 42L46 42L46 41L45 41L45 40L43 40L43 38L42 38L42 39L41 39L41 37L43 37L43 36L44 36L44 35L45 35L45 33L47 33L47 31L48 31L48 30L49 30L49 28L48 28L48 27L49 27L49 26L48 26L48 27L47 27L47 26L45 26L45 24L46 24L46 23L47 23L47 25L49 25L49 20L48 20L48 19L49 19L49 16L47 16L47 18L45 18L45 19L44 19L44 18L43 18L43 17L45 17L45 16L46 16L46 15L47 15L47 14L49 14L49 12L48 12L48 13L47 13L47 12L46 12L46 11L47 11L47 10L45 10L45 11L41 11L41 9L42 9L42 8L38 8L38 9L39 9L39 10L40 10L40 11L39 11L39 12L38 12L38 11L37 11L37 10L35 10L35 8L37 8L37 6L38 6L38 7L39 7L39 5L36 5L36 4L38 4L38 2L39 2L39 4L40 4L40 3L41 3L41 0L40 0L40 1L38 1L38 2L37 2L37 1L34 1L34 0L32 0L32 1L34 1L34 2L32 2L32 3L33 3L33 4L31 4L31 5L29 5L29 4L28 4L28 5L29 5L29 6L28 6L28 7L27 7L27 3L28 3L28 2L27 2L27 3L26 3L26 4L25 4L25 2L26 2L26 1L24 1L24 2L23 2L23 3L22 3L22 4L21 4L21 5L20 5L20 2L22 2L22 0L20 0L20 2L19 2L19 0L17 0L17 1L16 1L16 0L14 0L14 1L13 1L13 2L14 2L14 3L13 3L13 4L12 4L12 5L11 5L11 6L10 6L10 7L9 7L9 5L10 5L10 2L12 2L12 1L10 1L10 0ZM27 0L27 1L29 1L29 0ZM30 0L30 2L29 2L29 3L31 3L31 0ZM9 1L9 2L10 2L10 1ZM15 1L15 4L13 4L13 5L12 5L12 6L11 6L11 7L10 7L10 8L9 8L9 9L6 9L6 10L8 10L8 11L9 11L9 9L12 9L12 6L13 6L13 9L14 9L14 10L13 10L13 11L11 11L11 12L10 12L10 14L11 14L11 16L9 16L9 18L7 18L7 17L8 17L8 16L7 16L7 15L8 15L8 12L7 12L7 13L6 13L6 14L5 14L5 15L4 15L4 16L2 16L2 17L6 17L6 18L7 18L7 19L5 19L5 18L4 18L4 20L5 20L5 21L2 21L2 20L3 20L3 19L2 19L2 20L1 20L1 21L2 21L2 22L3 22L3 23L4 23L4 22L7 22L7 21L8 21L8 22L9 22L9 21L10 21L10 23L11 23L11 22L12 22L12 23L13 23L13 24L12 24L12 25L10 25L10 24L9 24L9 26L13 26L13 27L11 27L11 29L14 29L14 30L13 30L13 31L12 31L12 30L11 30L11 32L10 32L10 33L11 33L11 34L12 34L12 35L11 35L11 36L12 36L12 35L13 35L13 36L14 36L14 35L13 35L13 33L14 33L14 34L15 34L15 35L16 35L16 36L15 36L15 37L13 37L13 39L16 39L16 40L14 40L14 41L15 41L15 42L17 42L17 43L18 43L18 42L17 42L17 41L18 41L18 40L19 40L19 39L20 39L20 42L19 42L19 43L20 43L20 44L19 44L19 45L20 45L20 44L21 44L21 47L20 47L20 46L19 46L19 47L18 47L18 48L19 48L19 47L20 47L20 48L22 48L22 47L23 47L23 46L24 46L24 45L23 45L23 46L22 46L22 43L20 43L20 42L22 42L22 40L21 40L21 39L22 39L22 38L23 38L23 37L24 37L24 36L23 36L23 37L22 37L22 36L21 36L21 35L23 35L23 34L24 34L24 35L25 35L25 36L26 36L26 37L25 37L25 38L24 38L24 39L26 39L26 40L27 40L27 41L28 41L28 42L27 42L27 43L28 43L28 45L29 45L29 46L28 46L28 47L29 47L29 46L30 46L30 47L31 47L31 46L30 46L30 45L33 45L33 44L32 44L32 43L33 43L33 42L34 42L34 41L35 41L35 42L37 42L37 44L40 44L40 42L39 42L39 41L40 41L40 40L41 40L41 39L40 39L40 40L39 40L39 38L40 38L40 37L41 37L41 35L42 35L42 34L43 34L43 35L44 35L44 34L43 34L43 33L44 33L44 32L45 32L45 31L46 31L46 30L48 30L48 28L47 28L47 27L44 27L44 28L43 28L43 29L42 29L42 30L44 30L44 32L43 32L43 33L41 33L41 32L42 32L42 31L41 31L41 32L40 32L40 31L38 31L38 32L37 32L37 33L36 33L36 32L35 32L35 31L36 31L36 30L40 30L40 29L38 29L38 28L39 28L39 27L40 27L40 26L39 26L39 27L38 27L38 28L37 28L37 27L36 27L36 25L38 25L38 24L39 24L39 25L40 25L40 23L39 23L39 22L40 22L40 21L38 21L38 22L37 22L37 21L36 21L36 22L35 22L35 21L34 21L34 22L35 22L35 23L33 23L33 22L32 22L32 21L33 21L33 20L35 20L35 17L33 17L33 16L36 16L36 14L38 14L38 16L37 16L37 17L39 17L39 18L38 18L38 20L41 20L41 21L42 21L42 22L44 22L44 21L46 21L46 22L45 22L45 23L46 23L46 22L48 22L48 20L47 20L47 21L46 21L46 20L44 20L44 19L43 19L43 18L42 18L42 17L41 17L41 15L43 15L43 14L44 14L44 16L45 16L45 15L46 15L46 14L47 14L47 13L46 13L46 12L45 12L45 13L46 13L46 14L44 14L44 13L43 13L43 12L42 12L42 13L41 13L41 14L40 14L40 16L39 16L39 13L38 13L38 12L37 12L37 13L36 13L36 14L35 14L35 12L36 12L36 11L34 11L34 10L31 10L31 12L30 12L30 13L31 13L31 14L27 14L27 12L29 12L29 11L30 11L30 10L27 10L27 9L24 9L24 10L25 10L25 11L26 11L26 12L25 12L25 13L23 13L23 12L22 12L22 11L20 11L20 10L23 10L23 9L22 9L22 6L21 6L21 7L20 7L20 5L19 5L19 7L18 7L18 6L17 6L17 5L18 5L18 4L17 4L17 3L19 3L19 2L16 2L16 1ZM34 2L34 3L37 3L37 2ZM15 4L15 5L16 5L16 4ZM34 4L34 6L33 6L33 5L32 5L32 6L31 6L31 9L32 9L32 6L33 6L33 8L35 8L35 7L36 7L36 5L35 5L35 4ZM13 5L13 6L14 6L14 9L15 9L15 10L16 10L16 11L17 11L17 10L18 10L18 14L17 14L17 13L16 13L16 12L15 12L15 13L16 13L16 14L15 14L15 15L14 15L14 13L13 13L13 12L14 12L14 11L13 11L13 12L12 12L12 13L11 13L11 14L12 14L12 16L13 16L13 17L15 17L15 18L13 18L13 19L14 19L14 20L13 20L13 21L15 21L15 22L16 22L16 21L15 21L15 19L16 19L16 17L15 17L15 15L16 15L16 16L17 16L17 17L18 17L18 18L17 18L17 19L18 19L18 18L19 18L19 20L20 20L20 21L21 21L21 22L19 22L19 21L18 21L18 20L17 20L17 21L18 21L18 24L20 24L20 25L19 25L19 26L18 26L18 27L17 27L17 26L16 26L16 23L14 23L14 24L15 24L15 29L16 29L16 30L15 30L15 31L13 31L13 32L12 32L12 33L13 33L13 32L15 32L15 34L16 34L16 35L18 35L18 34L19 34L19 32L20 32L20 31L21 31L21 34L20 34L20 35L21 35L21 34L22 34L22 33L24 33L24 34L25 34L25 31L23 31L23 32L22 32L22 31L21 31L21 30L22 30L22 29L24 29L24 30L25 30L25 27L26 27L26 28L27 28L27 26L29 26L29 25L32 25L32 26L30 26L30 28L31 28L31 29L30 29L30 32L31 32L31 31L32 31L32 32L33 32L33 33L32 33L32 34L30 34L30 33L28 33L28 31L27 31L27 33L28 33L28 34L29 34L29 35L27 35L27 34L26 34L26 36L29 36L29 38L31 38L31 39L28 39L28 40L31 40L31 41L29 41L29 45L30 45L30 44L31 44L31 43L32 43L32 42L33 42L33 41L34 41L34 40L32 40L32 38L33 38L33 39L34 39L34 38L36 38L36 39L37 39L37 42L38 42L38 41L39 41L39 40L38 40L38 39L37 39L37 38L36 38L36 37L37 37L37 36L38 36L38 38L39 38L39 36L40 36L40 35L41 35L41 33L40 33L40 34L39 34L39 32L38 32L38 33L37 33L37 34L35 34L35 36L33 36L33 37L32 37L32 36L31 36L31 35L32 35L32 34L33 34L33 35L34 35L34 33L35 33L35 32L34 32L34 31L32 31L32 30L33 30L33 29L35 29L35 30L36 30L36 29L37 29L37 28L36 28L36 29L35 29L35 28L33 28L33 27L34 27L34 26L33 26L33 25L32 25L32 23L31 23L31 21L29 21L29 20L31 20L31 19L32 19L32 18L33 18L33 17L31 17L31 15L32 15L32 16L33 16L33 15L32 15L32 14L31 14L31 15L29 15L29 16L28 16L28 15L27 15L27 16L26 16L26 15L25 15L25 14L26 14L26 13L25 13L25 14L22 14L22 12L21 12L21 13L20 13L20 11L19 11L19 10L20 10L20 9L21 9L21 8L20 8L20 7L19 7L19 8L18 8L18 9L17 9L17 10L16 10L16 7L17 7L17 6L16 6L16 7L15 7L15 6L14 6L14 5ZM23 5L23 8L26 8L26 5ZM24 6L24 7L25 7L25 6ZM29 6L29 7L30 7L30 6ZM34 6L34 7L35 7L35 6ZM40 6L40 7L41 7L41 6ZM28 8L28 9L29 9L29 8ZM43 8L43 9L44 9L44 8ZM45 8L45 9L46 9L46 8ZM47 8L47 9L48 9L48 11L49 11L49 9L48 9L48 8ZM2 11L2 12L3 12L3 11ZM40 11L40 12L41 12L41 11ZM0 12L0 13L1 13L1 12ZM31 12L31 13L32 13L32 12ZM33 12L33 14L34 14L34 12ZM42 13L42 14L43 14L43 13ZM0 14L0 15L1 15L1 14ZM6 14L6 15L5 15L5 16L6 16L6 17L7 17L7 16L6 16L6 15L7 15L7 14ZM19 14L19 15L18 15L18 16L19 16L19 15L20 15L20 18L23 18L23 17L21 17L21 15L22 15L22 14L21 14L21 15L20 15L20 14ZM13 15L13 16L14 16L14 15ZM23 15L23 16L24 16L24 15ZM25 16L25 17L24 17L24 18L26 18L26 20L25 20L25 21L24 21L24 22L27 22L27 23L28 23L28 24L27 24L27 25L29 25L29 22L27 22L27 21L28 21L28 20L29 20L29 18L31 18L31 17L30 17L30 16L29 16L29 17L28 17L28 16L27 16L27 17L26 17L26 16ZM10 17L10 18L9 18L9 19L7 19L7 20L6 20L6 21L7 21L7 20L10 20L10 19L12 19L12 17ZM27 17L27 18L28 18L28 17ZM40 17L40 18L39 18L39 19L41 19L41 20L43 20L43 21L44 21L44 20L43 20L43 19L42 19L42 18L41 18L41 17ZM20 19L20 20L21 20L21 21L22 21L22 22L21 22L21 23L20 23L20 24L21 24L21 23L22 23L22 22L23 22L23 19L22 19L22 20L21 20L21 19ZM27 19L27 20L28 20L28 19ZM36 22L36 23L37 23L37 24L38 24L38 23L37 23L37 22ZM5 23L5 26L8 26L8 23ZM23 23L23 26L26 26L26 23ZM41 23L41 26L44 26L44 23ZM6 24L6 25L7 25L7 24ZM24 24L24 25L25 25L25 24ZM34 24L34 25L35 25L35 24ZM42 24L42 25L43 25L43 24ZM20 25L20 26L19 26L19 27L20 27L20 29L19 29L19 31L20 31L20 29L22 29L22 28L23 28L23 27L22 27L22 28L21 28L21 27L20 27L20 26L21 26L21 25ZM32 26L32 27L33 27L33 26ZM2 27L2 29L4 29L4 28L5 28L5 29L6 29L6 30L7 30L7 31L9 31L9 30L10 30L10 27L8 27L8 28L7 28L7 27L6 27L6 28L5 28L5 27ZM13 27L13 28L14 28L14 27ZM16 27L16 29L18 29L18 28L17 28L17 27ZM6 28L6 29L7 29L7 30L8 30L8 29L9 29L9 28L8 28L8 29L7 29L7 28ZM26 29L26 30L29 30L29 29ZM31 29L31 30L32 30L32 29ZM45 29L45 30L46 30L46 29ZM15 31L15 32L16 32L16 31ZM17 31L17 32L18 32L18 31ZM7 32L7 33L9 33L9 32ZM17 33L17 34L18 34L18 33ZM48 33L48 35L47 35L47 34L46 34L46 35L47 35L47 36L48 36L48 38L46 38L46 36L45 36L45 38L44 38L44 39L45 39L45 38L46 38L46 39L49 39L49 36L48 36L48 35L49 35L49 33ZM1 34L1 35L0 35L0 36L4 36L4 35L2 35L2 34ZM37 34L37 35L38 35L38 36L39 36L39 35L38 35L38 34ZM17 36L17 37L18 37L18 38L17 38L17 39L19 39L19 38L20 38L20 39L21 39L21 38L20 38L20 37L21 37L21 36L20 36L20 37L18 37L18 36ZM30 36L30 37L31 37L31 38L32 38L32 37L31 37L31 36ZM11 37L11 38L10 38L10 39L11 39L11 38L12 38L12 37ZM15 37L15 38L16 38L16 37ZM26 37L26 38L27 38L27 37ZM33 37L33 38L34 38L34 37ZM1 38L1 40L0 40L0 41L3 41L3 40L4 40L4 39L2 39L2 38ZM35 40L35 41L36 41L36 40ZM23 41L23 44L26 44L26 41ZM31 41L31 42L32 42L32 41ZM41 41L41 44L44 44L44 41ZM24 42L24 43L25 43L25 42ZM42 42L42 43L43 43L43 42ZM46 43L46 46L45 46L45 45L44 45L44 46L45 46L45 47L46 47L46 48L47 48L47 47L48 47L48 46L47 46L47 45L48 45L48 44L47 44L47 43ZM26 45L26 47L24 47L24 48L27 48L27 45ZM40 45L40 46L39 46L39 47L38 47L38 48L39 48L39 47L41 47L41 45ZM46 46L46 47L47 47L47 46ZM15 47L15 48L16 48L16 47ZM0 0L0 7L7 7L7 0ZM1 1L1 6L6 6L6 1ZM2 2L2 5L5 5L5 2ZM42 0L42 7L49 7L49 0ZM43 1L43 6L48 6L48 1ZM44 2L44 5L47 5L47 2ZM0 42L0 49L7 49L7 42ZM1 43L1 48L6 48L6 43ZM2 44L2 47L5 47L5 44Z" fill="#000000"/></g></g></svg>
