<?xml version="1.0" encoding="UTF-8"?>
<svg xmlns="http://www.w3.org/2000/svg" version="1.1" width="300" height="300" viewBox="0 0 300 300"><rect x="0" y="0" width="300" height="300" fill="#ffffff"/><g transform="scale(5.66)"><g transform="translate(0,0)"><path fill-rule="evenodd" d="M13 0L13 2L12 2L12 1L8 1L8 2L9 2L9 3L8 3L8 4L9 4L9 3L10 3L10 5L8 5L8 7L9 7L9 6L10 6L10 7L11 7L11 6L12 6L12 8L11 8L11 9L10 9L10 8L6 8L6 9L5 9L5 8L0 8L0 9L1 9L1 10L0 10L0 11L1 11L1 13L2 13L2 14L0 14L0 17L1 17L1 18L0 18L0 19L1 19L1 20L0 20L0 22L3 22L3 21L2 21L2 20L3 20L3 19L2 19L2 17L3 17L3 16L2 16L2 14L3 14L3 15L4 15L4 14L3 14L3 13L8 13L8 17L10 17L10 18L9 18L9 19L8 19L8 18L6 18L6 17L7 17L7 16L6 16L6 15L7 15L7 14L6 14L6 15L5 15L5 16L6 16L6 17L4 17L4 19L5 19L5 20L6 20L6 21L7 21L7 22L4 22L4 23L3 23L3 25L2 25L2 24L1 24L1 25L0 25L0 26L2 26L2 27L1 27L1 28L0 28L0 30L1 30L1 29L2 29L2 30L3 30L3 31L1 31L1 33L0 33L0 34L1 34L1 35L0 35L0 36L1 36L1 37L2 37L2 36L1 36L1 35L2 35L2 34L1 34L1 33L3 33L3 32L4 32L4 34L5 34L5 37L4 37L4 36L3 36L3 38L0 38L0 40L2 40L2 41L0 41L0 43L1 43L1 44L3 44L3 45L4 45L4 44L3 44L3 43L7 43L7 42L3 42L3 39L4 39L4 40L5 40L5 39L7 39L7 40L6 40L6 41L7 41L7 40L9 40L9 39L10 39L10 38L11 38L11 39L12 39L12 37L10 37L10 36L9 36L9 35L10 35L10 33L8 33L8 32L12 32L12 33L11 33L11 34L12 34L12 35L14 35L14 36L16 36L16 32L15 32L15 35L14 35L14 33L13 33L13 32L14 32L14 31L9 31L9 30L13 30L13 29L16 29L16 30L15 30L15 31L19 31L19 33L17 33L17 35L19 35L19 36L17 36L17 37L15 37L15 38L14 38L14 37L13 37L13 39L14 39L14 40L13 40L13 41L12 41L12 40L11 40L11 41L12 41L12 42L9 42L9 43L8 43L8 44L6 44L6 45L8 45L8 47L9 47L9 48L8 48L8 53L10 53L10 52L12 52L12 51L13 51L13 50L11 50L11 51L10 51L10 50L9 50L9 48L12 48L12 49L14 49L14 50L15 50L15 51L17 51L17 52L18 52L18 53L19 53L19 52L20 52L20 51L21 51L21 52L22 52L22 53L28 53L28 52L31 52L31 53L37 53L37 52L38 52L38 49L40 49L40 50L41 50L41 51L42 51L42 52L43 52L43 53L44 53L44 52L45 52L45 51L46 51L46 53L49 53L49 52L47 52L47 51L48 51L48 50L45 50L45 51L44 51L44 52L43 52L43 50L44 50L44 49L50 49L50 48L51 48L51 47L52 47L52 48L53 48L53 46L51 46L51 47L50 47L50 48L49 48L49 46L50 46L50 45L49 45L49 44L48 44L48 43L49 43L49 42L50 42L50 44L51 44L51 45L53 45L53 43L51 43L51 42L52 42L52 40L53 40L53 39L52 39L52 37L53 37L53 36L52 36L52 37L51 37L51 38L50 38L50 39L51 39L51 42L50 42L50 41L48 41L48 40L49 40L49 39L47 39L47 38L49 38L49 37L50 37L50 36L49 36L49 37L45 37L45 39L44 39L44 41L43 41L43 39L40 39L40 41L39 41L39 40L38 40L38 39L37 39L37 38L36 38L36 39L37 39L37 41L36 41L36 43L37 43L37 44L38 44L38 43L39 43L39 42L41 42L41 43L40 43L40 44L39 44L39 45L38 45L38 46L36 46L36 45L35 45L35 46L34 46L34 44L33 44L33 43L32 43L32 42L33 42L33 41L35 41L35 40L33 40L33 41L32 41L32 39L31 39L31 37L30 37L30 36L31 36L31 35L32 35L32 37L33 37L33 39L34 39L34 37L35 37L35 36L34 36L34 35L36 35L36 37L37 37L37 35L39 35L39 34L41 34L41 33L40 33L40 32L41 32L41 31L42 31L42 32L43 32L43 33L42 33L42 35L41 35L41 36L43 36L43 37L44 37L44 35L43 35L43 33L44 33L44 31L42 31L42 29L40 29L40 28L44 28L44 30L45 30L45 29L46 29L46 30L48 30L48 29L49 29L49 31L47 31L47 33L45 33L45 35L46 35L46 34L47 34L47 33L48 33L48 35L49 35L49 34L50 34L50 35L53 35L53 33L52 33L52 34L50 34L50 33L48 33L48 32L50 32L50 31L51 31L51 32L52 32L52 30L50 30L50 29L49 29L49 28L51 28L51 26L52 26L52 25L51 25L51 26L50 26L50 23L51 23L51 24L53 24L53 23L52 23L52 22L53 22L53 21L51 21L51 22L50 22L50 21L49 21L49 20L53 20L53 18L50 18L50 17L51 17L51 16L53 16L53 15L51 15L51 14L52 14L52 13L51 13L51 14L50 14L50 11L51 11L51 12L53 12L53 11L52 11L52 10L53 10L53 9L52 9L52 8L51 8L51 9L52 9L52 10L50 10L50 8L49 8L49 10L47 10L47 9L48 9L48 8L47 8L47 9L46 9L46 8L45 8L45 9L46 9L46 10L47 10L47 11L48 11L48 13L49 13L49 14L50 14L50 16L48 16L48 17L47 17L47 16L45 16L45 18L44 18L44 19L43 19L43 18L42 18L42 19L41 19L41 20L43 20L43 21L45 21L45 23L47 23L47 24L44 24L44 22L41 22L41 21L40 21L40 22L41 22L41 23L42 23L42 24L41 24L41 25L40 25L40 23L39 23L39 22L38 22L38 23L37 23L37 22L36 22L36 23L35 23L35 24L33 24L33 25L32 25L32 26L33 26L33 25L35 25L35 24L36 24L36 25L37 25L37 26L35 26L35 27L38 27L38 26L39 26L39 27L40 27L40 28L38 28L38 29L39 29L39 30L41 30L41 31L40 31L40 32L38 32L38 31L37 31L37 28L36 28L36 30L35 30L35 28L34 28L34 27L33 27L33 28L34 28L34 29L33 29L33 31L32 31L32 28L31 28L31 25L30 25L30 24L31 24L31 23L32 23L32 22L33 22L33 23L34 23L34 22L33 22L33 20L32 20L32 19L30 19L30 20L32 20L32 22L31 22L31 21L30 21L30 24L29 24L29 23L28 23L28 20L29 20L29 17L30 17L30 18L33 18L33 19L34 19L34 18L33 18L33 17L34 17L34 16L33 16L33 15L32 15L32 14L34 14L34 13L35 13L35 12L33 12L33 11L34 11L34 9L37 9L37 8L38 8L38 7L39 7L39 5L41 5L41 6L40 6L40 8L39 8L39 9L40 9L40 10L41 10L41 12L38 12L38 13L39 13L39 14L42 14L42 15L39 15L39 16L38 16L38 15L37 15L37 13L36 13L36 16L35 16L35 20L34 20L34 21L35 21L35 20L38 20L38 19L39 19L39 20L40 20L40 19L39 19L39 16L43 16L43 17L44 17L44 15L46 15L46 13L47 13L47 12L46 12L46 11L45 11L45 10L44 10L44 9L42 9L42 10L41 10L41 9L40 9L40 8L44 8L44 7L45 7L45 6L44 6L44 7L43 7L43 3L44 3L44 4L45 4L45 3L44 3L44 1L43 1L43 0L39 0L39 2L40 2L40 4L39 4L39 3L38 3L38 2L37 2L37 1L36 1L36 0L32 0L32 1L33 1L33 2L31 2L31 1L30 1L30 0L29 0L29 1L30 1L30 2L28 2L28 0L27 0L27 4L25 4L25 3L26 3L26 0L25 0L25 2L22 2L22 0L21 0L21 2L22 2L22 3L21 3L21 5L18 5L18 3L17 3L17 5L16 5L16 2L15 2L15 3L13 3L13 2L14 2L14 0ZM15 0L15 1L16 1L16 0ZM17 0L17 2L19 2L19 3L20 3L20 2L19 2L19 1L18 1L18 0ZM23 0L23 1L24 1L24 0ZM35 1L35 2L33 2L33 3L35 3L35 4L33 4L33 5L32 5L32 3L28 3L28 4L31 4L31 5L32 5L32 6L31 6L31 7L32 7L32 8L30 8L30 6L29 6L29 9L28 9L28 11L30 11L30 9L33 9L33 7L34 7L34 8L35 8L35 7L36 7L36 6L35 6L35 4L36 4L36 3L37 3L37 4L38 4L38 3L37 3L37 2L36 2L36 1ZM40 1L40 2L41 2L41 4L42 4L42 3L43 3L43 2L42 2L42 1ZM10 2L10 3L11 3L11 5L12 5L12 6L13 6L13 8L14 8L14 6L13 6L13 5L12 5L12 3L11 3L11 2ZM35 2L35 3L36 3L36 2ZM14 4L14 5L15 5L15 4ZM21 5L21 7L20 7L20 6L19 6L19 7L18 7L18 6L17 6L17 7L16 7L16 6L15 6L15 7L16 7L16 9L11 9L11 10L12 10L12 11L13 11L13 12L14 12L14 11L15 11L15 14L13 14L13 13L12 13L12 12L11 12L11 11L9 11L9 12L8 12L8 11L6 11L6 10L7 10L7 9L6 9L6 10L5 10L5 9L4 9L4 10L3 10L3 11L5 11L5 12L8 12L8 13L9 13L9 12L10 12L10 13L11 13L11 15L12 15L12 14L13 14L13 15L14 15L14 16L12 16L12 17L11 17L11 18L10 18L10 19L9 19L9 21L8 21L8 22L7 22L7 23L5 23L5 24L8 24L8 23L9 23L9 21L10 21L10 22L11 22L11 23L10 23L10 27L9 27L9 29L11 29L11 28L10 28L10 27L11 27L11 26L12 26L12 25L11 25L11 23L12 23L12 22L11 22L11 21L13 21L13 19L11 19L11 18L13 18L13 17L14 17L14 19L16 19L16 20L14 20L14 22L15 22L15 21L16 21L16 22L18 22L18 21L16 21L16 20L17 20L17 18L20 18L20 16L22 16L22 17L21 17L21 19L18 19L18 20L19 20L19 23L15 23L15 24L16 24L16 25L13 25L13 26L14 26L14 27L13 27L13 28L14 28L14 27L15 27L15 28L16 28L16 27L15 27L15 26L16 26L16 25L17 25L17 26L21 26L21 27L20 27L20 30L19 30L19 31L20 31L20 34L21 34L21 35L20 35L20 36L19 36L19 37L17 37L17 38L20 38L20 37L21 37L21 39L20 39L20 40L19 40L19 39L18 39L18 40L17 40L17 39L15 39L15 40L16 40L16 41L13 41L13 43L11 43L11 44L13 44L13 45L11 45L11 47L13 47L13 48L14 48L14 49L15 49L15 50L17 50L17 48L18 48L18 49L19 49L19 51L18 51L18 52L19 52L19 51L20 51L20 50L21 50L21 51L23 51L23 52L24 52L24 51L23 51L23 50L24 50L24 49L23 49L23 48L22 48L22 47L24 47L24 46L23 46L23 45L24 45L24 44L27 44L27 42L28 42L28 43L29 43L29 41L27 41L27 40L30 40L30 41L31 41L31 42L32 42L32 41L31 41L31 40L30 40L30 39L29 39L29 37L28 37L28 36L27 36L27 37L26 37L26 40L25 40L25 39L24 39L24 38L25 38L25 37L24 37L24 36L26 36L26 35L27 35L27 34L29 34L29 35L31 35L31 34L30 34L30 33L33 33L33 32L36 32L36 31L33 31L33 32L32 32L32 31L31 31L31 29L30 29L30 28L29 28L29 29L28 29L28 30L29 30L29 31L28 31L28 32L27 32L27 29L24 29L24 27L23 27L23 26L21 26L21 25L17 25L17 24L21 24L21 23L22 23L22 24L23 24L23 25L24 25L24 24L26 24L26 23L27 23L27 24L28 24L28 23L27 23L27 20L28 20L28 19L27 19L27 16L28 16L28 17L29 17L29 16L30 16L30 17L33 17L33 16L32 16L32 15L31 15L31 16L30 16L30 14L29 14L29 12L28 12L28 15L27 15L27 9L26 9L26 11L25 11L25 13L26 13L26 14L25 14L25 16L24 16L24 17L25 17L25 16L26 16L26 18L25 18L25 19L24 19L24 18L23 18L23 12L24 12L24 11L23 11L23 9L22 9L22 8L24 8L24 6L23 6L23 5ZM25 5L25 8L28 8L28 5ZM37 5L37 7L38 7L38 5ZM22 6L22 7L21 7L21 8L22 8L22 7L23 7L23 6ZM26 6L26 7L27 7L27 6ZM32 6L32 7L33 7L33 6ZM34 6L34 7L35 7L35 6ZM41 6L41 7L42 7L42 6ZM19 7L19 8L20 8L20 7ZM17 8L17 9L16 9L16 10L15 10L15 11L16 11L16 12L18 12L18 13L21 13L21 14L15 14L15 15L19 15L19 16L20 16L20 15L21 15L21 14L22 14L22 12L23 12L23 11L22 11L22 9L21 9L21 10L20 10L20 11L21 11L21 12L18 12L18 11L19 11L19 10L18 10L18 8ZM1 10L1 11L2 11L2 10ZM13 10L13 11L14 11L14 10ZM31 10L31 11L33 11L33 10ZM35 10L35 11L39 11L39 10ZM42 10L42 11L43 11L43 10ZM49 10L49 11L50 11L50 10ZM44 11L44 14L43 14L43 15L44 15L44 14L45 14L45 11ZM30 12L30 13L31 13L31 14L32 14L32 13L33 13L33 12ZM42 12L42 13L43 13L43 12ZM26 15L26 16L27 16L27 15ZM28 15L28 16L29 16L29 15ZM17 16L17 17L18 17L18 16ZM37 16L37 17L36 17L36 18L37 18L37 17L38 17L38 16ZM15 17L15 18L16 18L16 17ZM40 17L40 18L41 18L41 17ZM46 17L46 18L45 18L45 19L44 19L44 20L45 20L45 21L46 21L46 22L48 22L48 24L49 24L49 23L50 23L50 22L48 22L48 20L49 20L49 19L50 19L50 18L49 18L49 17L48 17L48 18L49 18L49 19L47 19L47 17ZM6 19L6 20L7 20L7 19ZM21 19L21 21L22 21L22 22L23 22L23 23L26 23L26 20L27 20L27 19L25 19L25 20L23 20L23 19ZM10 20L10 21L11 21L11 20ZM22 20L22 21L23 21L23 20ZM20 22L20 23L21 23L21 22ZM13 23L13 24L14 24L14 23ZM38 23L38 24L37 24L37 25L38 25L38 24L39 24L39 23ZM42 24L42 25L41 25L41 26L40 26L40 27L43 27L43 26L44 26L44 25L43 25L43 24ZM3 25L3 27L2 27L2 29L3 29L3 30L4 30L4 29L3 29L3 27L4 27L4 25ZM5 25L5 28L8 28L8 25ZM25 25L25 28L28 28L28 25ZM29 25L29 27L30 27L30 25ZM45 25L45 28L48 28L48 25ZM6 26L6 27L7 27L7 26ZM26 26L26 27L27 27L27 26ZM46 26L46 27L47 27L47 26ZM49 26L49 27L50 27L50 26ZM17 27L17 29L19 29L19 27ZM21 27L21 28L22 28L22 30L20 30L20 31L21 31L21 34L23 34L23 32L24 32L24 33L25 33L25 32L24 32L24 31L23 31L23 32L22 32L22 30L24 30L24 29L23 29L23 27ZM6 29L6 30L7 30L7 29ZM29 29L29 30L30 30L30 29ZM5 31L5 32L7 32L7 31ZM30 31L30 32L28 32L28 33L30 33L30 32L31 32L31 31ZM45 31L45 32L46 32L46 31ZM26 32L26 34L27 34L27 32ZM37 32L37 33L38 33L38 32ZM6 33L6 34L7 34L7 35L6 35L6 36L7 36L7 37L5 37L5 38L4 38L4 39L5 39L5 38L7 38L7 37L8 37L8 38L10 38L10 37L8 37L8 35L9 35L9 34L7 34L7 33ZM34 33L34 34L32 34L32 35L34 35L34 34L36 34L36 33ZM24 34L24 35L21 35L21 36L22 36L22 37L23 37L23 36L24 36L24 35L25 35L25 34ZM38 36L38 38L42 38L42 37L39 37L39 36ZM27 37L27 38L28 38L28 37ZM23 39L23 40L24 40L24 39ZM45 39L45 41L47 41L47 42L46 42L46 43L48 43L48 41L47 41L47 39ZM18 40L18 41L19 41L19 42L18 42L18 43L19 43L19 44L18 44L18 46L16 46L16 45L17 45L17 44L15 44L15 45L13 45L13 46L16 46L16 47L19 47L19 49L20 49L20 47L21 47L21 46L22 46L22 44L24 44L24 43L26 43L26 42L27 42L27 41L24 41L24 43L22 43L22 44L21 44L21 46L20 46L20 43L21 43L21 42L20 42L20 41L19 41L19 40ZM21 40L21 41L22 41L22 42L23 42L23 41L22 41L22 40ZM41 40L41 41L42 41L42 42L43 42L43 43L45 43L45 42L43 42L43 41L42 41L42 40ZM37 41L37 43L38 43L38 42L39 42L39 41ZM2 42L2 43L3 43L3 42ZM14 42L14 43L17 43L17 42ZM41 43L41 44L40 44L40 45L39 45L39 46L38 46L38 48L37 48L37 47L36 47L36 46L35 46L35 47L33 47L33 46L31 46L31 45L33 45L33 44L29 44L29 45L30 45L30 46L31 46L31 48L30 48L30 47L29 47L29 50L28 50L28 49L27 49L27 50L25 50L25 51L26 51L26 52L27 52L27 50L28 50L28 51L30 51L30 49L31 49L31 50L32 50L32 52L33 52L33 51L34 51L34 52L36 52L36 51L35 51L35 50L34 50L34 49L33 49L33 48L35 48L35 49L36 49L36 50L37 50L37 49L38 49L38 48L39 48L39 47L43 47L43 46L44 46L44 45L43 45L43 44L42 44L42 43ZM41 44L41 45L42 45L42 44ZM25 45L25 48L28 48L28 45ZM45 45L45 48L48 48L48 45ZM9 46L9 47L10 47L10 46ZM19 46L19 47L20 47L20 46ZM26 46L26 47L27 47L27 46ZM46 46L46 47L47 47L47 46ZM14 47L14 48L15 48L15 47ZM32 47L32 48L33 48L33 47ZM35 47L35 48L36 48L36 49L37 49L37 48L36 48L36 47ZM40 48L40 49L41 49L41 50L42 50L42 49L44 49L44 48ZM21 49L21 50L22 50L22 49ZM32 49L32 50L33 50L33 49ZM50 50L50 51L52 51L52 52L53 52L53 51L52 51L52 50ZM9 51L9 52L10 52L10 51ZM39 51L39 53L40 53L40 51ZM15 52L15 53L16 53L16 52ZM0 0L0 7L7 7L7 0ZM1 1L1 6L6 6L6 1ZM2 2L2 5L5 5L5 2ZM46 0L46 7L53 7L53 0ZM47 1L47 6L52 6L52 1ZM48 2L48 5L51 5L51 2ZM0 46L0 53L7 53L7 46ZM1 47L1 52L6 52L6 47ZM2 48L2 51L5 51L5 48Z" fill="#000000"/></g></g></svg>
