<?xml version="1.0" encoding="UTF-8"?>
<svg xmlns="http://www.w3.org/2000/svg" version="1.1" width="300" height="300" viewBox="0 0 300 300"><rect x="0" y="0" width="300" height="300" fill="#ffffff"/><g transform="scale(5.66)"><g transform="translate(0,0)"><path fill-rule="evenodd" d="M11 0L11 1L10 1L10 3L11 3L11 4L13 4L13 5L11 5L11 6L10 6L10 7L11 7L11 6L12 6L12 7L13 7L13 6L14 6L14 8L13 8L13 9L12 9L12 10L13 10L13 12L10 12L10 11L8 11L8 10L9 10L9 9L10 9L10 8L6 8L6 9L5 9L5 8L0 8L0 9L2 9L2 10L0 10L0 13L1 13L1 14L0 14L0 16L1 16L1 18L0 18L0 23L1 23L1 24L0 24L0 26L2 26L2 27L3 27L3 24L2 24L2 22L3 22L3 21L2 21L2 22L1 22L1 18L4 18L4 19L5 19L5 20L4 20L4 22L5 22L5 21L8 21L8 22L6 22L6 23L4 23L4 29L3 29L3 28L1 28L1 27L0 27L0 28L1 28L1 29L3 29L3 30L1 30L1 31L0 31L0 34L1 34L1 35L0 35L0 36L1 36L1 37L3 37L3 35L4 35L4 34L5 34L5 33L7 33L7 32L11 32L11 33L10 33L10 34L11 34L11 35L10 35L10 37L11 37L11 38L13 38L13 39L10 39L10 38L8 38L8 37L9 37L9 35L7 35L7 34L6 34L6 35L7 35L7 36L5 36L5 37L4 37L4 38L0 38L0 40L1 40L1 41L0 41L0 43L1 43L1 44L3 44L3 45L4 45L4 44L3 44L3 43L8 43L8 44L9 44L9 45L8 45L8 47L9 47L9 45L10 45L10 44L12 44L12 45L13 45L13 44L14 44L14 45L15 45L15 44L14 44L14 43L16 43L16 44L18 44L18 45L17 45L17 46L16 46L16 47L15 47L15 46L14 46L14 48L12 48L12 52L13 52L13 53L17 53L17 52L18 52L18 51L19 51L19 52L20 52L20 51L21 51L21 52L22 52L22 53L28 53L28 52L26 52L26 51L27 51L27 50L29 50L29 48L31 48L31 49L30 49L30 50L31 50L31 51L29 51L29 52L31 52L31 53L34 53L34 52L33 52L33 51L32 51L32 50L35 50L35 51L37 51L37 46L38 46L38 45L39 45L39 47L40 47L40 46L41 46L41 47L42 47L42 48L41 48L41 49L40 49L40 50L39 50L39 52L37 52L37 53L40 53L40 50L41 50L41 49L42 49L42 50L43 50L43 49L42 49L42 48L44 48L44 51L42 51L42 52L45 52L45 51L46 51L46 53L50 53L50 52L47 52L47 51L48 51L48 50L45 50L45 49L49 49L49 50L50 50L50 51L52 51L52 52L53 52L53 51L52 51L52 50L50 50L50 48L51 48L51 47L50 47L50 48L49 48L49 46L50 46L50 45L53 45L53 43L51 43L51 42L52 42L52 41L51 41L51 42L50 42L50 41L49 41L49 42L48 42L48 44L47 44L47 41L45 41L45 42L46 42L46 43L43 43L43 42L44 42L44 41L42 41L42 40L43 40L43 37L44 37L44 35L43 35L43 33L42 33L42 36L43 36L43 37L42 37L42 40L41 40L41 41L40 41L40 42L39 42L39 40L40 40L40 39L39 39L39 40L38 40L38 38L37 38L37 36L38 36L38 37L39 37L39 38L40 38L40 37L41 37L41 36L38 36L38 35L37 35L37 34L38 34L38 33L39 33L39 32L41 32L41 31L39 31L39 32L38 32L38 29L39 29L39 30L40 30L40 29L39 29L39 28L40 28L40 26L41 26L41 25L42 25L42 24L43 24L43 25L44 25L44 26L43 26L43 27L41 27L41 28L44 28L44 31L42 31L42 32L44 32L44 34L46 34L46 36L49 36L49 37L45 37L45 39L47 39L47 40L49 40L49 39L47 39L47 38L49 38L49 37L50 37L50 36L49 36L49 34L50 34L50 35L52 35L52 34L50 34L50 33L48 33L48 32L50 32L50 31L52 31L52 32L51 32L51 33L52 33L52 32L53 32L53 29L51 29L51 30L50 30L50 29L49 29L49 28L50 28L50 27L51 27L51 26L52 26L52 24L53 24L53 23L52 23L52 21L51 21L51 20L53 20L53 18L50 18L50 17L51 17L51 16L52 16L52 15L53 15L53 14L52 14L52 15L51 15L51 14L50 14L50 13L51 13L51 12L53 12L53 11L52 11L52 10L53 10L53 9L52 9L52 8L51 8L51 9L52 9L52 10L50 10L50 8L49 8L49 10L47 10L47 9L48 9L48 8L47 8L47 9L46 9L46 8L45 8L45 9L46 9L46 10L47 10L47 12L46 12L46 13L47 13L47 12L48 12L48 13L49 13L49 14L47 14L47 15L49 15L49 14L50 14L50 16L48 16L48 17L47 17L47 16L45 16L45 18L44 18L44 19L43 19L43 18L42 18L42 19L39 19L39 21L40 21L40 22L36 22L36 21L38 21L38 18L35 18L35 20L33 20L33 21L32 21L32 18L33 18L33 19L34 19L34 17L37 17L37 16L38 16L38 17L39 17L39 18L40 18L40 16L38 16L38 15L40 15L40 14L41 14L41 16L43 16L43 17L44 17L44 15L46 15L46 14L44 14L44 15L43 15L43 14L41 14L41 13L40 13L40 11L39 11L39 13L38 13L38 15L37 15L37 13L36 13L36 15L35 15L35 14L34 14L34 13L35 13L35 12L33 12L33 11L32 11L32 10L34 10L34 11L35 11L35 10L34 10L34 9L35 9L35 8L34 8L34 9L32 9L32 8L31 8L31 5L35 5L35 6L34 6L34 7L35 7L35 6L36 6L36 9L37 9L37 10L36 10L36 11L37 11L37 10L41 10L41 12L43 12L43 13L45 13L45 12L44 12L44 11L45 11L45 10L44 10L44 9L42 9L42 10L41 10L41 9L40 9L40 8L44 8L44 7L45 7L45 6L44 6L44 7L43 7L43 3L44 3L44 4L45 4L45 3L44 3L44 1L43 1L43 0L39 0L39 1L41 1L41 2L43 2L43 3L41 3L41 4L42 4L42 7L41 7L41 6L40 6L40 7L39 7L39 6L38 6L38 5L40 5L40 3L38 3L38 5L37 5L37 2L38 2L38 0L37 0L37 1L36 1L36 0L35 0L35 1L33 1L33 0L30 0L30 1L29 1L29 0L27 0L27 1L29 1L29 2L26 2L26 3L25 3L25 2L24 2L24 1L26 1L26 0L24 0L24 1L23 1L23 0L22 0L22 1L21 1L21 0L18 0L18 2L17 2L17 3L16 3L16 2L15 2L15 4L13 4L13 3L14 3L14 0L13 0L13 2L12 2L12 3L11 3L11 1L12 1L12 0ZM15 0L15 1L16 1L16 0ZM8 1L8 2L9 2L9 1ZM19 1L19 2L18 2L18 3L17 3L17 5L16 5L16 6L15 6L15 7L16 7L16 9L13 9L13 10L14 10L14 11L15 11L15 12L14 12L14 13L11 13L11 14L10 14L10 15L9 15L9 12L7 12L7 11L6 11L6 10L8 10L8 9L6 9L6 10L5 10L5 9L3 9L3 10L2 10L2 12L1 12L1 13L2 13L2 14L3 14L3 13L2 13L2 12L4 12L4 13L5 13L5 14L4 14L4 16L2 16L2 15L1 15L1 16L2 16L2 17L6 17L6 18L5 18L5 19L6 19L6 20L9 20L9 21L10 21L10 22L8 22L8 23L9 23L9 26L10 26L10 27L11 27L11 29L10 29L10 28L9 28L9 29L8 29L8 31L11 31L11 32L12 32L12 33L11 33L11 34L12 34L12 33L14 33L14 35L12 35L12 36L13 36L13 37L14 37L14 38L15 38L15 39L16 39L16 41L11 41L11 42L12 42L12 44L13 44L13 43L14 43L14 42L16 42L16 41L18 41L18 40L17 40L17 39L18 39L18 38L17 38L17 37L18 37L18 36L19 36L19 35L20 35L20 37L19 37L19 38L21 38L21 39L19 39L19 42L21 42L21 43L20 43L20 44L19 44L19 43L18 43L18 42L17 42L17 43L18 43L18 44L19 44L19 46L18 46L18 47L16 47L16 48L15 48L15 49L14 49L14 51L13 51L13 52L14 52L14 51L16 51L16 52L17 52L17 51L18 51L18 49L19 49L19 51L20 51L20 49L24 49L24 47L23 47L23 45L24 45L24 43L23 43L23 42L21 42L21 41L22 41L22 40L21 40L21 39L24 39L24 40L23 40L23 41L24 41L24 40L25 40L25 41L26 41L26 42L25 42L25 44L28 44L28 42L30 42L30 41L31 41L31 43L32 43L32 45L33 45L33 42L34 42L34 44L35 44L35 45L34 45L34 47L33 47L33 46L32 46L32 47L31 47L31 45L30 45L30 44L29 44L29 45L30 45L30 47L31 47L31 48L32 48L32 49L33 49L33 48L36 48L36 46L37 46L37 45L36 45L36 43L35 43L35 42L34 42L34 41L33 41L33 40L35 40L35 41L36 41L36 42L37 42L37 41L38 41L38 40L37 40L37 39L35 39L35 38L36 38L36 36L35 36L35 34L37 34L37 33L38 33L38 32L35 32L35 31L36 31L36 30L37 30L37 29L38 29L38 28L39 28L39 27L38 27L38 26L39 26L39 25L36 25L36 26L37 26L37 27L38 27L38 28L36 28L36 29L33 29L33 28L35 28L35 27L33 27L33 26L35 26L35 24L37 24L37 23L36 23L36 22L35 22L35 23L34 23L34 22L32 22L32 21L30 21L30 20L29 20L29 18L27 18L27 17L26 17L26 16L27 16L27 12L28 12L28 15L30 15L30 14L29 14L29 12L28 12L28 11L29 11L29 10L28 10L28 9L26 9L26 10L28 10L28 11L26 11L26 16L24 16L24 17L26 17L26 18L25 18L25 19L26 19L26 20L27 20L27 21L26 21L26 22L25 22L25 24L27 24L27 23L29 23L29 27L30 27L30 25L31 25L31 29L27 29L27 30L26 30L26 31L24 31L24 29L23 29L23 28L24 28L24 27L23 27L23 26L22 26L22 25L24 25L24 23L23 23L23 19L24 19L24 18L23 18L23 16L22 16L22 18L21 18L21 15L20 15L20 14L21 14L21 8L22 8L22 6L23 6L23 8L24 8L24 5L22 5L22 6L21 6L21 7L20 7L20 6L19 6L19 11L18 11L18 10L17 10L17 11L18 11L18 12L16 12L16 11L15 11L15 10L16 10L16 9L18 9L18 8L17 8L17 7L18 7L18 3L19 3L19 5L21 5L21 4L20 4L20 3L19 3L19 2L20 2L20 1ZM22 1L22 2L21 2L21 3L22 3L22 2L23 2L23 1ZM32 1L32 2L31 2L31 3L30 3L30 2L29 2L29 3L26 3L26 4L29 4L29 7L30 7L30 4L32 4L32 2L33 2L33 3L36 3L36 2L33 2L33 1ZM8 3L8 4L9 4L9 3ZM8 5L8 7L9 7L9 5ZM25 5L25 8L28 8L28 5ZM16 6L16 7L17 7L17 6ZM26 6L26 7L27 7L27 6ZM32 6L32 7L33 7L33 6ZM37 6L37 7L38 7L38 8L37 8L37 9L38 9L38 8L39 8L39 7L38 7L38 6ZM30 8L30 9L31 9L31 8ZM22 10L22 11L23 11L23 10ZM42 10L42 11L43 11L43 10ZM49 10L49 11L48 11L48 12L49 12L49 11L50 11L50 10ZM5 11L5 12L6 12L6 13L7 13L7 12L6 12L6 11ZM31 11L31 13L33 13L33 12L32 12L32 11ZM18 12L18 13L19 13L19 12ZM22 12L22 15L24 15L24 14L23 14L23 12ZM24 12L24 13L25 13L25 12ZM16 13L16 14L15 14L15 15L16 15L16 14L17 14L17 15L18 15L18 14L17 14L17 13ZM6 14L6 15L7 15L7 16L6 16L6 17L9 17L9 18L6 18L6 19L11 19L11 22L10 22L10 23L11 23L11 25L10 25L10 26L11 26L11 27L12 27L12 29L14 29L14 28L15 28L15 32L16 32L16 31L18 31L18 30L19 30L19 31L21 31L21 32L22 32L22 34L23 34L23 32L24 32L24 33L25 33L25 34L24 34L24 35L26 35L26 36L24 36L24 37L26 37L26 38L25 38L25 39L26 39L26 40L27 40L27 41L29 41L29 40L31 40L31 39L32 39L32 38L33 38L33 39L34 39L34 38L33 38L33 36L32 36L32 34L33 34L33 33L35 33L35 32L33 32L33 33L32 33L32 34L30 34L30 33L29 33L29 34L27 34L27 35L26 35L26 33L28 33L28 31L29 31L29 32L32 32L32 30L33 30L33 29L32 29L32 30L30 30L30 31L29 31L29 30L27 30L27 31L26 31L26 33L25 33L25 32L24 32L24 31L21 31L21 30L22 30L22 28L23 28L23 27L22 27L22 28L20 28L20 27L21 27L21 26L20 26L20 24L19 24L19 22L20 22L20 23L21 23L21 25L22 25L22 23L21 23L21 21L22 21L22 19L21 19L21 18L20 18L20 17L18 17L18 16L17 16L17 17L18 17L18 19L17 19L17 22L18 22L18 23L17 23L17 24L18 24L18 25L16 25L16 24L15 24L15 22L16 22L16 19L14 19L14 17L11 17L11 15L10 15L10 17L9 17L9 16L8 16L8 15L7 15L7 14ZM12 14L12 16L14 16L14 15L13 15L13 14ZM32 14L32 16L28 16L28 17L31 17L31 18L32 18L32 17L33 17L33 15L34 15L34 16L35 16L35 15L34 15L34 14ZM15 17L15 18L16 18L16 17ZM46 17L46 18L45 18L45 19L44 19L44 22L43 22L43 20L41 20L41 21L42 21L42 23L41 23L41 22L40 22L40 25L41 25L41 24L42 24L42 23L44 23L44 24L47 24L47 22L49 22L49 23L48 23L48 24L49 24L49 23L50 23L50 26L51 26L51 23L50 23L50 22L51 22L51 21L50 21L50 20L49 20L49 21L47 21L47 22L45 22L45 20L47 20L47 17ZM48 17L48 18L49 18L49 19L50 19L50 18L49 18L49 17ZM11 18L11 19L12 19L12 21L14 21L14 22L15 22L15 20L14 20L14 19L12 19L12 18ZM19 18L19 19L18 19L18 20L19 20L19 21L21 21L21 19L20 19L20 18ZM26 18L26 19L27 19L27 18ZM19 19L19 20L20 20L20 19ZM24 20L24 21L25 21L25 20ZM35 20L35 21L36 21L36 20ZM49 21L49 22L50 22L50 21ZM12 22L12 25L11 25L11 26L14 26L14 27L13 27L13 28L14 28L14 27L15 27L15 28L16 28L16 30L18 30L18 28L19 28L19 29L20 29L20 30L21 30L21 29L20 29L20 28L19 28L19 27L20 27L20 26L19 26L19 27L18 27L18 26L17 26L17 28L16 28L16 27L15 27L15 26L16 26L16 25L13 25L13 24L14 24L14 23L13 23L13 22ZM26 22L26 23L27 23L27 22ZM29 22L29 23L30 23L30 24L31 24L31 23L32 23L32 22ZM44 22L44 23L45 23L45 22ZM6 23L6 24L7 24L7 23ZM38 23L38 24L39 24L39 23ZM1 24L1 25L2 25L2 24ZM5 25L5 28L8 28L8 25ZM25 25L25 28L28 28L28 25ZM32 25L32 26L33 26L33 25ZM45 25L45 28L48 28L48 25ZM6 26L6 27L7 27L7 26ZM26 26L26 27L27 27L27 26ZM46 26L46 27L47 27L47 26ZM32 27L32 28L33 28L33 27ZM5 29L5 30L3 30L3 31L5 31L5 32L7 32L7 31L5 31L5 30L7 30L7 29ZM9 29L9 30L10 30L10 29ZM41 29L41 30L42 30L42 29ZM45 29L45 31L44 31L44 32L45 32L45 33L47 33L47 34L48 34L48 33L47 33L47 31L49 31L49 29L48 29L48 30L46 30L46 29ZM12 30L12 32L14 32L14 31L13 31L13 30ZM45 31L45 32L46 32L46 31ZM1 32L1 34L2 34L2 35L1 35L1 36L2 36L2 35L3 35L3 34L4 34L4 32L3 32L3 34L2 34L2 32ZM17 32L17 33L18 33L18 35L17 35L17 36L16 36L16 35L14 35L14 37L15 37L15 38L16 38L16 39L17 39L17 38L16 38L16 37L17 37L17 36L18 36L18 35L19 35L19 34L20 34L20 35L21 35L21 33L20 33L20 32L19 32L19 33L18 33L18 32ZM15 33L15 34L16 34L16 33ZM40 33L40 34L39 34L39 35L40 35L40 34L41 34L41 33ZM29 34L29 35L28 35L28 36L26 36L26 37L27 37L27 38L26 38L26 39L27 39L27 40L29 40L29 37L30 37L30 38L32 38L32 37L31 37L31 36L30 36L30 34ZM22 35L22 36L21 36L21 38L23 38L23 37L22 37L22 36L23 36L23 35ZM15 36L15 37L16 37L16 36ZM28 36L28 37L29 37L29 36ZM34 36L34 37L35 37L35 36ZM52 36L52 37L53 37L53 36ZM6 37L6 38L7 38L7 37ZM27 38L27 39L28 39L28 38ZM50 38L50 39L51 39L51 40L53 40L53 38L52 38L52 39L51 39L51 38ZM4 39L4 40L3 40L3 41L4 41L4 40L5 40L5 39ZM6 39L6 40L7 40L7 41L6 41L6 42L8 42L8 40L9 40L9 39L8 39L8 40L7 40L7 39ZM13 39L13 40L14 40L14 39ZM20 40L20 41L21 41L21 40ZM36 40L36 41L37 41L37 40ZM9 41L9 44L10 44L10 41ZM32 41L32 42L33 42L33 41ZM2 42L2 43L3 43L3 42ZM40 42L40 44L41 44L41 46L42 46L42 44L41 44L41 42ZM49 42L49 43L50 43L50 42ZM21 43L21 45L23 45L23 43ZM38 43L38 44L39 44L39 43ZM6 44L6 45L7 45L7 44ZM49 44L49 45L50 45L50 44ZM25 45L25 48L28 48L28 45ZM43 45L43 46L44 46L44 45ZM45 45L45 48L48 48L48 45ZM11 46L11 47L12 47L12 46ZM20 46L20 47L21 47L21 48L23 48L23 47L21 47L21 46ZM26 46L26 47L27 47L27 46ZM46 46L46 47L47 47L47 46ZM52 47L52 48L53 48L53 47ZM8 48L8 53L9 53L9 49L11 49L11 48ZM17 48L17 49L18 49L18 48ZM19 48L19 49L20 49L20 48ZM38 48L38 49L39 49L39 48ZM15 49L15 50L16 50L16 49ZM25 49L25 51L26 51L26 49ZM35 49L35 50L36 50L36 49ZM21 50L21 51L23 51L23 52L24 52L24 51L23 51L23 50ZM10 51L10 52L11 52L11 51ZM31 51L31 52L32 52L32 51ZM0 0L0 7L7 7L7 0ZM1 1L1 6L6 6L6 1ZM2 2L2 5L5 5L5 2ZM46 0L46 7L53 7L53 0ZM47 1L47 6L52 6L52 1ZM48 2L48 5L51 5L51 2ZM0 46L0 53L7 53L7 46ZM1 47L1 52L6 52L6 47ZM2 48L2 51L5 51L5 48Z" fill="#000000"/></g></g></svg>
