<?xml version="1.0" encoding="UTF-8"?>
<svg xmlns="http://www.w3.org/2000/svg" version="1.1" width="300" height="300" viewBox="0 0 300 300"><rect x="0" y="0" width="300" height="300" fill="#ffffff"/><g transform="scale(6.122)"><g transform="translate(0,0)"><path fill-rule="evenodd" d="M8 0L8 1L9 1L9 2L8 2L8 5L9 5L9 6L8 6L8 7L9 7L9 6L10 6L10 7L11 7L11 8L8 8L8 13L9 13L9 14L6 14L6 15L8 15L8 17L7 17L7 16L5 16L5 15L2 15L2 14L3 14L3 13L4 13L4 12L5 12L5 11L4 11L4 10L6 10L6 11L7 11L7 10L6 10L6 9L7 9L7 8L6 8L6 9L4 9L4 8L0 8L0 14L1 14L1 15L2 15L2 16L0 16L0 20L1 20L1 18L2 18L2 21L0 21L0 23L2 23L2 21L3 21L3 23L4 23L4 24L3 24L3 25L4 25L4 27L5 27L5 28L6 28L6 29L4 29L4 28L3 28L3 29L1 29L1 28L2 28L2 27L3 27L3 26L2 26L2 25L0 25L0 26L2 26L2 27L0 27L0 33L3 33L3 34L1 34L1 35L0 35L0 38L1 38L1 40L0 40L0 41L3 41L3 40L4 40L4 39L2 39L2 38L3 38L3 35L4 35L4 36L5 36L5 35L7 35L7 36L6 36L6 37L7 37L7 36L8 36L8 34L9 34L9 35L10 35L10 36L11 36L11 38L10 38L10 40L8 40L8 39L7 39L7 38L5 38L5 37L4 37L4 38L5 38L5 39L7 39L7 40L6 40L6 41L8 41L8 42L9 42L9 45L8 45L8 49L9 49L9 47L10 47L10 46L9 46L9 45L11 45L11 48L10 48L10 49L11 49L11 48L12 48L12 49L16 49L16 47L17 47L17 49L19 49L19 47L17 47L17 46L21 46L21 48L20 48L20 49L22 49L22 46L23 46L23 45L24 45L24 46L25 46L25 47L23 47L23 49L28 49L28 48L26 48L26 47L27 47L27 46L29 46L29 45L30 45L30 47L29 47L29 48L30 48L30 49L32 49L32 48L30 48L30 47L33 47L33 48L34 48L34 49L35 49L35 48L36 48L36 49L37 49L37 48L36 48L36 46L35 46L35 47L34 47L34 45L32 45L32 44L28 44L28 45L27 45L27 41L28 41L28 42L29 42L29 43L30 43L30 42L31 42L31 43L32 43L32 42L33 42L33 44L34 44L34 43L35 43L35 44L36 44L36 43L37 43L37 41L38 41L38 38L37 38L37 36L36 36L36 35L33 35L33 34L34 34L34 33L32 33L32 32L30 32L30 31L32 31L32 30L36 30L36 31L37 31L37 34L39 34L39 33L40 33L40 36L41 36L41 37L39 37L39 36L38 36L38 37L39 37L39 38L43 38L43 39L41 39L41 40L40 40L40 39L39 39L39 41L40 41L40 43L38 43L38 46L39 46L39 47L40 47L40 45L41 45L41 46L42 46L42 47L41 47L41 48L42 48L42 49L44 49L44 47L43 47L43 46L44 46L44 45L45 45L45 47L46 47L46 49L49 49L49 47L48 47L48 46L49 46L49 45L47 45L47 44L46 44L46 45L45 45L45 43L47 43L47 41L48 41L48 44L49 44L49 40L47 40L47 41L46 41L46 40L43 40L43 39L46 39L46 38L45 38L45 37L46 37L46 36L48 36L48 37L47 37L47 39L48 39L48 37L49 37L49 35L48 35L48 34L49 34L49 31L48 31L48 30L47 30L47 29L48 29L48 27L47 27L47 29L46 29L46 28L44 28L44 27L45 27L45 26L46 26L46 25L45 25L45 23L46 23L46 24L47 24L47 26L49 26L49 24L48 24L48 23L47 23L47 22L46 22L46 20L47 20L47 19L48 19L48 20L49 20L49 18L48 18L48 17L46 17L46 14L45 14L45 19L46 19L46 20L45 20L45 21L44 21L44 22L42 22L42 21L43 21L43 20L42 20L42 21L40 21L40 23L39 23L39 22L38 22L38 21L39 21L39 20L40 20L40 19L42 19L42 18L40 18L40 15L41 15L41 16L43 16L43 19L44 19L44 15L43 15L43 14L42 14L42 11L43 11L43 10L41 10L41 9L42 9L42 8L41 8L41 9L39 9L39 8L40 8L40 7L41 7L41 6L40 6L40 7L39 7L39 5L38 5L38 8L36 8L36 9L39 9L39 10L38 10L38 11L40 11L40 12L38 12L38 14L39 14L39 13L40 13L40 15L39 15L39 16L38 16L38 15L36 15L36 16L38 16L38 18L36 18L36 17L35 17L35 16L34 16L34 17L33 17L33 15L35 15L35 14L33 14L33 13L34 13L34 12L35 12L35 13L36 13L36 14L37 14L37 12L35 12L35 9L33 9L33 8L34 8L34 7L35 7L35 5L34 5L34 7L33 7L33 6L32 6L32 7L33 7L33 8L31 8L31 9L30 9L30 8L28 8L28 7L29 7L29 6L30 6L30 7L31 7L31 6L30 6L30 5L32 5L32 4L27 4L27 3L26 3L26 2L28 2L28 3L30 3L30 1L31 1L31 0L30 0L30 1L29 1L29 2L28 2L28 1L26 1L26 2L25 2L25 3L24 3L24 1L23 1L23 2L21 2L21 3L22 3L22 7L21 7L21 4L20 4L20 3L19 3L19 2L18 2L18 3L17 3L17 1L19 1L19 0L17 0L17 1L16 1L16 0L14 0L14 1L12 1L12 3L11 3L11 1L10 1L10 0ZM20 0L20 1L22 1L22 0ZM32 0L32 2L31 2L31 3L33 3L33 4L36 4L36 5L37 5L37 4L38 4L38 3L37 3L37 2L36 2L36 3L35 3L35 1L34 1L34 0ZM40 0L40 1L38 1L38 2L39 2L39 4L40 4L40 3L41 3L41 0ZM14 1L14 2L15 2L15 1ZM9 2L9 4L10 4L10 2ZM33 2L33 3L34 3L34 2ZM12 3L12 4L11 4L11 5L12 5L12 6L11 6L11 7L12 7L12 6L13 6L13 8L11 8L11 9L13 9L13 8L15 8L15 9L14 9L14 10L10 10L10 11L9 11L9 12L12 12L12 13L11 13L11 14L9 14L9 15L11 15L11 14L13 14L13 16L14 16L14 18L16 18L16 20L17 20L17 18L18 18L18 19L19 19L19 18L21 18L21 17L22 17L22 16L21 16L21 15L20 15L20 16L21 16L21 17L19 17L19 13L18 13L18 12L20 12L20 14L22 14L22 15L23 15L23 17L26 17L26 19L27 19L27 20L28 20L28 21L30 21L30 20L32 20L32 21L31 21L31 22L28 22L28 23L27 23L27 26L28 26L28 23L30 23L30 24L32 24L32 25L31 25L31 26L29 26L29 27L27 27L27 28L28 28L28 29L27 29L27 30L25 30L25 29L26 29L26 27L25 27L25 28L23 28L23 27L22 27L22 25L21 25L21 27L20 27L20 28L21 28L21 27L22 27L22 28L23 28L23 30L22 30L22 29L21 29L21 32L20 32L20 33L19 33L19 31L20 31L20 30L19 30L19 28L18 28L18 30L19 30L19 31L18 31L18 33L17 33L17 32L15 32L15 29L16 29L16 30L17 30L17 27L19 27L19 26L17 26L17 25L20 25L20 24L22 24L22 23L21 23L21 21L19 21L19 22L18 22L18 21L16 21L16 23L15 23L15 24L12 24L12 23L14 23L14 22L15 22L15 21L14 21L14 20L15 20L15 19L13 19L13 18L12 18L12 19L13 19L13 21L12 21L12 20L11 20L11 19L10 19L10 20L11 20L11 21L10 21L10 22L9 22L9 19L8 19L8 18L9 18L9 17L8 17L8 18L7 18L7 17L3 17L3 18L5 18L5 19L3 19L3 21L4 21L4 22L7 22L7 21L6 21L6 20L7 20L7 19L8 19L8 22L9 22L9 25L10 25L10 27L8 27L8 28L7 28L7 27L6 27L6 28L7 28L7 29L6 29L6 30L5 30L5 31L4 31L4 29L3 29L3 31L2 31L2 30L1 30L1 32L3 32L3 31L4 31L4 32L5 32L5 33L4 33L4 35L5 35L5 34L7 34L7 33L6 33L6 32L7 32L7 31L8 31L8 33L10 33L10 31L8 31L8 30L7 30L7 29L8 29L8 28L9 28L9 30L11 30L11 31L12 31L12 30L11 30L11 28L13 28L13 31L14 31L14 35L15 35L15 38L14 38L14 37L12 37L12 39L11 39L11 40L10 40L10 41L11 41L11 43L12 43L12 44L11 44L11 45L12 45L12 46L13 46L13 47L14 47L14 46L15 46L15 47L16 47L16 44L17 44L17 45L19 45L19 43L20 43L20 42L21 42L21 41L19 41L19 37L20 37L20 36L21 36L21 37L22 37L22 39L23 39L23 38L26 38L26 40L27 40L27 37L28 37L28 38L29 38L29 39L30 39L30 38L31 38L31 39L32 39L32 41L34 41L34 42L36 42L36 40L37 40L37 38L36 38L36 37L35 37L35 39L34 39L34 38L33 38L33 35L32 35L32 37L31 37L31 34L32 34L32 33L30 33L30 32L28 32L28 31L30 31L30 30L31 30L31 29L29 29L29 28L30 28L30 27L33 27L33 28L32 28L32 29L34 29L34 28L36 28L36 29L38 29L38 30L39 30L39 29L40 29L40 30L41 30L41 29L44 29L44 31L45 31L45 34L43 34L43 31L42 31L42 33L41 33L41 34L42 34L42 36L43 36L43 38L44 38L44 37L45 37L45 34L48 34L48 32L46 32L46 29L44 29L44 28L41 28L41 29L40 29L40 28L39 28L39 27L38 27L38 26L40 26L40 24L39 24L39 23L38 23L38 22L37 22L37 21L38 21L38 20L37 20L37 19L35 19L35 18L32 18L32 15L33 15L33 14L32 14L32 13L33 13L33 11L32 11L32 10L30 10L30 13L29 13L29 15L28 15L28 16L29 16L29 15L30 15L30 14L31 14L31 16L30 16L30 17L29 17L29 18L28 18L28 17L27 17L27 15L26 15L26 16L24 16L24 15L25 15L25 14L24 14L24 15L23 15L23 11L24 11L24 12L25 12L25 13L26 13L26 14L28 14L28 13L26 13L26 12L27 12L27 11L26 11L26 10L28 10L28 11L29 11L29 10L28 10L28 9L24 9L24 10L23 10L23 9L20 9L20 8L17 8L17 7L18 7L18 6L19 6L19 7L20 7L20 6L19 6L19 4L18 4L18 6L17 6L17 7L16 7L16 6L15 6L15 5L17 5L17 3L15 3L15 5L14 5L14 4L13 4L13 3ZM25 3L25 4L26 4L26 3ZM12 4L12 5L13 5L13 4ZM23 5L23 8L26 8L26 5ZM14 6L14 7L15 7L15 6ZM24 6L24 7L25 7L25 6ZM27 6L27 7L28 7L28 6ZM36 6L36 7L37 7L37 6ZM16 8L16 9L15 9L15 10L14 10L14 11L15 11L15 13L13 13L13 14L17 14L17 15L16 15L16 16L15 16L15 15L14 15L14 16L15 16L15 17L16 17L16 18L17 18L17 17L16 17L16 16L18 16L18 13L16 13L16 12L17 12L17 11L18 11L18 10L20 10L20 9L17 9L17 8ZM44 8L44 9L47 9L47 8ZM48 8L48 10L46 10L46 13L47 13L47 11L48 11L48 13L49 13L49 11L48 11L48 10L49 10L49 8ZM3 9L3 10L4 10L4 9ZM16 9L16 10L17 10L17 9ZM1 10L1 12L2 12L2 13L1 13L1 14L2 14L2 13L3 13L3 12L2 12L2 10ZM22 10L22 11L21 11L21 13L22 13L22 11L23 11L23 10ZM44 10L44 12L43 12L43 13L45 13L45 10ZM12 11L12 12L13 12L13 11ZM31 11L31 13L32 13L32 11ZM6 12L6 13L7 13L7 12ZM41 14L41 15L42 15L42 14ZM48 14L48 15L49 15L49 14ZM10 16L10 18L11 18L11 16ZM30 17L30 18L29 18L29 19L32 19L32 20L34 20L34 19L32 19L32 18L31 18L31 17ZM6 18L6 19L5 19L5 20L6 20L6 19L7 19L7 18ZM38 18L38 19L39 19L39 18ZM21 19L21 20L24 20L24 22L25 22L25 19ZM35 20L35 22L34 22L34 21L32 21L32 23L33 23L33 24L34 24L34 25L33 25L33 26L34 26L34 27L35 27L35 26L36 26L36 25L35 25L35 23L36 23L36 24L37 24L37 23L36 23L36 20ZM11 21L11 23L12 23L12 21ZM22 21L22 22L23 22L23 21ZM26 21L26 22L27 22L27 21ZM48 21L48 22L49 22L49 21ZM17 22L17 23L16 23L16 24L15 24L15 25L14 25L14 26L13 26L13 25L12 25L12 24L10 24L10 25L11 25L11 27L12 27L12 26L13 26L13 28L14 28L14 29L15 29L15 28L16 28L16 27L15 27L15 28L14 28L14 26L15 26L15 25L16 25L16 24L17 24L17 23L18 23L18 22ZM19 22L19 23L20 23L20 22ZM33 22L33 23L34 23L34 22ZM5 23L5 26L8 26L8 23ZM23 23L23 26L26 26L26 23ZM41 23L41 26L44 26L44 23ZM6 24L6 25L7 25L7 24ZM24 24L24 25L25 25L25 24ZM38 24L38 25L37 25L37 26L38 26L38 25L39 25L39 24ZM42 24L42 25L43 25L43 24ZM34 25L34 26L35 26L35 25ZM37 27L37 28L38 28L38 27ZM6 30L6 31L5 31L5 32L6 32L6 31L7 31L7 30ZM26 31L26 32L25 32L25 33L24 33L24 32L23 32L23 33L24 33L24 35L23 35L23 36L22 36L22 37L23 37L23 36L24 36L24 37L26 37L26 36L27 36L27 35L28 35L28 34L30 34L30 33L28 33L28 34L27 34L27 35L25 35L25 33L26 33L26 32L27 32L27 31ZM11 32L11 34L10 34L10 35L11 35L11 36L13 36L13 35L12 35L12 34L13 34L13 32ZM15 33L15 35L16 35L16 36L17 36L17 38L15 38L15 39L14 39L14 38L13 38L13 39L12 39L12 40L11 40L11 41L12 41L12 40L13 40L13 42L15 42L15 43L13 43L13 46L14 46L14 44L16 44L16 43L17 43L17 42L18 42L18 43L19 43L19 42L18 42L18 40L17 40L17 41L16 41L16 39L18 39L18 36L20 36L20 35L19 35L19 33L18 33L18 36L17 36L17 33ZM21 33L21 35L22 35L22 33ZM24 35L24 36L25 36L25 35ZM29 35L29 37L30 37L30 35ZM1 36L1 38L2 38L2 36ZM8 37L8 38L9 38L9 37ZM20 39L20 40L21 40L21 39ZM28 40L28 41L29 41L29 42L30 42L30 41L29 41L29 40ZM23 41L23 44L26 44L26 41ZM41 41L41 44L44 44L44 41ZM45 41L45 42L46 42L46 41ZM24 42L24 43L25 43L25 42ZM42 42L42 43L43 43L43 42ZM39 44L39 45L40 45L40 44ZM21 45L21 46L22 46L22 45ZM26 45L26 46L27 46L27 45ZM46 45L46 46L47 46L47 45ZM42 47L42 48L43 48L43 47ZM38 48L38 49L39 49L39 48ZM0 0L0 7L7 7L7 0ZM1 1L1 6L6 6L6 1ZM2 2L2 5L5 5L5 2ZM42 0L42 7L49 7L49 0ZM43 1L43 6L48 6L48 1ZM44 2L44 5L47 5L47 2ZM0 42L0 49L7 49L7 42ZM1 43L1 48L6 48L6 43ZM2 44L2 47L5 47L5 44Z" fill="#000000"/></g></g></svg>
