<?xml version="1.0" encoding="UTF-8"?>
<svg xmlns="http://www.w3.org/2000/svg" version="1.1" width="300" height="300" viewBox="0 0 300 300"><rect x="0" y="0" width="300" height="300" fill="#ffffff"/><g transform="scale(5.66)"><g transform="translate(0,0)"><path fill-rule="evenodd" d="M8 0L8 1L10 1L10 2L9 2L9 4L10 4L10 5L9 5L9 6L8 6L8 8L9 8L9 6L10 6L10 7L11 7L11 5L13 5L13 6L12 6L12 8L10 8L10 9L9 9L9 11L8 11L8 9L7 9L7 8L6 8L6 9L5 9L5 8L3 8L3 9L4 9L4 10L5 10L5 11L4 11L4 12L3 12L3 10L2 10L2 8L0 8L0 11L1 11L1 12L3 12L3 15L2 15L2 13L1 13L1 14L0 14L0 16L1 16L1 18L0 18L0 19L1 19L1 18L2 18L2 19L3 19L3 20L6 20L6 21L7 21L7 22L5 22L5 24L4 24L4 28L3 28L3 24L2 24L2 23L3 23L3 22L4 22L4 21L3 21L3 22L2 22L2 21L1 21L1 20L0 20L0 23L1 23L1 24L0 24L0 25L1 25L1 28L0 28L0 30L1 30L1 29L2 29L2 31L4 31L4 32L3 32L3 33L5 33L5 35L3 35L3 34L2 34L2 32L1 32L1 31L0 31L0 33L1 33L1 35L0 35L0 36L1 36L1 35L3 35L3 36L2 36L2 37L1 37L1 38L0 38L0 40L1 40L1 41L0 41L0 43L1 43L1 44L3 44L3 45L4 45L4 44L3 44L3 43L7 43L7 42L3 42L3 41L2 41L2 40L1 40L1 39L3 39L3 40L4 40L4 41L7 41L7 40L8 40L8 39L9 39L9 41L8 41L8 42L9 42L9 43L8 43L8 46L9 46L9 45L10 45L10 44L11 44L11 45L13 45L13 46L14 46L14 47L15 47L15 48L16 48L16 49L14 49L14 50L13 50L13 47L12 47L12 46L11 46L11 47L9 47L9 48L8 48L8 50L9 50L9 51L8 51L8 53L10 53L10 51L14 51L14 53L16 53L16 52L17 52L17 53L19 53L19 52L20 52L20 53L21 53L21 48L22 48L22 49L23 49L23 48L22 48L22 47L21 47L21 48L20 48L20 47L19 47L19 46L21 46L21 45L22 45L22 46L23 46L23 47L24 47L24 50L22 50L22 51L24 51L24 53L26 53L26 52L27 52L27 53L28 53L28 52L27 52L27 51L29 51L29 53L30 53L30 52L31 52L31 53L32 53L32 52L33 52L33 53L35 53L35 51L36 51L36 53L37 53L37 52L38 52L38 53L40 53L40 52L41 52L41 53L42 53L42 52L43 52L43 53L45 53L45 52L46 52L46 53L47 53L47 52L46 52L46 49L49 49L49 51L50 51L50 53L51 53L51 52L52 52L52 51L53 51L53 50L52 50L52 49L53 49L53 48L52 48L52 47L53 47L53 45L52 45L52 44L53 44L53 41L52 41L52 40L51 40L51 39L53 39L53 38L51 38L51 36L53 36L53 34L52 34L52 33L53 33L53 32L52 32L52 33L50 33L50 32L51 32L51 31L53 31L53 29L51 29L51 28L53 28L53 26L52 26L52 27L51 27L51 24L50 24L50 23L49 23L49 24L47 24L47 20L46 20L46 19L47 19L47 17L49 17L49 18L48 18L48 19L50 19L50 16L47 16L47 14L45 14L45 13L46 13L46 12L47 12L47 13L49 13L49 12L50 12L50 14L49 14L49 15L51 15L51 12L50 12L50 11L49 11L49 10L51 10L51 11L52 11L52 9L53 9L53 8L52 8L52 9L49 9L49 10L48 10L48 11L46 11L46 12L44 12L44 10L46 10L46 9L47 9L47 8L46 8L46 9L44 9L44 8L45 8L45 6L44 6L44 8L43 8L43 3L44 3L44 4L45 4L45 3L44 3L44 1L43 1L43 0L42 0L42 2L43 2L43 3L42 3L42 7L41 7L41 4L40 4L40 3L39 3L39 5L38 5L38 4L37 4L37 3L36 3L36 2L39 2L39 1L40 1L40 0L37 0L37 1L36 1L36 2L35 2L35 1L34 1L34 0L33 0L33 1L32 1L32 0L31 0L31 1L30 1L30 2L29 2L29 3L28 3L28 2L27 2L27 1L29 1L29 0L26 0L26 2L27 2L27 3L26 3L26 4L25 4L25 2L24 2L24 1L25 1L25 0L23 0L23 2L24 2L24 3L23 3L23 4L21 4L21 3L20 3L20 5L18 5L18 7L19 7L19 6L20 6L20 8L19 8L19 9L20 9L20 10L21 10L21 11L22 11L22 10L21 10L21 9L20 9L20 8L21 8L21 6L22 6L22 9L23 9L23 10L25 10L25 11L24 11L24 13L23 13L23 12L21 12L21 13L19 13L19 12L16 12L16 11L17 11L17 10L18 10L18 11L19 11L19 10L18 10L18 8L14 8L14 7L15 7L15 5L16 5L16 4L18 4L18 3L17 3L17 2L21 2L21 1L22 1L22 0L19 0L19 1L17 1L17 0L14 0L14 2L13 2L13 3L12 3L12 1L11 1L11 0ZM16 1L16 2L17 2L17 1ZM33 1L33 3L32 3L32 2L31 2L31 3L29 3L29 10L28 10L28 9L27 9L27 10L28 10L28 11L25 11L25 12L29 12L29 13L27 13L27 14L26 14L26 13L25 13L25 14L26 14L26 15L25 15L25 16L23 16L23 17L22 17L22 18L20 18L20 17L21 17L21 16L22 16L22 14L23 14L23 13L21 13L21 16L19 16L19 15L20 15L20 14L19 14L19 13L16 13L16 12L14 12L14 11L12 11L12 10L14 10L14 8L13 8L13 9L12 9L12 10L11 10L11 12L13 12L13 13L11 13L11 15L9 15L9 14L10 14L10 13L8 13L8 11L5 11L5 12L7 12L7 13L6 13L6 14L7 14L7 13L8 13L8 15L6 15L6 16L7 16L7 17L5 17L5 16L3 16L3 17L2 17L2 18L3 18L3 19L6 19L6 20L9 20L9 22L7 22L7 23L6 23L6 24L8 24L8 23L9 23L9 22L10 22L10 21L15 21L15 22L14 22L14 23L13 23L13 24L12 24L12 23L10 23L10 25L9 25L9 26L10 26L10 25L12 25L12 26L11 26L11 27L10 27L10 28L9 28L9 30L7 30L7 29L4 29L4 31L5 31L5 32L7 32L7 33L6 33L6 34L7 34L7 35L5 35L5 38L7 38L7 39L4 39L4 40L7 40L7 39L8 39L8 37L9 37L9 36L8 36L8 37L6 37L6 36L7 36L7 35L9 35L9 34L10 34L10 35L11 35L11 36L12 36L12 39L11 39L11 38L10 38L10 39L11 39L11 40L10 40L10 41L9 41L9 42L10 42L10 43L9 43L9 44L10 44L10 43L13 43L13 42L14 42L14 43L15 43L15 39L14 39L14 37L13 37L13 36L14 36L14 35L12 35L12 34L11 34L11 32L9 32L9 30L12 30L12 31L13 31L13 32L14 32L14 33L15 33L15 34L16 34L16 35L15 35L15 38L16 38L16 39L17 39L17 38L19 38L19 39L18 39L18 40L19 40L19 41L18 41L18 42L19 42L19 43L17 43L17 42L16 42L16 45L15 45L15 44L14 44L14 46L15 46L15 47L16 47L16 45L17 45L17 47L18 47L18 48L17 48L17 49L16 49L16 51L17 51L17 49L20 49L20 48L19 48L19 47L18 47L18 44L19 44L19 45L21 45L21 44L20 44L20 43L22 43L22 42L23 42L23 40L24 40L24 41L26 41L26 40L25 40L25 39L28 39L28 38L29 38L29 37L31 37L31 36L32 36L32 37L33 37L33 38L32 38L32 39L33 39L33 38L35 38L35 40L36 40L36 41L37 41L37 42L38 42L38 43L34 43L34 42L33 42L33 43L34 43L34 44L35 44L35 45L36 45L36 46L39 46L39 47L38 47L38 49L36 49L36 50L37 50L37 51L39 51L39 52L40 52L40 50L38 50L38 49L39 49L39 48L42 48L42 49L41 49L41 50L42 50L42 49L43 49L43 50L44 50L44 51L43 51L43 52L45 52L45 50L44 50L44 49L43 49L43 48L42 48L42 47L43 47L43 46L44 46L44 44L46 44L46 43L43 43L43 44L42 44L42 42L43 42L43 41L45 41L45 42L47 42L47 41L50 41L50 45L51 45L51 44L52 44L52 41L50 41L50 39L49 39L49 38L46 38L46 36L45 36L45 35L44 35L44 33L45 33L45 34L46 34L46 35L47 35L47 34L48 34L48 33L49 33L49 32L50 32L50 31L51 31L51 29L50 29L50 28L51 28L51 27L50 27L50 28L49 28L49 29L46 29L46 30L45 30L45 32L44 32L44 31L43 31L43 30L44 30L44 28L42 28L42 29L41 29L41 27L44 27L44 26L43 26L43 25L44 25L44 24L45 24L45 23L44 23L44 24L41 24L41 27L40 27L40 29L39 29L39 28L38 28L38 27L39 27L39 26L40 26L40 25L39 25L39 24L40 24L40 23L42 23L42 22L44 22L44 19L46 19L46 17L43 17L43 16L42 16L42 18L44 18L44 19L43 19L43 20L41 20L41 19L40 19L40 18L41 18L41 15L42 15L42 14L41 14L41 15L40 15L40 13L43 13L43 14L44 14L44 12L42 12L42 11L43 11L43 10L42 10L42 9L43 9L43 8L41 8L41 9L40 9L40 10L38 10L38 9L39 9L39 8L38 8L38 5L37 5L37 8L38 8L38 9L35 9L35 7L36 7L36 3L34 3L34 1ZM14 2L14 4L16 4L16 3L15 3L15 2ZM10 3L10 4L12 4L12 3ZM27 3L27 4L28 4L28 3ZM23 4L23 8L24 8L24 4ZM30 4L30 8L31 8L31 9L30 9L30 10L29 10L29 11L30 11L30 12L31 12L31 13L29 13L29 14L27 14L27 16L25 16L25 17L24 17L24 19L27 19L27 21L24 21L24 20L23 20L23 18L22 18L22 20L21 20L21 19L19 19L19 18L18 18L18 17L16 17L16 19L17 19L17 21L16 21L16 22L15 22L15 23L14 23L14 24L15 24L15 25L13 25L13 26L15 26L15 30L13 30L13 29L14 29L14 28L13 28L13 27L11 27L11 28L12 28L12 30L13 30L13 31L14 31L14 32L15 32L15 33L16 33L16 34L18 34L18 35L16 35L16 38L17 38L17 36L18 36L18 37L19 37L19 38L20 38L20 39L19 39L19 40L20 40L20 41L19 41L19 42L20 42L20 41L21 41L21 42L22 42L22 40L23 40L23 39L24 39L24 38L25 38L25 36L23 36L23 38L22 38L22 37L21 37L21 36L20 36L20 34L21 34L21 33L22 33L22 32L21 32L21 31L23 31L23 32L24 32L24 33L27 33L27 34L26 34L26 36L27 36L27 35L30 35L30 36L31 36L31 35L32 35L32 36L33 36L33 37L34 37L34 36L35 36L35 37L37 37L37 38L36 38L36 39L37 39L37 41L38 41L38 40L40 40L40 41L43 41L43 39L44 39L44 38L45 38L45 40L49 40L49 39L46 39L46 38L45 38L45 36L44 36L44 35L43 35L43 33L42 33L42 34L41 34L41 35L39 35L39 36L40 36L40 39L38 39L38 36L37 36L37 35L38 35L38 33L41 33L41 30L40 30L40 31L39 31L39 30L37 30L37 28L35 28L35 27L37 27L37 26L34 26L34 24L35 24L35 25L38 25L38 23L37 23L37 22L35 22L35 21L33 21L33 20L34 20L34 19L35 19L35 20L37 20L37 21L38 21L38 22L40 22L40 21L41 21L41 20L40 20L40 21L38 21L38 20L39 20L39 19L38 19L38 20L37 20L37 18L40 18L40 17L37 17L37 16L39 16L39 15L38 15L38 14L39 14L39 13L40 13L40 12L41 12L41 11L39 11L39 13L38 13L38 12L37 12L37 13L36 13L36 11L38 11L38 10L36 10L36 11L34 11L34 10L35 10L35 9L34 9L34 8L33 8L33 6L34 6L34 7L35 7L35 5L33 5L33 6L32 6L32 5L31 5L31 4ZM25 5L25 8L28 8L28 5ZM13 6L13 7L14 7L14 6ZM16 6L16 7L17 7L17 6ZM26 6L26 7L27 7L27 6ZM31 6L31 8L32 8L32 10L31 10L31 11L32 11L32 10L34 10L34 9L33 9L33 8L32 8L32 6ZM39 6L39 7L40 7L40 6ZM6 9L6 10L7 10L7 9ZM16 9L16 10L17 10L17 9ZM1 10L1 11L2 11L2 10ZM34 12L34 13L32 13L32 14L31 14L31 16L30 16L30 14L29 14L29 15L28 15L28 17L26 17L26 18L28 18L28 19L29 19L29 22L28 22L28 21L27 21L27 22L28 22L28 24L29 24L29 27L30 27L30 25L31 25L31 24L33 24L33 23L31 23L31 24L29 24L29 22L30 22L30 21L31 21L31 22L33 22L33 21L31 21L31 20L32 20L32 19L31 19L31 18L30 18L30 19L29 19L29 17L32 17L32 16L33 16L33 15L34 15L34 14L35 14L35 16L34 16L34 17L35 17L35 19L36 19L36 18L37 18L37 17L36 17L36 13L35 13L35 12ZM52 12L52 13L53 13L53 12ZM4 13L4 15L5 15L5 13ZM15 13L15 15L14 15L14 14L12 14L12 15L11 15L11 16L9 16L9 18L8 18L8 19L9 19L9 20L10 20L10 19L11 19L11 20L12 20L12 19L13 19L13 18L14 18L14 19L15 19L15 18L14 18L14 17L15 17L15 16L17 16L17 15L19 15L19 14L17 14L17 15L16 15L16 13ZM52 14L52 15L53 15L53 14ZM1 15L1 16L2 16L2 15ZM13 16L13 17L12 17L12 18L13 18L13 17L14 17L14 16ZM3 17L3 18L4 18L4 17ZM51 17L51 19L52 19L52 21L53 21L53 19L52 19L52 18L53 18L53 17ZM6 18L6 19L7 19L7 18ZM17 18L17 19L18 19L18 20L19 20L19 19L18 19L18 18ZM30 19L30 20L31 20L31 19ZM20 20L20 21L19 21L19 23L18 23L18 21L17 21L17 23L18 23L18 24L17 24L17 26L16 26L16 28L18 28L18 29L16 29L16 32L17 32L17 33L21 33L21 32L20 32L20 31L21 31L21 29L22 29L22 30L23 30L23 31L24 31L24 32L25 32L25 31L24 31L24 30L28 30L28 31L27 31L27 33L29 33L29 34L30 34L30 35L31 35L31 34L30 34L30 33L31 33L31 32L30 32L30 31L32 31L32 34L33 34L33 36L34 36L34 33L35 33L35 35L36 35L36 33L35 33L35 32L36 32L36 30L35 30L35 29L34 29L34 26L33 26L33 25L32 25L32 27L31 27L31 28L32 28L32 27L33 27L33 29L32 29L32 30L31 30L31 29L29 29L29 30L28 30L28 29L24 29L24 30L23 30L23 29L22 29L22 28L24 28L24 27L22 27L22 24L23 24L23 23L24 23L24 24L26 24L26 23L24 23L24 21L22 21L22 24L21 24L21 22L20 22L20 21L21 21L21 20ZM45 20L45 22L46 22L46 20ZM48 20L48 22L51 22L51 23L52 23L52 22L51 22L51 21L50 21L50 20ZM1 22L1 23L2 23L2 22ZM34 22L34 23L35 23L35 24L36 24L36 23L35 23L35 22ZM18 24L18 25L19 25L19 26L17 26L17 27L19 27L19 29L18 29L18 31L20 31L20 29L21 29L21 25L19 25L19 24ZM49 24L49 26L50 26L50 24ZM52 24L52 25L53 25L53 24ZM5 25L5 28L8 28L8 25ZM25 25L25 28L28 28L28 25ZM45 25L45 28L48 28L48 25ZM6 26L6 27L7 27L7 26ZM19 26L19 27L20 27L20 26ZM26 26L26 27L27 27L27 26ZM46 26L46 27L47 27L47 26ZM49 29L49 30L50 30L50 29ZM6 30L6 31L7 31L7 30ZM29 30L29 31L30 31L30 30ZM32 30L32 31L33 31L33 33L34 33L34 30ZM46 30L46 31L47 31L47 32L46 32L46 33L48 33L48 32L49 32L49 31L48 31L48 30ZM37 31L37 32L38 32L38 31ZM42 31L42 32L43 32L43 31ZM8 32L8 33L9 33L9 32ZM29 32L29 33L30 33L30 32ZM23 34L23 35L25 35L25 34ZM49 34L49 35L48 35L48 37L50 37L50 36L51 36L51 34ZM18 35L18 36L19 36L19 35ZM41 35L41 36L42 36L42 38L41 38L41 39L40 39L40 40L41 40L41 39L43 39L43 37L44 37L44 36L42 36L42 35ZM3 37L3 38L4 38L4 37ZM20 37L20 38L21 38L21 39L22 39L22 38L21 38L21 37ZM26 37L26 38L27 38L27 37ZM29 39L29 43L30 43L30 41L31 41L31 43L32 43L32 41L31 41L31 40L30 40L30 39ZM12 40L12 41L14 41L14 40ZM16 40L16 41L17 41L17 40ZM1 41L1 42L2 42L2 43L3 43L3 42L2 42L2 41ZM25 42L25 43L24 43L24 44L23 44L23 45L24 45L24 44L25 44L25 43L26 43L26 44L28 44L28 43L26 43L26 42ZM40 42L40 43L38 43L38 44L37 44L37 45L38 45L38 44L39 44L39 46L41 46L41 47L42 47L42 46L41 46L41 45L42 45L42 44L41 44L41 42ZM48 43L48 44L49 44L49 43ZM6 44L6 45L7 45L7 44ZM29 44L29 45L30 45L30 46L29 46L29 47L30 47L30 46L31 46L31 48L30 48L30 49L29 49L29 51L30 51L30 49L31 49L31 48L32 48L32 46L34 46L34 45L33 45L33 44ZM25 45L25 48L28 48L28 45ZM31 45L31 46L32 46L32 45ZM45 45L45 48L48 48L48 45ZM26 46L26 47L27 47L27 46ZM46 46L46 47L47 47L47 46ZM49 46L49 49L50 49L50 46ZM11 47L11 48L10 48L10 49L11 49L11 50L12 50L12 47ZM35 47L35 48L34 48L34 49L35 49L35 48L37 48L37 47ZM51 48L51 49L52 49L52 48ZM25 49L25 50L26 50L26 51L27 51L27 49ZM32 49L32 50L31 50L31 51L33 51L33 52L34 52L34 50L33 50L33 49ZM14 50L14 51L15 51L15 50ZM47 50L47 51L48 51L48 50ZM18 51L18 52L19 52L19 51ZM41 51L41 52L42 52L42 51ZM11 52L11 53L12 53L12 52ZM22 52L22 53L23 53L23 52ZM48 52L48 53L49 53L49 52ZM0 0L0 7L7 7L7 0ZM1 1L1 6L6 6L6 1ZM2 2L2 5L5 5L5 2ZM46 0L46 7L53 7L53 0ZM47 1L47 6L52 6L52 1ZM48 2L48 5L51 5L51 2ZM0 46L0 53L7 53L7 46ZM1 47L1 52L6 52L6 47ZM2 48L2 51L5 51L5 48Z" fill="#000000"/></g></g></svg>
