<?xml version="1.0" encoding="UTF-8"?>
<svg xmlns="http://www.w3.org/2000/svg" version="1.1" width="300" height="300" viewBox="0 0 300 300"><rect x="0" y="0" width="300" height="300" fill="#ffffff"/><g transform="scale(5.66)"><g transform="translate(0,0)"><path fill-rule="evenodd" d="M9 0L9 1L8 1L8 2L9 2L9 3L8 3L8 4L9 4L9 5L8 5L8 7L9 7L9 8L6 8L6 9L7 9L7 10L5 10L5 8L0 8L0 10L1 10L1 13L0 13L0 14L1 14L1 16L0 16L0 17L1 17L1 18L4 18L4 17L7 17L7 18L6 18L6 19L5 19L5 20L6 20L6 21L4 21L4 22L2 22L2 21L3 21L3 20L2 20L2 19L1 19L1 20L0 20L0 21L1 21L1 23L0 23L0 24L1 24L1 26L0 26L0 28L2 28L2 27L1 27L1 26L3 26L3 27L4 27L4 28L3 28L3 30L0 30L0 31L1 31L1 32L0 32L0 33L1 33L1 34L0 34L0 39L1 39L1 38L3 38L3 39L4 39L4 38L6 38L6 39L5 39L5 40L3 40L3 41L2 41L2 40L1 40L1 41L0 41L0 43L1 43L1 44L3 44L3 45L4 45L4 44L3 44L3 43L7 43L7 44L6 44L6 45L7 45L7 44L8 44L8 47L10 47L10 49L11 49L11 50L12 50L12 51L11 51L11 52L10 52L10 50L9 50L9 48L8 48L8 53L9 53L9 52L10 52L10 53L16 53L16 51L13 51L13 50L12 50L12 48L13 48L13 49L14 49L14 48L15 48L15 47L16 47L16 45L17 45L17 47L18 47L18 46L20 46L20 47L19 47L19 48L20 48L20 47L22 47L22 44L24 44L24 45L23 45L23 46L24 46L24 48L23 48L23 49L25 49L25 50L23 50L23 51L24 51L24 52L22 52L22 51L21 51L21 49L22 49L22 48L21 48L21 49L18 49L18 48L17 48L17 49L18 49L18 51L19 51L19 52L18 52L18 53L20 53L20 52L22 52L22 53L25 53L25 52L26 52L26 53L28 53L28 52L26 52L26 51L28 51L28 50L29 50L29 49L30 49L30 48L31 48L31 47L32 47L32 48L33 48L33 49L31 49L31 51L29 51L29 52L33 52L33 53L34 53L34 52L33 52L33 51L32 51L32 50L33 50L33 49L36 49L36 50L35 50L35 51L36 51L36 53L37 53L37 46L38 46L38 45L40 45L40 46L39 46L39 48L40 48L40 49L38 49L38 51L39 51L39 52L38 52L38 53L39 53L39 52L40 52L40 51L39 51L39 50L41 50L41 53L42 53L42 52L43 52L43 49L42 49L42 50L41 50L41 48L44 48L44 49L49 49L49 50L50 50L50 51L49 51L49 52L47 52L47 51L48 51L48 50L44 50L44 52L45 52L45 51L46 51L46 53L50 53L50 51L52 51L52 52L53 52L53 51L52 51L52 50L50 50L50 48L51 48L51 47L52 47L52 46L53 46L53 43L51 43L51 44L49 44L49 43L50 43L50 41L48 41L48 40L49 40L49 39L47 39L47 38L49 38L49 37L45 37L45 38L44 38L44 39L47 39L47 41L46 41L46 40L45 40L45 41L44 41L44 40L43 40L43 37L44 37L44 35L43 35L43 33L42 33L42 35L41 35L41 36L43 36L43 37L40 37L40 34L41 34L41 33L40 33L40 30L41 30L41 31L42 31L42 32L43 32L43 31L42 31L42 30L43 30L43 28L44 28L44 30L45 30L45 29L46 29L46 30L48 30L48 29L49 29L49 31L47 31L47 32L48 32L48 33L46 33L46 31L44 31L44 32L45 32L45 33L44 33L44 34L45 34L45 35L46 35L46 34L47 34L47 36L49 36L49 35L48 35L48 34L49 34L49 32L50 32L50 31L51 31L51 32L53 32L53 31L52 31L52 30L53 30L53 29L52 29L52 30L50 30L50 29L51 29L51 26L52 26L52 25L51 25L51 26L49 26L49 25L50 25L50 23L51 23L51 22L52 22L52 21L51 21L51 20L53 20L53 18L50 18L50 17L51 17L51 16L53 16L53 14L50 14L50 13L51 13L51 12L53 12L53 11L52 11L52 10L53 10L53 9L52 9L52 8L51 8L51 9L52 9L52 10L50 10L50 8L49 8L49 10L47 10L47 9L48 9L48 8L47 8L47 9L46 9L46 8L45 8L45 9L46 9L46 10L47 10L47 12L45 12L45 13L46 13L46 14L44 14L44 15L49 15L49 14L50 14L50 16L48 16L48 17L47 17L47 16L45 16L45 18L44 18L44 19L43 19L43 18L42 18L42 21L43 21L43 20L44 20L44 22L43 22L43 23L42 23L42 24L41 24L41 23L40 23L40 22L41 22L41 20L40 20L40 21L39 21L39 20L38 20L38 18L39 18L39 17L40 17L40 18L41 18L41 17L40 17L40 16L43 16L43 17L44 17L44 16L43 16L43 14L41 14L41 13L40 13L40 12L38 12L38 10L36 10L36 11L35 11L35 12L34 12L34 11L33 11L33 13L32 13L32 11L31 11L31 9L30 9L30 8L31 8L31 6L30 6L30 8L29 8L29 4L30 4L30 5L33 5L33 6L32 6L32 7L33 7L33 6L34 6L34 7L35 7L35 6L36 6L36 9L37 9L37 8L38 8L38 9L39 9L39 11L40 11L40 10L41 10L41 11L42 11L42 12L44 12L44 11L45 11L45 10L44 10L44 9L42 9L42 10L41 10L41 9L40 9L40 7L41 7L41 8L43 8L43 3L44 3L44 4L45 4L45 3L44 3L44 1L43 1L43 0L41 0L41 2L39 2L39 0L38 0L38 2L37 2L37 0L36 0L36 1L35 1L35 2L37 2L37 3L36 3L36 4L35 4L35 3L34 3L34 1L33 1L33 0L30 0L30 1L33 1L33 3L32 3L32 2L29 2L29 1L28 1L28 2L27 2L27 1L26 1L26 2L27 2L27 3L28 3L28 2L29 2L29 4L25 4L25 0L24 0L24 8L23 8L23 4L22 4L22 3L23 3L23 2L22 2L22 3L21 3L21 1L22 1L22 0L18 0L18 1L17 1L17 2L19 2L19 3L17 3L17 4L16 4L16 2L14 2L14 0L13 0L13 1L12 1L12 0ZM15 0L15 1L16 1L16 0ZM11 1L11 4L12 4L12 1ZM19 1L19 2L20 2L20 1ZM13 2L13 4L14 4L14 5L16 5L16 4L15 4L15 3L14 3L14 2ZM38 2L38 5L37 5L37 4L36 4L36 5L37 5L37 7L38 7L38 8L39 8L39 7L40 7L40 6L41 6L41 7L42 7L42 6L41 6L41 5L42 5L42 3L43 3L43 2L41 2L41 4L40 4L40 6L39 6L39 2ZM9 3L9 4L10 4L10 3ZM20 3L20 5L19 5L19 7L20 7L20 9L19 9L19 10L20 10L20 11L18 11L18 10L17 10L17 13L16 13L16 14L18 14L18 15L15 15L15 14L14 14L14 13L13 13L13 14L12 14L12 13L11 13L11 12L10 12L10 13L6 13L6 14L7 14L7 15L5 15L5 14L4 14L4 16L3 16L3 14L2 14L2 16L1 16L1 17L4 17L4 16L8 16L8 17L10 17L10 18L9 18L9 19L8 19L8 21L6 21L6 22L5 22L5 24L9 24L9 26L11 26L11 27L12 27L12 29L11 29L11 28L10 28L10 32L8 32L8 33L6 33L6 32L7 32L7 31L9 31L9 30L8 30L8 29L6 29L6 30L5 30L5 31L4 31L4 30L3 30L3 31L4 31L4 32L3 32L3 34L1 34L1 36L2 36L2 37L3 37L3 38L4 38L4 37L3 37L3 35L4 35L4 36L7 36L7 37L6 37L6 38L8 38L8 39L6 39L6 40L8 40L8 39L12 39L12 40L14 40L14 39L13 39L13 38L14 38L14 36L15 36L15 37L16 37L16 38L17 38L17 39L15 39L15 40L16 40L16 41L13 41L13 43L12 43L12 42L11 42L11 46L12 46L12 47L13 47L13 48L14 48L14 47L15 47L15 45L16 45L16 43L15 43L15 42L16 42L16 41L18 41L18 40L17 40L17 39L18 39L18 37L17 37L17 36L19 36L19 39L20 39L20 41L19 41L19 42L20 42L20 43L17 43L17 44L21 44L21 41L22 41L22 43L23 43L23 42L24 42L24 41L26 41L26 43L24 43L24 44L26 44L26 43L27 43L27 42L28 42L28 44L29 44L29 41L28 41L28 40L30 40L30 41L31 41L31 42L30 42L30 43L33 43L33 42L32 42L32 41L33 41L33 40L35 40L35 41L34 41L34 42L37 42L37 41L38 41L38 44L39 44L39 43L41 43L41 42L39 42L39 41L38 41L38 40L41 40L41 41L42 41L42 42L43 42L43 43L45 43L45 42L44 42L44 41L42 41L42 40L41 40L41 38L40 38L40 39L39 39L39 37L38 37L38 36L39 36L39 34L38 34L38 32L39 32L39 31L38 31L38 32L37 32L37 33L36 33L36 34L38 34L38 36L37 36L37 37L36 37L36 38L37 38L37 37L38 37L38 40L37 40L37 41L36 41L36 40L35 40L35 38L34 38L34 39L33 39L33 38L30 38L30 37L28 37L28 36L29 36L29 35L30 35L30 33L33 33L33 34L31 34L31 37L35 37L35 34L34 34L34 33L33 33L33 32L36 32L36 31L35 31L35 30L38 30L38 28L40 28L40 29L39 29L39 30L40 30L40 29L41 29L41 30L42 30L42 29L41 29L41 27L43 27L43 26L44 26L44 25L43 25L43 24L47 24L47 22L49 22L49 23L48 23L48 24L49 24L49 23L50 23L50 22L51 22L51 21L50 21L50 20L47 20L47 17L46 17L46 18L45 18L45 19L44 19L44 20L45 20L45 19L46 19L46 20L47 20L47 21L46 21L46 23L43 23L43 24L42 24L42 25L41 25L41 24L39 24L39 23L38 23L38 24L37 24L37 25L33 25L33 24L35 24L35 22L39 22L39 21L38 21L38 20L37 20L37 19L36 19L36 18L37 18L37 17L38 17L38 16L40 16L40 15L41 15L41 14L40 14L40 13L39 13L39 14L38 14L38 12L37 12L37 13L34 13L34 15L33 15L33 14L32 14L32 15L31 15L31 16L30 16L30 14L31 14L31 13L30 13L30 12L28 12L28 11L27 11L27 9L25 9L25 12L22 12L22 11L24 11L24 9L22 9L22 8L21 8L21 7L22 7L22 4L21 4L21 3ZM31 3L31 4L32 4L32 3ZM33 3L33 4L34 4L34 3ZM17 4L17 7L16 7L16 6L15 6L15 8L16 8L16 9L13 9L13 10L14 10L14 11L13 11L13 12L14 12L14 11L15 11L15 12L16 12L16 11L15 11L15 10L16 10L16 9L18 9L18 8L17 8L17 7L18 7L18 4ZM10 5L10 6L9 6L9 7L10 7L10 8L9 8L9 10L10 10L10 9L11 9L11 11L12 11L12 9L11 9L11 7L12 7L12 6L13 6L13 8L14 8L14 6L13 6L13 5L12 5L12 6L11 6L11 5ZM20 5L20 7L21 7L21 5ZM25 5L25 8L28 8L28 5ZM10 6L10 7L11 7L11 6ZM26 6L26 7L27 7L27 6ZM38 6L38 7L39 7L39 6ZM44 6L44 7L45 7L45 6ZM33 8L33 9L32 9L32 10L33 10L33 9L35 9L35 8ZM1 9L1 10L2 10L2 11L3 11L3 12L2 12L2 13L3 13L3 12L4 12L4 13L5 13L5 12L7 12L7 11L4 11L4 9ZM21 9L21 10L22 10L22 9ZM29 9L29 11L30 11L30 9ZM42 10L42 11L43 11L43 10ZM49 10L49 11L48 11L48 13L47 13L47 14L49 14L49 11L50 11L50 10ZM8 11L8 12L9 12L9 11ZM26 11L26 13L23 13L23 14L26 14L26 13L27 13L27 15L28 15L28 12L27 12L27 11ZM18 12L18 14L20 14L20 15L19 15L19 16L20 16L20 15L22 15L22 13L20 13L20 12ZM10 13L10 14L8 14L8 16L10 16L10 17L13 17L13 19L12 19L12 20L13 20L13 19L14 19L14 20L16 20L16 19L14 19L14 17L13 17L13 16L14 16L14 15L10 15L10 14L11 14L11 13ZM29 13L29 14L30 14L30 13ZM35 14L35 15L37 15L37 16L38 16L38 14ZM39 14L39 15L40 15L40 14ZM17 16L17 17L18 17L18 18L17 18L17 21L19 21L19 22L18 22L18 23L17 23L17 22L16 22L16 21L11 21L11 22L13 22L13 23L14 23L14 24L13 24L13 25L16 25L16 26L15 26L15 27L14 27L14 26L13 26L13 27L14 27L14 28L15 28L15 27L16 27L16 29L15 29L15 30L16 30L16 31L18 31L18 30L19 30L19 29L20 29L20 28L18 28L18 30L16 30L16 29L17 29L17 26L18 26L18 27L20 27L20 26L19 26L19 25L20 25L20 23L21 23L21 24L22 24L22 25L21 25L21 26L22 26L22 25L23 25L23 27L21 27L21 28L23 28L23 29L25 29L25 30L23 30L23 32L24 32L24 31L25 31L25 33L26 33L26 32L27 32L27 31L26 31L26 30L28 30L28 29L29 29L29 27L30 27L30 29L31 29L31 26L33 26L33 25L30 25L30 24L31 24L31 23L32 23L32 24L33 24L33 23L34 23L34 22L33 22L33 19L30 19L30 20L29 20L29 19L28 19L28 18L29 18L29 17L30 17L30 18L31 18L31 17L32 17L32 18L34 18L34 19L35 19L35 18L36 18L36 17L35 17L35 16L31 16L31 17L30 17L30 16L29 16L29 17L28 17L28 18L27 18L27 19L28 19L28 20L29 20L29 22L30 22L30 24L29 24L29 23L28 23L28 21L27 21L27 20L25 20L25 19L26 19L26 17L27 17L27 16L25 16L25 17L24 17L24 16L23 16L23 17L24 17L24 18L23 18L23 19L21 19L21 17L22 17L22 16L21 16L21 17L18 17L18 16ZM15 17L15 18L16 18L16 17ZM34 17L34 18L35 18L35 17ZM48 17L48 18L49 18L49 19L50 19L50 18L49 18L49 17ZM19 18L19 19L20 19L20 18ZM6 19L6 20L7 20L7 19ZM10 19L10 20L11 20L11 19ZM1 20L1 21L2 21L2 20ZM20 20L20 21L21 21L21 23L22 23L22 22L23 22L23 21L25 21L25 20L22 20L22 21L21 21L21 20ZM30 20L30 21L31 21L31 22L32 22L32 23L33 23L33 22L32 22L32 20ZM36 20L36 21L37 21L37 20ZM26 21L26 22L25 22L25 23L24 23L24 24L23 24L23 25L24 25L24 24L25 24L25 23L26 23L26 22L27 22L27 21ZM49 21L49 22L50 22L50 21ZM6 22L6 23L8 23L8 22ZM9 22L9 24L10 24L10 25L11 25L11 26L12 26L12 23L11 23L11 24L10 24L10 22ZM19 22L19 23L20 23L20 22ZM1 23L1 24L2 24L2 25L4 25L4 23ZM15 23L15 24L16 24L16 25L18 25L18 24L17 24L17 23ZM52 23L52 24L53 24L53 23ZM38 24L38 25L39 25L39 24ZM5 25L5 28L8 28L8 25ZM25 25L25 28L28 28L28 25ZM40 25L40 26L41 26L41 25ZM45 25L45 28L48 28L48 25ZM6 26L6 27L7 27L7 26ZM26 26L26 27L27 27L27 26ZM35 26L35 29L34 29L34 28L33 28L33 27L32 27L32 28L33 28L33 30L35 30L35 29L36 29L36 28L38 28L38 27L39 27L39 26L38 26L38 27L37 27L37 26ZM46 26L46 27L47 27L47 26ZM23 27L23 28L24 28L24 27ZM49 27L49 29L50 29L50 27ZM13 29L13 30L11 30L11 32L10 32L10 33L11 33L11 32L12 32L12 33L13 33L13 34L12 34L12 35L13 35L13 34L14 34L14 33L13 33L13 32L14 32L14 31L13 31L13 30L14 30L14 29ZM21 29L21 30L20 30L20 31L19 31L19 32L20 32L20 31L22 31L22 29ZM6 30L6 31L7 31L7 30ZM31 30L31 31L30 31L30 32L31 32L31 31L32 31L32 32L33 32L33 31L32 31L32 30ZM4 32L4 33L5 33L5 32ZM17 32L17 33L18 33L18 34L17 34L17 35L19 35L19 36L24 36L24 37L23 37L23 38L22 38L22 39L21 39L21 37L20 37L20 39L21 39L21 40L22 40L22 41L23 41L23 40L24 40L24 39L23 39L23 38L25 38L25 39L26 39L26 40L27 40L27 39L28 39L28 37L27 37L27 36L28 36L28 34L27 34L27 35L26 35L26 34L25 34L25 35L26 35L26 36L24 36L24 35L21 35L21 33L22 33L22 32L21 32L21 33L18 33L18 32ZM28 32L28 33L29 33L29 32ZM15 33L15 34L16 34L16 33ZM45 33L45 34L46 34L46 33ZM4 34L4 35L7 35L7 34ZM8 34L8 35L9 35L9 37L8 37L8 38L11 38L11 37L10 37L10 36L11 36L11 35L9 35L9 34ZM19 34L19 35L20 35L20 34ZM50 34L50 35L51 35L51 36L52 36L52 37L53 37L53 36L52 36L52 35L51 35L51 34ZM15 35L15 36L16 36L16 35ZM32 35L32 36L33 36L33 35ZM12 36L12 38L13 38L13 36ZM25 37L25 38L26 38L26 39L27 39L27 38L26 38L26 37ZM29 38L29 39L30 39L30 40L31 40L31 39L30 39L30 38ZM50 38L50 39L51 39L51 40L53 40L53 39L51 39L51 38ZM9 40L9 41L8 41L8 42L7 42L7 41L6 41L6 42L7 42L7 43L8 43L8 44L9 44L9 43L10 43L10 42L9 42L9 41L10 41L10 40ZM1 41L1 42L2 42L2 43L3 43L3 42L4 42L4 41L3 41L3 42L2 42L2 41ZM47 41L47 42L46 42L46 44L47 44L47 43L49 43L49 42L48 42L48 41ZM51 41L51 42L52 42L52 41ZM8 42L8 43L9 43L9 42ZM13 43L13 44L12 44L12 46L14 46L14 45L13 45L13 44L15 44L15 43ZM34 43L34 44L36 44L36 45L35 45L35 46L34 46L34 45L33 45L33 44L30 44L30 45L31 45L31 46L32 46L32 47L33 47L33 48L36 48L36 47L35 47L35 46L36 46L36 45L37 45L37 43ZM41 44L41 46L40 46L40 48L41 48L41 46L42 46L42 45L43 45L43 46L44 46L44 45L43 45L43 44ZM9 45L9 46L10 46L10 45ZM25 45L25 48L28 48L28 45ZM32 45L32 46L33 46L33 45ZM45 45L45 48L48 48L48 45ZM50 45L50 46L49 46L49 48L50 48L50 47L51 47L51 46L52 46L52 45ZM26 46L26 47L27 47L27 46ZM29 46L29 48L30 48L30 46ZM46 46L46 47L47 47L47 46ZM15 49L15 50L16 50L16 49ZM26 49L26 50L25 50L25 51L26 51L26 50L28 50L28 49ZM19 50L19 51L20 51L20 50ZM12 51L12 52L13 52L13 51ZM0 0L0 7L7 7L7 0ZM1 1L1 6L6 6L6 1ZM2 2L2 5L5 5L5 2ZM46 0L46 7L53 7L53 0ZM47 1L47 6L52 6L52 1ZM48 2L48 5L51 5L51 2ZM0 46L0 53L7 53L7 46ZM1 47L1 52L6 52L6 47ZM2 48L2 51L5 51L5 48Z" fill="#000000"/></g></g></svg>
