<?xml version="1.0" encoding="UTF-8"?>
<svg xmlns="http://www.w3.org/2000/svg" version="1.1" width="300" height="300" viewBox="0 0 300 300"><rect x="0" y="0" width="300" height="300" fill="#ffffff"/><g transform="scale(5.66)"><g transform="translate(0,0)"><path fill-rule="evenodd" d="M9 0L9 1L8 1L8 2L9 2L9 3L8 3L8 4L9 4L9 3L10 3L10 7L9 7L9 5L8 5L8 7L9 7L9 8L6 8L6 9L7 9L7 10L6 10L6 11L4 11L4 10L2 10L2 9L5 9L5 8L0 8L0 9L1 9L1 10L0 10L0 12L1 12L1 14L2 14L2 15L0 15L0 16L2 16L2 15L3 15L3 16L5 16L5 17L4 17L4 18L6 18L6 19L2 19L2 17L0 17L0 18L1 18L1 20L2 20L2 21L0 21L0 24L2 24L2 25L3 25L3 26L2 26L2 27L0 27L0 29L1 29L1 28L3 28L3 26L4 26L4 29L3 29L3 30L2 30L2 31L0 31L0 33L2 33L2 35L1 35L1 37L2 37L2 36L3 36L3 37L4 37L4 36L5 36L5 35L7 35L7 36L6 36L6 37L8 37L8 39L7 39L7 38L4 38L4 39L5 39L5 40L3 40L3 38L0 38L0 39L1 39L1 40L2 40L2 41L0 41L0 43L1 43L1 44L3 44L3 45L4 45L4 44L3 44L3 43L7 43L7 42L6 42L6 41L7 41L7 40L8 40L8 41L10 41L10 43L8 43L8 44L9 44L9 45L8 45L8 47L9 47L9 48L8 48L8 53L10 53L10 52L9 52L9 50L10 50L10 51L11 51L11 53L12 53L12 51L13 51L13 53L16 53L16 52L17 52L17 50L18 50L18 51L20 51L20 50L19 50L19 49L20 49L20 47L21 47L21 48L22 48L22 49L21 49L21 50L22 50L22 49L28 49L28 50L23 50L23 51L24 51L24 52L22 52L22 51L21 51L21 52L22 52L22 53L25 53L25 52L26 52L26 53L29 53L29 51L28 51L28 50L29 50L29 49L30 49L30 48L31 48L31 47L32 47L32 48L33 48L33 49L31 49L31 51L30 51L30 53L31 53L31 52L32 52L32 53L34 53L34 52L32 52L32 50L33 50L33 49L36 49L36 50L35 50L35 52L36 52L36 51L37 51L37 52L38 52L38 53L39 53L39 52L38 52L38 51L39 51L39 50L41 50L41 52L43 52L43 49L42 49L42 50L41 50L41 48L44 48L44 49L49 49L49 50L50 50L50 51L49 51L49 52L47 52L47 51L48 51L48 50L45 50L45 51L44 51L44 52L45 52L45 51L46 51L46 53L50 53L50 51L52 51L52 52L53 52L53 51L52 51L52 50L50 50L50 48L51 48L51 47L52 47L52 46L53 46L53 43L51 43L51 44L49 44L49 43L50 43L50 41L48 41L48 40L49 40L49 39L47 39L47 38L49 38L49 37L45 37L45 39L47 39L47 41L46 41L46 40L45 40L45 41L46 41L46 42L45 42L45 43L43 43L43 42L44 42L44 40L43 40L43 39L41 39L41 40L38 40L38 38L39 38L39 36L40 36L40 34L41 34L41 33L40 33L40 30L41 30L41 31L42 31L42 32L43 32L43 33L42 33L42 37L44 37L44 35L43 35L43 33L44 33L44 34L45 34L45 36L49 36L49 35L48 35L48 34L49 34L49 32L50 32L50 31L51 31L51 32L53 32L53 31L52 31L52 30L53 30L53 29L52 29L52 30L50 30L50 29L51 29L51 26L52 26L52 25L51 25L51 26L49 26L49 25L50 25L50 23L51 23L51 22L52 22L52 21L51 21L51 20L53 20L53 18L50 18L50 17L51 17L51 16L53 16L53 14L50 14L50 13L51 13L51 12L53 12L53 11L52 11L52 10L53 10L53 9L52 9L52 8L51 8L51 9L52 9L52 10L50 10L50 8L49 8L49 10L47 10L47 9L48 9L48 8L47 8L47 9L46 9L46 8L45 8L45 9L46 9L46 10L47 10L47 12L44 12L44 11L45 11L45 10L44 10L44 9L42 9L42 10L41 10L41 9L40 9L40 7L41 7L41 8L43 8L43 3L44 3L44 4L45 4L45 3L44 3L44 1L43 1L43 0L41 0L41 1L42 1L42 2L43 2L43 3L42 3L42 7L41 7L41 6L40 6L40 5L41 5L41 4L40 4L40 2L39 2L39 0L38 0L38 2L39 2L39 3L38 3L38 4L37 4L37 5L34 5L34 4L36 4L36 3L37 3L37 0L36 0L36 1L35 1L35 3L33 3L33 2L34 2L34 1L33 1L33 0L30 0L30 1L33 1L33 2L29 2L29 1L28 1L28 2L27 2L27 1L26 1L26 0L25 0L25 2L22 2L22 3L21 3L21 4L22 4L22 5L23 5L23 4L22 4L22 3L24 3L24 8L23 8L23 6L22 6L22 7L21 7L21 5L20 5L20 3L17 3L17 2L20 2L20 1L19 1L19 0L16 0L16 1L15 1L15 2L14 2L14 1L13 1L13 0L11 0L11 1L10 1L10 0ZM23 0L23 1L24 1L24 0ZM12 1L12 2L11 2L11 4L12 4L12 2L13 2L13 4L14 4L14 5L12 5L12 6L11 6L11 8L9 8L9 9L8 9L8 11L6 11L6 12L4 12L4 13L2 13L2 14L4 14L4 13L5 13L5 14L7 14L7 15L6 15L6 16L7 16L7 17L6 17L6 18L7 18L7 17L8 17L8 14L9 14L9 16L11 16L11 18L12 18L12 20L11 20L11 19L9 19L9 18L10 18L10 17L9 17L9 18L8 18L8 20L11 20L11 21L6 21L6 20L7 20L7 19L6 19L6 20L4 20L4 21L2 21L2 24L4 24L4 22L5 22L5 24L7 24L7 23L6 23L6 22L10 22L10 23L8 23L8 24L9 24L9 25L10 25L10 26L9 26L9 27L10 27L10 26L11 26L11 25L10 25L10 23L11 23L11 24L13 24L13 25L14 25L14 27L13 27L13 26L12 26L12 28L13 28L13 29L14 29L14 30L15 30L15 32L16 32L16 33L13 33L13 32L14 32L14 31L12 31L12 30L11 30L11 28L9 28L9 29L8 29L8 30L9 30L9 32L8 32L8 31L6 31L6 30L7 30L7 29L6 29L6 30L5 30L5 29L4 29L4 30L3 30L3 32L2 32L2 33L3 33L3 32L5 32L5 33L4 33L4 34L3 34L3 36L4 36L4 34L5 34L5 33L6 33L6 34L7 34L7 35L8 35L8 36L9 36L9 38L10 38L10 39L11 39L11 37L12 37L12 38L13 38L13 39L12 39L12 40L10 40L10 41L12 41L12 42L11 42L11 43L12 43L12 44L11 44L11 46L12 46L12 45L13 45L13 43L12 43L12 42L13 42L13 41L14 41L14 43L16 43L16 44L14 44L14 46L13 46L13 47L14 47L14 48L16 48L16 49L14 49L14 52L16 52L16 51L15 51L15 50L16 50L16 49L18 49L18 48L17 48L17 47L18 47L18 46L17 46L17 45L16 45L16 44L19 44L19 43L20 43L20 42L19 42L19 43L17 43L17 42L18 42L18 41L21 41L21 42L22 42L22 43L23 43L23 42L24 42L24 41L26 41L26 43L24 43L24 44L22 44L22 46L21 46L21 47L22 47L22 46L23 46L23 45L24 45L24 44L27 44L27 42L28 42L28 44L29 44L29 45L32 45L32 47L33 47L33 48L36 48L36 47L35 47L35 46L39 46L39 47L37 47L37 51L38 51L38 49L40 49L40 48L41 48L41 46L42 46L42 47L43 47L43 46L44 46L44 45L43 45L43 46L42 46L42 45L41 45L41 42L39 42L39 41L38 41L38 40L37 40L37 41L36 41L36 40L35 40L35 37L34 37L34 39L33 39L33 38L32 38L32 37L28 37L28 36L29 36L29 35L30 35L30 33L33 33L33 34L31 34L31 35L32 35L32 36L33 36L33 35L34 35L34 36L36 36L36 35L35 35L35 34L34 34L34 33L33 33L33 32L36 32L36 30L37 30L37 31L38 31L38 32L37 32L37 33L36 33L36 34L38 34L38 36L37 36L37 37L36 37L36 38L38 38L38 36L39 36L39 34L38 34L38 32L39 32L39 30L40 30L40 29L39 29L39 27L41 27L41 30L43 30L43 32L44 32L44 33L45 33L45 34L46 34L46 35L47 35L47 34L46 34L46 33L48 33L48 32L47 32L47 31L49 31L49 29L50 29L50 27L49 27L49 29L48 29L48 30L46 30L46 29L45 29L45 31L44 31L44 28L42 28L42 27L43 27L43 26L44 26L44 25L43 25L43 24L42 24L42 21L44 21L44 22L43 22L43 23L44 23L44 24L47 24L47 22L49 22L49 23L48 23L48 24L49 24L49 23L50 23L50 22L51 22L51 21L50 21L50 20L47 20L47 17L48 17L48 18L49 18L49 19L50 19L50 18L49 18L49 17L48 17L48 16L50 16L50 14L49 14L49 11L50 11L50 10L49 10L49 11L48 11L48 13L47 13L47 14L49 14L49 15L43 15L43 14L44 14L44 12L42 12L42 11L43 11L43 10L42 10L42 11L41 11L41 10L40 10L40 11L41 11L41 12L40 12L40 13L36 13L36 14L38 14L38 16L37 16L37 15L35 15L35 13L33 13L33 12L35 12L35 11L36 11L36 10L38 10L38 11L37 11L37 12L39 12L39 9L38 9L38 8L39 8L39 7L40 7L40 6L39 6L39 5L40 5L40 4L39 4L39 5L38 5L38 6L37 6L37 7L38 7L38 8L37 8L37 9L36 9L36 6L35 6L35 7L34 7L34 6L33 6L33 5L32 5L32 3L29 3L29 2L28 2L28 3L27 3L27 2L26 2L26 4L29 4L29 8L30 8L30 9L28 9L28 10L27 10L27 9L25 9L25 10L24 10L24 9L23 9L23 8L21 8L21 7L20 7L20 5L18 5L18 4L17 4L17 3L16 3L16 2L15 2L15 3L14 3L14 2L13 2L13 1ZM15 3L15 4L16 4L16 5L15 5L15 6L14 6L14 7L13 7L13 6L12 6L12 7L13 7L13 8L14 8L14 7L15 7L15 6L16 6L16 7L17 7L17 6L18 6L18 7L19 7L19 8L20 8L20 7L19 7L19 6L18 6L18 5L17 5L17 4L16 4L16 3ZM25 5L25 8L28 8L28 5ZM30 5L30 8L31 8L31 6L32 6L32 7L33 7L33 6L32 6L32 5ZM26 6L26 7L27 7L27 6ZM38 6L38 7L39 7L39 6ZM44 6L44 7L45 7L45 6ZM11 8L11 10L12 10L12 11L11 11L11 12L10 12L10 13L12 13L12 11L14 11L14 12L13 12L13 13L14 13L14 14L10 14L10 15L12 15L12 16L13 16L13 17L12 17L12 18L13 18L13 19L14 19L14 20L15 20L15 19L16 19L16 20L17 20L17 21L19 21L19 22L20 22L20 23L19 23L19 24L20 24L20 23L21 23L21 25L18 25L18 24L17 24L17 25L18 25L18 27L19 27L19 28L18 28L18 31L17 31L17 30L16 30L16 29L17 29L17 28L16 28L16 27L14 27L14 28L16 28L16 29L15 29L15 30L16 30L16 31L17 31L17 32L18 32L18 33L16 33L16 34L15 34L15 35L16 35L16 36L17 36L17 37L18 37L18 38L16 38L16 37L15 37L15 36L14 36L14 38L15 38L15 39L18 39L18 38L19 38L19 36L17 36L17 35L20 35L20 34L19 34L19 33L20 33L20 31L21 31L21 32L22 32L22 33L21 33L21 34L22 34L22 33L23 33L23 32L24 32L24 31L25 31L25 33L26 33L26 32L27 32L27 31L28 31L28 29L29 29L29 30L30 30L30 32L31 32L31 31L32 31L32 32L33 32L33 31L35 31L35 28L34 28L34 27L33 27L33 28L32 28L32 29L31 29L31 26L33 26L33 25L37 25L37 24L38 24L38 25L39 25L39 24L41 24L41 25L40 25L40 26L41 26L41 25L42 25L42 24L41 24L41 23L40 23L40 22L41 22L41 21L42 21L42 20L44 20L44 19L45 19L45 23L46 23L46 21L47 21L47 20L46 20L46 19L45 19L45 18L46 18L46 17L47 17L47 16L45 16L45 18L44 18L44 19L43 19L43 18L42 18L42 20L41 20L41 21L40 21L40 19L39 19L39 21L38 21L38 23L37 23L37 21L36 21L36 20L34 20L34 21L32 21L32 20L33 20L33 19L28 19L28 18L27 18L27 20L25 20L25 21L23 21L23 24L24 24L24 25L23 25L23 27L21 27L21 26L22 26L22 22L21 22L21 21L22 21L22 20L23 20L23 19L26 19L26 17L27 17L27 16L25 16L25 17L24 17L24 16L23 16L23 15L21 15L21 14L22 14L22 13L20 13L20 12L21 12L21 9L18 9L18 8L17 8L17 9L18 9L18 11L19 11L19 12L18 12L18 15L17 15L17 14L16 14L16 13L17 13L17 12L16 12L16 11L14 11L14 9L12 9L12 8ZM33 8L33 9L32 9L32 10L33 10L33 9L35 9L35 8ZM9 9L9 10L10 10L10 9ZM15 9L15 10L16 10L16 9ZM30 9L30 11L28 11L28 12L29 12L29 13L30 13L30 16L29 16L29 17L30 17L30 18L31 18L31 17L32 17L32 18L34 18L34 19L35 19L35 18L36 18L36 19L38 19L38 18L39 18L39 17L40 17L40 18L41 18L41 17L40 17L40 16L43 16L43 17L44 17L44 16L43 16L43 15L40 15L40 14L41 14L41 13L42 13L42 14L43 14L43 13L42 13L42 12L41 12L41 13L40 13L40 14L39 14L39 15L40 15L40 16L38 16L38 17L37 17L37 18L36 18L36 17L35 17L35 16L31 16L31 15L32 15L32 14L33 14L33 13L32 13L32 11L31 11L31 9ZM1 10L1 11L2 11L2 10ZM19 10L19 11L20 11L20 10ZM8 11L8 12L9 12L9 11ZM22 11L22 12L23 12L23 14L25 14L25 15L28 15L28 13L27 13L27 11L26 11L26 13L24 13L24 12L25 12L25 11L24 11L24 12L23 12L23 11ZM6 12L6 13L7 13L7 14L8 14L8 13L7 13L7 12ZM26 13L26 14L27 14L27 13ZM31 13L31 14L32 14L32 13ZM45 13L45 14L46 14L46 13ZM19 14L19 15L20 15L20 17L19 17L19 18L20 18L20 19L19 19L19 20L20 20L20 21L21 21L21 19L23 19L23 18L24 18L24 17L23 17L23 16L21 16L21 15L20 15L20 14ZM13 15L13 16L14 16L14 15ZM15 15L15 16L16 16L16 17L13 17L13 18L14 18L14 19L15 19L15 18L16 18L16 17L18 17L18 16L17 16L17 15ZM30 16L30 17L31 17L31 16ZM21 17L21 18L22 18L22 17ZM34 17L34 18L35 18L35 17ZM27 20L27 21L25 21L25 22L27 22L27 21L28 21L28 23L29 23L29 24L30 24L30 25L33 25L33 24L35 24L35 23L33 23L33 22L32 22L32 21L31 21L31 20L30 20L30 21L29 21L29 20ZM13 21L13 22L15 22L15 23L18 23L18 22L16 22L16 21ZM30 21L30 22L29 22L29 23L30 23L30 24L31 24L31 23L32 23L32 24L33 24L33 23L32 23L32 22L31 22L31 21ZM34 21L34 22L36 22L36 21ZM49 21L49 22L50 22L50 21ZM13 23L13 24L14 24L14 23ZM24 23L24 24L26 24L26 23ZM38 23L38 24L39 24L39 23ZM52 23L52 24L53 24L53 23ZM5 25L5 28L8 28L8 25ZM15 25L15 26L16 26L16 25ZM25 25L25 28L28 28L28 25ZM45 25L45 28L48 28L48 25ZM6 26L6 27L7 27L7 26ZM19 26L19 27L20 27L20 26ZM26 26L26 27L27 27L27 26ZM35 26L35 27L36 27L36 29L37 29L37 30L38 30L38 27L39 27L39 26L38 26L38 27L37 27L37 26ZM46 26L46 27L47 27L47 26ZM23 27L23 28L20 28L20 29L19 29L19 31L20 31L20 30L21 30L21 31L22 31L22 30L23 30L23 31L24 31L24 30L26 30L26 31L27 31L27 30L26 30L26 29L24 29L24 27ZM29 28L29 29L30 29L30 30L31 30L31 29L30 29L30 28ZM33 28L33 29L32 29L32 31L33 31L33 29L34 29L34 28ZM21 29L21 30L22 30L22 29ZM23 29L23 30L24 30L24 29ZM4 30L4 31L5 31L5 30ZM10 30L10 33L11 33L11 34L9 34L9 35L11 35L11 36L10 36L10 37L11 37L11 36L12 36L12 37L13 37L13 36L12 36L12 35L11 35L11 34L12 34L12 33L11 33L11 32L12 32L12 31L11 31L11 30ZM45 31L45 33L46 33L46 31ZM6 32L6 33L8 33L8 32ZM28 32L28 33L29 33L29 32ZM51 33L51 34L50 34L50 35L51 35L51 36L52 36L52 37L53 37L53 36L52 36L52 35L53 35L53 34L52 34L52 33ZM27 34L27 35L26 35L26 36L28 36L28 34ZM21 35L21 36L24 36L24 37L23 37L23 40L24 40L24 39L26 39L26 40L28 40L28 39L29 39L29 38L28 38L28 37L27 37L27 38L28 38L28 39L26 39L26 38L24 38L24 37L25 37L25 36L24 36L24 35ZM20 37L20 39L19 39L19 40L20 40L20 39L22 39L22 38L21 38L21 37ZM40 37L40 38L41 38L41 37ZM50 38L50 39L51 39L51 40L53 40L53 39L51 39L51 38ZM6 39L6 40L5 40L5 41L6 41L6 40L7 40L7 39ZM8 39L8 40L9 40L9 39ZM13 39L13 40L12 40L12 41L13 41L13 40L14 40L14 39ZM30 39L30 40L29 40L29 44L31 44L31 43L30 43L30 42L31 42L31 41L30 41L30 40L31 40L31 39ZM17 40L17 41L18 41L18 40ZM21 40L21 41L22 41L22 40ZM33 40L33 41L32 41L32 42L33 42L33 43L35 43L35 45L37 45L37 44L38 44L38 45L39 45L39 46L41 46L41 45L40 45L40 44L38 44L38 41L37 41L37 42L34 42L34 41L35 41L35 40ZM41 40L41 41L42 41L42 42L43 42L43 41L42 41L42 40ZM3 41L3 42L2 42L2 43L3 43L3 42L4 42L4 41ZM15 41L15 42L16 42L16 41ZM47 41L47 42L46 42L46 44L47 44L47 43L49 43L49 42L48 42L48 41ZM51 41L51 42L52 42L52 41ZM6 44L6 45L7 45L7 44ZM32 44L32 45L33 45L33 44ZM15 45L15 46L14 46L14 47L16 47L16 45ZM25 45L25 48L28 48L28 45ZM45 45L45 48L48 48L48 45ZM50 45L50 46L49 46L49 48L50 48L50 47L51 47L51 46L52 46L52 45ZM9 46L9 47L10 47L10 46ZM19 46L19 47L20 47L20 46ZM26 46L26 47L27 47L27 46ZM33 46L33 47L34 47L34 46ZM46 46L46 47L47 47L47 46ZM29 47L29 48L30 48L30 47ZM39 47L39 48L40 48L40 47ZM9 48L9 49L10 49L10 50L12 50L12 49L13 49L13 48ZM26 51L26 52L27 52L27 51ZM18 52L18 53L20 53L20 52ZM0 0L0 7L7 7L7 0ZM1 1L1 6L6 6L6 1ZM2 2L2 5L5 5L5 2ZM46 0L46 7L53 7L53 0ZM47 1L47 6L52 6L52 1ZM48 2L48 5L51 5L51 2ZM0 46L0 53L7 53L7 46ZM1 47L1 52L6 52L6 47ZM2 48L2 51L5 51L5 48Z" fill="#000000"/></g></g></svg>
