<?xml version="1.0" encoding="UTF-8"?>
<svg xmlns="http://www.w3.org/2000/svg" version="1.1" width="300" height="300" viewBox="0 0 300 300"><rect x="0" y="0" width="300" height="300" fill="#ffffff"/><g transform="scale(4.918)"><g transform="translate(0,0)"><path fill-rule="evenodd" d="M9 0L9 1L8 1L8 3L9 3L9 4L8 4L8 8L6 8L6 9L4 9L4 8L3 8L3 9L2 9L2 8L0 8L0 9L1 9L1 11L2 11L2 12L0 12L0 14L1 14L1 13L2 13L2 16L0 16L0 18L2 18L2 19L3 19L3 18L6 18L6 19L4 19L4 20L0 20L0 21L2 21L2 22L3 22L3 23L2 23L2 24L0 24L0 26L1 26L1 29L3 29L3 28L4 28L4 30L2 30L2 31L0 31L0 33L1 33L1 34L0 34L0 35L1 35L1 37L2 37L2 36L3 36L3 37L4 37L4 36L5 36L5 37L7 37L7 38L4 38L4 40L3 40L3 41L4 41L4 42L3 42L3 43L2 43L2 42L0 42L0 43L2 43L2 44L3 44L3 43L4 43L4 42L5 42L5 43L7 43L7 44L4 44L4 46L2 46L2 45L1 45L1 47L3 47L3 48L0 48L0 50L1 50L1 49L2 49L2 51L0 51L0 53L4 53L4 52L5 52L5 51L12 51L12 54L11 54L11 53L10 53L10 52L8 52L8 55L9 55L9 56L11 56L11 55L12 55L12 56L13 56L13 57L12 57L12 58L11 58L11 57L10 57L10 58L9 58L9 57L8 57L8 58L9 58L9 59L8 59L8 61L12 61L12 60L13 60L13 61L16 61L16 60L13 60L13 57L14 57L14 56L13 56L13 55L15 55L15 56L16 56L16 57L17 57L17 58L16 58L16 59L18 59L18 60L17 60L17 61L18 61L18 60L19 60L19 61L23 61L23 60L24 60L24 59L22 59L22 58L23 58L23 56L22 56L22 57L21 57L21 56L20 56L20 55L19 55L19 54L17 54L17 55L15 55L15 54L16 54L16 53L15 53L15 52L16 52L16 51L17 51L17 53L18 53L18 52L19 52L19 53L20 53L20 52L19 52L19 50L20 50L20 51L21 51L21 52L22 52L22 53L23 53L23 54L21 54L21 55L23 55L23 54L24 54L24 55L25 55L25 56L24 56L24 57L25 57L25 58L26 58L26 59L28 59L28 58L29 58L29 60L26 60L26 61L29 61L29 60L30 60L30 59L31 59L31 58L32 58L32 59L33 59L33 58L34 58L34 57L33 57L33 56L36 56L36 58L35 58L35 61L37 61L37 60L36 60L36 59L37 59L37 56L38 56L38 57L39 57L39 56L38 56L38 55L41 55L41 56L40 56L40 58L38 58L38 60L39 60L39 61L40 61L40 60L42 60L42 59L43 59L43 58L44 58L44 59L45 59L45 57L43 57L43 58L42 58L42 54L43 54L43 56L45 56L45 55L46 55L46 56L48 56L48 58L47 58L47 57L46 57L46 58L47 58L47 61L49 61L49 60L48 60L48 59L50 59L50 60L51 60L51 61L61 61L61 58L60 58L60 59L59 59L59 58L58 58L58 59L59 59L59 60L56 60L56 59L57 59L57 58L56 58L56 57L58 57L58 56L60 56L60 57L61 57L61 55L60 55L60 53L61 53L61 46L60 46L60 44L61 44L61 42L59 42L59 43L58 43L58 42L57 42L57 41L58 41L58 40L59 40L59 41L61 41L61 38L59 38L59 37L61 37L61 31L60 31L60 32L59 32L59 31L58 31L58 32L57 32L57 28L58 28L58 27L57 27L57 28L52 28L52 29L51 29L51 32L50 32L50 33L47 33L47 37L45 37L45 36L46 36L46 33L44 33L44 32L43 32L43 33L44 33L44 37L43 37L43 45L42 45L42 44L40 44L40 46L39 46L39 47L38 47L38 45L39 45L39 44L38 44L38 43L39 43L39 42L40 42L40 43L42 43L42 42L41 42L41 41L42 41L42 39L41 39L41 38L42 38L42 37L41 37L41 36L42 36L42 35L43 35L43 34L41 34L41 31L42 31L42 30L41 30L41 29L40 29L40 28L39 28L39 30L37 30L37 29L38 29L38 28L37 28L37 27L38 27L38 26L36 26L36 27L35 27L35 25L34 25L34 24L29 24L29 25L28 25L28 24L27 24L27 23L28 23L28 22L25 22L25 24L24 24L24 22L23 22L23 23L22 23L22 21L26 21L26 20L28 20L28 19L29 19L29 20L30 20L30 21L32 21L32 22L31 22L31 23L34 23L34 22L36 22L36 25L38 25L38 24L39 24L39 22L41 22L41 23L43 23L43 24L44 24L44 23L46 23L46 21L44 21L44 19L46 19L46 20L47 20L47 19L48 19L48 22L47 22L47 25L46 25L46 24L45 24L45 25L43 25L43 26L45 26L45 27L46 27L46 26L47 26L47 25L48 25L48 27L47 27L47 28L46 28L46 29L47 29L47 30L43 30L43 31L46 31L46 32L47 32L47 31L48 31L48 32L49 32L49 29L50 29L50 26L51 26L51 27L52 27L52 26L53 26L53 27L56 27L56 26L59 26L59 28L60 28L60 29L59 29L59 30L60 30L60 29L61 29L61 28L60 28L60 27L61 27L61 26L59 26L59 25L61 25L61 22L59 22L59 24L58 24L58 25L57 25L57 23L58 23L58 22L57 22L57 21L59 21L59 19L60 19L60 21L61 21L61 18L60 18L60 17L61 17L61 15L60 15L60 14L61 14L61 11L59 11L59 10L58 10L58 11L59 11L59 12L57 12L57 13L58 13L58 14L59 14L59 15L58 15L58 16L56 16L56 15L55 15L55 14L53 14L53 12L54 12L54 11L55 11L55 12L56 12L56 11L57 11L57 8L54 8L54 9L56 9L56 11L55 11L55 10L54 10L54 11L53 11L53 10L52 10L52 11L53 11L53 12L51 12L51 11L50 11L50 9L53 9L53 6L52 6L52 8L50 8L50 7L51 7L51 5L52 5L52 4L53 4L53 0L51 0L51 2L50 2L50 0L48 0L48 1L47 1L47 2L46 2L46 1L45 1L45 3L44 3L44 2L42 2L42 1L43 1L43 0L42 0L42 1L40 1L40 0L38 0L38 1L37 1L37 2L35 2L35 1L36 1L36 0L32 0L32 1L33 1L33 2L32 2L32 3L31 3L31 0L30 0L30 1L29 1L29 0L28 0L28 1L27 1L27 0L26 0L26 1L25 1L25 0L24 0L24 3L25 3L25 4L22 4L22 2L23 2L23 1L22 1L22 0L18 0L18 1L20 1L20 2L19 2L19 4L18 4L18 5L16 5L16 7L15 7L15 4L17 4L17 3L16 3L16 0L14 0L14 1L13 1L13 2L12 2L12 0L11 0L11 1L10 1L10 0ZM14 1L14 2L15 2L15 1ZM21 1L21 2L20 2L20 3L21 3L21 2L22 2L22 1ZM26 1L26 2L27 2L27 3L26 3L26 4L27 4L27 7L28 7L28 4L29 4L29 3L28 3L28 2L29 2L29 1L28 1L28 2L27 2L27 1ZM39 1L39 2L38 2L38 3L36 3L36 4L35 4L35 3L32 3L32 4L34 4L34 6L33 6L33 8L34 8L34 9L32 9L32 11L31 11L31 9L27 9L27 8L26 8L26 5L25 5L25 7L24 7L24 5L21 5L21 4L19 4L19 5L18 5L18 6L17 6L17 8L18 8L18 6L19 6L19 8L20 8L20 9L21 9L21 10L20 10L20 11L19 11L19 12L20 12L20 13L18 13L18 10L17 10L17 9L16 9L16 8L14 8L14 4L15 4L15 3L13 3L13 4L12 4L12 2L9 2L9 3L11 3L11 4L12 4L12 5L13 5L13 9L12 9L12 8L11 8L11 7L12 7L12 6L11 6L11 5L10 5L10 6L9 6L9 7L10 7L10 8L8 8L8 9L6 9L6 10L8 10L8 11L6 11L6 12L2 12L2 13L3 13L3 16L2 16L2 17L3 17L3 16L4 16L4 17L5 17L5 15L6 15L6 16L7 16L7 17L6 17L6 18L7 18L7 19L6 19L6 20L7 20L7 21L6 21L6 22L7 22L7 23L6 23L6 24L5 24L5 23L3 23L3 25L1 25L1 26L4 26L4 24L5 24L5 27L6 27L6 28L8 28L8 27L9 27L9 31L11 31L11 32L9 32L9 34L10 34L10 37L8 37L8 36L9 36L9 35L8 35L8 36L7 36L7 35L6 35L6 34L7 34L7 33L4 33L4 34L3 34L3 33L2 33L2 32L3 32L3 31L2 31L2 32L1 32L1 33L2 33L2 34L1 34L1 35L2 35L2 34L3 34L3 36L4 36L4 34L5 34L5 35L6 35L6 36L7 36L7 37L8 37L8 39L10 39L10 37L11 37L11 34L12 34L12 35L13 35L13 36L12 36L12 37L14 37L14 38L13 38L13 39L14 39L14 40L13 40L13 41L12 41L12 42L10 42L10 46L9 46L9 43L8 43L8 44L7 44L7 45L5 45L5 46L7 46L7 47L6 47L6 48L5 48L5 47L4 47L4 48L5 48L5 49L4 49L4 50L7 50L7 49L8 49L8 50L10 50L10 49L11 49L11 50L13 50L13 49L16 49L16 48L18 48L18 49L19 49L19 48L20 48L20 47L21 47L21 46L22 46L22 48L21 48L21 49L20 49L20 50L23 50L23 49L22 49L22 48L23 48L23 47L24 47L24 48L25 48L25 47L26 47L26 49L24 49L24 51L23 51L23 53L24 53L24 54L25 54L25 53L24 53L24 52L25 52L25 51L26 51L26 54L27 54L27 55L28 55L28 51L29 51L29 52L32 52L32 51L33 51L33 50L34 50L34 49L36 49L36 48L37 48L37 50L38 50L38 51L34 51L34 52L33 52L33 54L34 54L34 52L37 52L37 55L36 55L36 56L37 56L37 55L38 55L38 53L39 53L39 52L40 52L40 53L41 53L41 54L42 54L42 53L44 53L44 54L45 54L45 53L44 53L44 52L47 52L47 51L48 51L48 50L47 50L47 51L46 51L46 49L49 49L49 50L50 50L50 53L51 53L51 52L52 52L52 50L53 50L53 49L50 49L50 47L48 47L48 48L47 48L47 47L46 47L46 46L47 46L47 45L49 45L49 46L51 46L51 48L52 48L52 47L54 47L54 48L56 48L56 47L57 47L57 49L55 49L55 51L53 51L53 52L57 52L57 55L59 55L59 52L60 52L60 51L59 51L59 50L60 50L60 46L59 46L59 44L57 44L57 42L56 42L56 44L57 44L57 46L56 46L56 47L55 47L55 45L54 45L54 44L55 44L55 43L54 43L54 44L51 44L51 43L53 43L53 42L52 42L52 41L53 41L53 40L51 40L51 39L52 39L52 38L53 38L53 39L54 39L54 40L57 40L57 39L59 39L59 40L60 40L60 39L59 39L59 38L58 38L58 37L59 37L59 35L60 35L60 33L58 33L58 34L59 34L59 35L57 35L57 37L55 37L55 39L54 39L54 37L52 37L52 35L54 35L54 36L56 36L56 35L55 35L55 34L56 34L56 33L55 33L55 34L52 34L52 32L51 32L51 33L50 33L50 34L51 34L51 36L50 36L50 37L49 37L49 39L48 39L48 38L47 38L47 39L46 39L46 38L44 38L44 42L46 42L46 43L44 43L44 45L45 45L45 44L46 44L46 46L45 46L45 48L46 48L46 49L45 49L45 50L44 50L44 51L43 51L43 50L42 50L42 49L43 49L43 48L44 48L44 46L42 46L42 45L41 45L41 46L40 46L40 47L39 47L39 48L38 48L38 47L35 47L35 46L36 46L36 45L35 45L35 44L34 44L34 43L33 43L33 42L35 42L35 43L36 43L36 40L37 40L37 42L38 42L38 41L41 41L41 39L40 39L40 40L39 40L39 39L38 39L38 38L37 38L37 39L36 39L36 35L34 35L34 33L36 33L36 32L37 32L37 34L38 34L38 35L37 35L37 37L39 37L39 38L41 38L41 37L39 37L39 36L38 36L38 35L39 35L39 34L38 34L38 32L40 32L40 31L38 31L38 32L37 32L37 31L36 31L36 30L34 30L34 28L35 28L35 29L37 29L37 28L35 28L35 27L34 27L34 25L33 25L33 26L32 26L32 25L29 25L29 26L30 26L30 27L29 27L29 28L30 28L30 27L31 27L31 28L32 28L32 27L33 27L33 30L34 30L34 31L33 31L33 33L32 33L32 34L31 34L31 33L28 33L28 34L27 34L27 35L26 35L26 37L24 37L24 39L23 39L23 40L21 40L21 39L22 39L22 37L23 37L23 36L22 36L22 37L20 37L20 38L21 38L21 39L19 39L19 40L20 40L20 41L18 41L18 42L19 42L19 43L20 43L20 44L21 44L21 45L18 45L18 43L17 43L17 39L18 39L18 36L16 36L16 32L15 32L15 31L17 31L17 29L18 29L18 30L20 30L20 32L19 32L19 33L17 33L17 35L18 35L18 34L19 34L19 36L20 36L20 35L21 35L21 33L22 33L22 35L23 35L23 34L24 34L24 36L25 36L25 34L26 34L26 33L22 33L22 32L26 32L26 31L25 31L25 29L26 29L26 30L28 30L28 28L27 28L27 29L26 29L26 27L28 27L28 25L27 25L27 24L25 24L25 25L24 25L24 24L23 24L23 28L21 28L21 27L22 27L22 25L21 25L21 24L20 24L20 23L21 23L21 21L22 21L22 20L26 20L26 19L25 19L25 18L26 18L26 17L27 17L27 18L29 18L29 19L30 19L30 18L32 18L32 15L34 15L34 16L33 16L33 17L34 17L34 18L33 18L33 20L32 20L32 19L31 19L31 20L32 20L32 21L34 21L34 18L35 18L35 17L36 17L36 15L34 15L34 12L35 12L35 13L36 13L36 12L38 12L38 15L37 15L37 17L40 17L40 16L42 16L42 17L41 17L41 18L43 18L43 16L45 16L45 17L44 17L44 18L46 18L46 17L47 17L47 18L48 18L48 17L49 17L49 19L50 19L50 20L49 20L49 23L48 23L48 24L49 24L49 25L51 25L51 26L52 26L52 25L51 25L51 24L53 24L53 25L54 25L54 26L56 26L56 25L55 25L55 24L56 24L56 21L57 21L57 19L56 19L56 18L57 18L57 17L56 17L56 18L55 18L55 19L53 19L53 18L54 18L54 17L55 17L55 15L53 15L53 14L51 14L51 12L50 12L50 11L49 11L49 12L48 12L48 13L50 13L50 17L49 17L49 16L48 16L48 17L47 17L47 15L48 15L48 14L47 14L47 13L46 13L46 12L47 12L47 9L48 9L48 8L49 8L49 7L50 7L50 5L49 5L49 4L50 4L50 2L49 2L49 1L48 1L48 2L49 2L49 3L48 3L48 4L46 4L46 3L45 3L45 4L44 4L44 5L41 5L41 4L43 4L43 3L42 3L42 2L40 2L40 1ZM30 3L30 4L31 4L31 3ZM38 3L38 7L37 7L37 6L36 6L36 8L38 8L38 9L35 9L35 11L37 11L37 10L38 10L38 12L39 12L39 11L40 11L40 10L41 10L41 11L43 11L43 12L44 12L44 11L45 11L45 10L46 10L46 9L43 9L43 10L42 10L42 9L41 9L41 8L42 8L42 7L43 7L43 6L42 6L42 7L41 7L41 6L40 6L40 7L39 7L39 3ZM40 3L40 4L41 4L41 3ZM51 3L51 4L52 4L52 3ZM19 5L19 6L20 6L20 7L21 7L21 8L22 8L22 9L23 9L23 10L25 10L25 12L24 12L24 11L22 11L22 12L23 12L23 13L25 13L25 12L26 12L26 13L28 13L28 14L27 14L27 15L26 15L26 14L25 14L25 16L23 16L23 15L24 15L24 14L22 14L22 13L21 13L21 14L18 14L18 13L16 13L16 11L17 11L17 10L16 10L16 9L15 9L15 10L13 10L13 11L15 11L15 12L12 12L12 11L11 11L11 9L9 9L9 11L8 11L8 12L6 12L6 13L7 13L7 14L6 14L6 15L7 15L7 14L9 14L9 15L8 15L8 16L9 16L9 18L8 18L8 19L7 19L7 20L8 20L8 19L9 19L9 18L11 18L11 17L10 17L10 16L9 16L9 15L10 15L10 14L12 14L12 18L13 18L13 19L15 19L15 20L13 20L13 21L12 21L12 20L11 20L11 21L10 21L10 20L9 20L9 21L7 21L7 22L8 22L8 23L7 23L7 24L6 24L6 25L7 25L7 26L6 26L6 27L7 27L7 26L9 26L9 27L10 27L10 30L11 30L11 31L12 31L12 32L11 32L11 33L10 33L10 34L11 34L11 33L12 33L12 34L14 34L14 35L15 35L15 33L12 33L12 32L13 32L13 31L12 31L12 30L14 30L14 29L11 29L11 28L13 28L13 27L14 27L14 28L15 28L15 26L14 26L14 25L16 25L16 26L17 26L17 25L18 25L18 24L19 24L19 22L20 22L20 21L21 21L21 20L22 20L22 19L24 19L24 17L25 17L25 16L27 16L27 15L29 15L29 16L28 16L28 17L29 17L29 18L30 18L30 17L31 17L31 15L32 15L32 13L33 13L33 11L34 11L34 10L33 10L33 11L32 11L32 12L29 12L29 13L28 13L28 12L26 12L26 11L27 11L27 10L26 10L26 8L24 8L24 9L23 9L23 8L22 8L22 7L23 7L23 6L22 6L22 7L21 7L21 6L20 6L20 5ZM29 5L29 8L32 8L32 5ZM44 5L44 7L45 7L45 8L47 8L47 5ZM10 6L10 7L11 7L11 6ZM30 6L30 7L31 7L31 6ZM34 6L34 8L35 8L35 6ZM45 6L45 7L46 7L46 6ZM48 6L48 7L49 7L49 6ZM38 7L38 8L39 8L39 7ZM58 8L58 9L60 9L60 10L61 10L61 9L60 9L60 8ZM3 9L3 11L4 11L4 9ZM38 9L38 10L40 10L40 9ZM15 10L15 11L16 11L16 10ZM28 10L28 11L29 11L29 10ZM10 11L10 12L8 12L8 13L9 13L9 14L10 14L10 13L11 13L11 11ZM20 11L20 12L21 12L21 11ZM40 12L40 13L41 13L41 14L39 14L39 15L43 15L43 14L42 14L42 13L41 13L41 12ZM59 12L59 13L60 13L60 12ZM14 13L14 14L13 14L13 16L16 16L16 18L17 18L17 19L18 19L18 18L20 18L20 20L21 20L21 19L22 19L22 18L20 18L20 16L21 16L21 17L22 17L22 14L21 14L21 15L19 15L19 16L17 16L17 15L18 15L18 14L15 14L15 13ZM29 13L29 15L30 15L30 14L31 14L31 13ZM45 13L45 14L46 14L46 13ZM4 14L4 15L5 15L5 14ZM59 15L59 16L58 16L58 19L59 19L59 17L60 17L60 15ZM34 16L34 17L35 17L35 16ZM51 16L51 17L52 17L52 18L53 18L53 16ZM13 17L13 18L14 18L14 17ZM17 17L17 18L18 18L18 17ZM38 18L38 20L39 20L39 21L37 21L37 20L35 20L35 21L37 21L37 24L38 24L38 22L39 22L39 21L40 21L40 20L39 20L39 18ZM41 19L41 20L42 20L42 21L43 21L43 23L44 23L44 21L43 21L43 19ZM52 19L52 20L50 20L50 24L51 24L51 22L52 22L52 23L54 23L54 21L56 21L56 19L55 19L55 20L54 20L54 21L53 21L53 19ZM4 20L4 21L3 21L3 22L4 22L4 21L5 21L5 20ZM15 20L15 21L16 21L16 22L17 22L17 21L16 21L16 20ZM11 21L11 22L10 22L10 24L12 24L12 25L11 25L11 26L10 26L10 25L9 25L9 23L8 23L8 24L7 24L7 25L9 25L9 26L10 26L10 27L11 27L11 26L13 26L13 24L12 24L12 23L13 23L13 22L14 22L14 23L15 23L15 22L14 22L14 21L13 21L13 22L12 22L12 21ZM18 21L18 22L19 22L19 21ZM16 23L16 24L18 24L18 23ZM41 24L41 26L40 26L40 25L39 25L39 27L41 27L41 26L42 26L42 24ZM19 25L19 26L18 26L18 27L19 27L19 26L20 26L20 27L21 27L21 26L20 26L20 25ZM26 25L26 26L25 26L25 27L26 27L26 26L27 26L27 25ZM31 26L31 27L32 27L32 26ZM48 27L48 28L47 28L47 29L48 29L48 28L49 28L49 27ZM18 28L18 29L19 29L19 28ZM20 28L20 30L22 30L22 31L21 31L21 32L22 32L22 31L24 31L24 30L22 30L22 29L21 29L21 28ZM43 28L43 29L44 29L44 28ZM5 29L5 32L8 32L8 29ZM15 29L15 30L16 30L16 29ZM29 29L29 32L32 32L32 29ZM53 29L53 32L56 32L56 29ZM6 30L6 31L7 31L7 30ZM30 30L30 31L31 31L31 30ZM54 30L54 31L55 31L55 30ZM34 31L34 32L35 32L35 31ZM19 33L19 34L20 34L20 33ZM30 34L30 35L28 35L28 36L29 36L29 37L30 37L30 41L31 41L31 40L32 40L32 39L33 39L33 38L34 38L34 39L35 39L35 40L34 40L34 41L35 41L35 40L36 40L36 39L35 39L35 38L34 38L34 37L35 37L35 36L33 36L33 34L32 34L32 35L31 35L31 34ZM40 34L40 36L41 36L41 34ZM48 35L48 36L49 36L49 35ZM14 36L14 37L15 37L15 40L14 40L14 41L15 41L15 42L16 42L16 38L17 38L17 37L15 37L15 36ZM32 36L32 38L31 38L31 39L32 39L32 38L33 38L33 36ZM26 37L26 38L25 38L25 39L26 39L26 38L27 38L27 39L28 39L28 41L27 41L27 40L25 40L25 41L27 41L27 42L25 42L25 43L26 43L26 44L25 44L25 45L24 45L24 46L25 46L25 45L26 45L26 44L27 44L27 42L28 42L28 41L29 41L29 38L28 38L28 37ZM50 37L50 39L51 39L51 37ZM2 38L2 39L3 39L3 38ZM56 38L56 39L57 39L57 38ZM0 39L0 41L2 41L2 40L1 40L1 39ZM6 39L6 40L7 40L7 39ZM4 40L4 41L5 41L5 40ZM8 40L8 41L6 41L6 42L8 42L8 41L9 41L9 40ZM23 40L23 41L24 41L24 40ZM46 40L46 42L47 42L47 43L46 43L46 44L47 44L47 43L49 43L49 45L50 45L50 43L51 43L51 41L50 41L50 40L48 40L48 41L47 41L47 40ZM21 41L21 44L22 44L22 45L23 45L23 43L24 43L24 42L22 42L22 41ZM32 41L32 42L33 42L33 41ZM29 42L29 44L31 44L31 45L29 45L29 46L30 46L30 49L28 49L28 50L30 50L30 51L32 51L32 48L33 48L33 49L34 49L34 48L33 48L33 46L31 46L31 45L33 45L33 44L32 44L32 43L31 43L31 42ZM11 43L11 45L12 45L12 44L13 44L13 43ZM14 43L14 45L13 45L13 46L15 46L15 43ZM16 43L16 45L17 45L17 43ZM37 44L37 45L38 45L38 44ZM7 45L7 46L8 46L8 49L10 49L10 48L9 48L9 46L8 46L8 45ZM27 45L27 46L26 46L26 47L28 47L28 48L29 48L29 47L28 47L28 45ZM34 45L34 46L35 46L35 45ZM52 45L52 46L54 46L54 45ZM10 46L10 47L11 47L11 48L15 48L15 47L11 47L11 46ZM16 46L16 47L18 47L18 48L19 48L19 47L20 47L20 46ZM41 46L41 47L40 47L40 48L39 48L39 49L40 49L40 50L39 50L39 51L41 51L41 48L42 48L42 46ZM58 46L58 48L59 48L59 46ZM31 47L31 48L32 48L32 47ZM6 48L6 49L7 49L7 48ZM30 49L30 50L31 50L31 49ZM57 49L57 50L59 50L59 49ZM15 50L15 51L13 51L13 53L14 53L14 54L15 54L15 53L14 53L14 52L15 52L15 51L16 51L16 50ZM3 51L3 52L4 52L4 51ZM57 51L57 52L58 52L58 51ZM6 52L6 53L7 53L7 52ZM48 52L48 53L46 53L46 55L47 55L47 54L49 54L49 55L48 55L48 56L49 56L49 55L50 55L50 56L51 56L51 57L49 57L49 58L51 58L51 59L53 59L53 60L55 60L55 59L56 59L56 58L55 58L55 57L52 57L52 55L50 55L50 54L49 54L49 52ZM9 53L9 55L10 55L10 53ZM29 53L29 56L32 56L32 53ZM53 53L53 56L56 56L56 53ZM12 54L12 55L13 55L13 54ZM30 54L30 55L31 55L31 54ZM54 54L54 55L55 55L55 54ZM17 56L17 57L18 57L18 58L20 58L20 59L19 59L19 60L20 60L20 59L21 59L21 60L22 60L22 59L21 59L21 58L20 58L20 57L18 57L18 56ZM26 56L26 58L27 58L27 56ZM30 57L30 58L31 58L31 57ZM14 58L14 59L15 59L15 58ZM40 58L40 59L42 59L42 58ZM9 59L9 60L10 60L10 59ZM11 59L11 60L12 60L12 59ZM31 60L31 61L32 61L32 60ZM44 60L44 61L46 61L46 60ZM0 0L0 7L7 7L7 0ZM1 1L1 6L6 6L6 1ZM2 2L2 5L5 5L5 2ZM54 0L54 7L61 7L61 0ZM55 1L55 6L60 6L60 1ZM56 2L56 5L59 5L59 2ZM0 54L0 61L7 61L7 54ZM1 55L1 60L6 60L6 55ZM2 56L2 59L5 59L5 56Z" fill="#000000"/></g></g></svg>
