<?xml version="1.0" encoding="UTF-8"?>
<svg xmlns="http://www.w3.org/2000/svg" version="1.1" width="300" height="300" viewBox="0 0 300 300"><rect x="0" y="0" width="300" height="300" fill="#ffffff"/><g transform="scale(6.122)"><g transform="translate(0,0)"><path fill-rule="evenodd" d="M8 0L8 4L9 4L9 5L8 5L8 7L9 7L9 9L10 9L10 10L9 10L9 11L8 11L8 9L7 9L7 8L4 8L4 9L3 9L3 10L4 10L4 12L3 12L3 11L2 11L2 10L1 10L1 9L2 9L2 8L0 8L0 10L1 10L1 12L2 12L2 13L0 13L0 14L2 14L2 15L3 15L3 14L4 14L4 12L6 12L6 13L5 13L5 15L4 15L4 16L2 16L2 17L1 17L1 18L0 18L0 23L1 23L1 25L3 25L3 23L2 23L2 22L3 22L3 20L4 20L4 21L5 21L5 20L6 20L6 21L8 21L8 22L4 22L4 26L2 26L2 27L4 27L4 30L2 30L2 31L3 31L3 33L2 33L2 32L1 32L1 31L0 31L0 32L1 32L1 34L0 34L0 35L1 35L1 37L0 37L0 38L1 38L1 40L0 40L0 41L3 41L3 40L4 40L4 39L2 39L2 38L4 38L4 37L5 37L5 39L7 39L7 38L8 38L8 37L9 37L9 36L8 36L8 37L7 37L7 36L6 36L6 35L9 35L9 34L4 34L4 35L2 35L2 34L3 34L3 33L4 33L4 31L5 31L5 32L6 32L6 33L9 33L9 32L10 32L10 30L12 30L12 31L11 31L11 32L12 32L12 33L14 33L14 34L12 34L12 35L11 35L11 33L10 33L10 36L11 36L11 37L12 37L12 38L15 38L15 37L16 37L16 36L17 36L17 37L18 37L18 38L19 38L19 37L20 37L20 39L17 39L17 38L16 38L16 39L13 39L13 40L12 40L12 39L11 39L11 38L9 38L9 39L8 39L8 42L10 42L10 43L11 43L11 44L10 44L10 45L11 45L11 46L10 46L10 47L8 47L8 49L11 49L11 48L10 48L10 47L12 47L12 49L13 49L13 46L12 46L12 45L14 45L14 46L15 46L15 47L14 47L14 48L15 48L15 47L16 47L16 46L19 46L19 45L20 45L20 43L22 43L22 44L21 44L21 46L20 46L20 47L18 47L18 48L17 48L17 49L20 49L20 47L21 47L21 46L22 46L22 47L23 47L23 45L24 45L24 46L25 46L25 47L24 47L24 48L23 48L23 49L25 49L25 47L26 47L26 46L27 46L27 47L28 47L28 49L30 49L30 48L29 48L29 45L30 45L30 47L31 47L31 48L32 48L32 49L35 49L35 47L36 47L36 46L34 46L34 48L32 48L32 46L31 46L31 45L33 45L33 43L34 43L34 45L35 45L35 44L36 44L36 45L37 45L37 46L38 46L38 47L37 47L37 48L36 48L36 49L38 49L38 47L39 47L39 49L40 49L40 47L41 47L41 46L42 46L42 47L43 47L43 45L44 45L44 47L45 47L45 48L44 48L44 49L49 49L49 47L48 47L48 46L49 46L49 43L48 43L48 42L47 42L47 43L46 43L46 42L45 42L45 41L46 41L46 40L49 40L49 39L46 39L46 40L41 40L41 39L42 39L42 38L41 38L41 37L43 37L43 38L44 38L44 39L45 39L45 36L44 36L44 35L45 35L45 34L46 34L46 33L47 33L47 32L49 32L49 27L48 27L48 26L47 26L47 27L46 27L46 24L47 24L47 25L49 25L49 24L47 24L47 23L45 23L45 22L44 22L44 21L47 21L47 20L46 20L46 16L47 16L47 18L49 18L49 11L48 11L48 10L49 10L49 8L45 8L45 9L44 9L44 8L43 8L43 10L41 10L41 6L40 6L40 10L41 10L41 11L39 11L39 12L40 12L40 14L39 14L39 13L38 13L38 11L37 11L37 12L36 12L36 11L34 11L34 12L35 12L35 14L34 14L34 17L33 17L33 15L32 15L32 14L33 14L33 12L32 12L32 13L30 13L30 12L29 12L29 11L30 11L30 10L31 10L31 9L32 9L32 8L33 8L33 5L32 5L32 8L29 8L29 6L30 6L30 7L31 7L31 5L29 5L29 4L31 4L31 3L29 3L29 2L28 2L28 0L26 0L26 1L24 1L24 2L26 2L26 1L27 1L27 3L26 3L26 4L22 4L22 8L21 8L21 9L20 9L20 11L19 11L19 12L18 12L18 10L19 10L19 8L20 8L20 7L21 7L21 6L20 6L20 5L21 5L21 4L20 4L20 0L17 0L17 1L15 1L15 2L14 2L14 3L13 3L13 2L12 2L12 1L11 1L11 3L12 3L12 4L13 4L13 5L14 5L14 8L12 8L12 7L13 7L13 6L12 6L12 5L11 5L11 4L9 4L9 3L10 3L10 2L9 2L9 0ZM13 0L13 1L14 1L14 0ZM30 0L30 2L32 2L32 3L33 3L33 4L34 4L34 3L37 3L37 5L36 5L36 4L35 4L35 5L36 5L36 7L37 7L37 5L38 5L38 7L39 7L39 5L38 5L38 2L39 2L39 4L40 4L40 3L41 3L41 0L40 0L40 1L38 1L38 0L37 0L37 1L32 1L32 0ZM15 2L15 5L16 5L16 6L15 6L15 7L16 7L16 6L17 6L17 7L18 7L18 6L17 6L17 5L18 5L18 4L19 4L19 5L20 5L20 4L19 4L19 3L17 3L17 4L16 4L16 2ZM22 2L22 3L23 3L23 2ZM27 3L27 4L28 4L28 3ZM10 5L10 6L9 6L9 7L10 7L10 6L11 6L11 7L12 7L12 6L11 6L11 5ZM23 5L23 8L26 8L26 5ZM28 5L28 6L27 6L27 8L28 8L28 9L27 9L27 10L25 10L25 9L24 9L24 10L23 10L23 9L22 9L22 11L20 11L20 12L19 12L19 14L18 14L18 12L16 12L16 11L17 11L17 9L18 9L18 8L14 8L14 9L13 9L13 10L11 10L11 11L10 11L10 13L12 13L12 14L10 14L10 17L12 17L12 18L10 18L10 21L9 21L9 22L11 22L11 23L10 23L10 24L11 24L11 23L12 23L12 22L11 22L11 19L12 19L12 18L13 18L13 17L15 17L15 18L17 18L17 19L18 19L18 17L17 17L17 16L18 16L18 15L20 15L20 16L19 16L19 18L20 18L20 16L21 16L21 17L22 17L22 19L23 19L23 20L22 20L22 21L21 21L21 19L20 19L20 21L21 21L21 23L20 23L20 25L19 25L19 22L18 22L18 21L19 21L19 20L18 20L18 21L17 21L17 20L16 20L16 19L15 19L15 20L14 20L14 19L13 19L13 21L15 21L15 22L13 22L13 24L12 24L12 25L10 25L10 26L9 26L9 27L8 27L8 29L9 29L9 30L10 30L10 28L11 28L11 27L14 27L14 28L15 28L15 29L18 29L18 28L19 28L19 29L20 29L20 30L16 30L16 31L15 31L15 30L14 30L14 29L13 29L13 28L12 28L12 29L13 29L13 31L15 31L15 35L18 35L18 33L17 33L17 34L16 34L16 32L17 32L17 31L18 31L18 32L19 32L19 31L20 31L20 32L21 32L21 35L20 35L20 34L19 34L19 36L18 36L18 37L19 37L19 36L20 36L20 37L21 37L21 35L22 35L22 36L23 36L23 37L22 37L22 38L21 38L21 39L20 39L20 40L19 40L19 42L18 42L18 43L17 43L17 41L18 41L18 40L16 40L16 43L15 43L15 41L14 41L14 40L13 40L13 41L14 41L14 42L13 42L13 43L12 43L12 44L11 44L11 45L12 45L12 44L13 44L13 43L14 43L14 44L15 44L15 45L18 45L18 44L19 44L19 43L20 43L20 40L21 40L21 39L22 39L22 40L25 40L25 39L26 39L26 40L28 40L28 38L29 38L29 36L30 36L30 37L32 37L32 40L31 40L31 39L29 39L29 40L31 40L31 41L32 41L32 43L30 43L30 42L29 42L29 44L27 44L27 46L28 46L28 45L29 45L29 44L30 44L30 45L31 45L31 44L32 44L32 43L33 43L33 41L35 41L35 42L34 42L34 43L36 43L36 44L37 44L37 45L38 45L38 46L39 46L39 47L40 47L40 46L41 46L41 45L40 45L40 41L39 41L39 35L38 35L38 34L39 34L39 32L40 32L40 33L41 33L41 34L40 34L40 35L41 35L41 36L40 36L40 37L41 37L41 36L43 36L43 35L44 35L44 34L45 34L45 33L46 33L46 32L47 32L47 31L48 31L48 27L47 27L47 28L46 28L46 27L44 27L44 28L46 28L46 29L45 29L45 30L44 30L44 33L41 33L41 31L42 31L42 32L43 32L43 29L42 29L42 30L40 30L40 31L38 31L38 33L36 33L36 32L37 32L37 29L36 29L36 28L35 28L35 29L34 29L34 27L33 27L33 25L32 25L32 24L34 24L34 23L35 23L35 21L34 21L34 18L35 18L35 20L37 20L37 21L36 21L36 23L38 23L38 25L37 25L37 24L35 24L35 25L34 25L34 26L36 26L36 27L37 27L37 26L39 26L39 27L38 27L38 29L40 29L40 28L43 28L43 27L40 27L40 25L39 25L39 24L40 24L40 23L39 23L39 22L38 22L38 21L40 21L40 19L41 19L41 21L42 21L42 22L43 22L43 21L44 21L44 19L45 19L45 18L44 18L44 19L42 19L42 17L41 17L41 16L43 16L43 17L45 17L45 15L47 15L47 13L48 13L48 12L47 12L47 13L45 13L45 12L43 12L43 11L45 11L45 10L43 10L43 11L41 11L41 12L42 12L42 13L41 13L41 14L42 14L42 13L44 13L44 16L43 16L43 15L41 15L41 16L40 16L40 17L41 17L41 18L40 18L40 19L39 19L39 17L37 17L37 18L35 18L35 17L34 17L34 18L33 18L33 17L30 17L30 16L32 16L32 15L28 15L28 10L29 10L29 8L28 8L28 6L29 6L29 5ZM19 6L19 7L20 7L20 6ZM24 6L24 7L25 7L25 6ZM34 6L34 10L35 10L35 6ZM10 8L10 9L12 9L12 8ZM37 8L37 10L39 10L39 9L38 9L38 8ZM5 9L5 10L7 10L7 9ZM14 9L14 10L15 10L15 9ZM46 9L46 11L47 11L47 10L48 10L48 9ZM6 11L6 12L7 12L7 11ZM11 11L11 12L12 12L12 13L14 13L14 14L12 14L12 15L11 15L11 16L13 16L13 15L14 15L14 16L15 16L15 17L16 17L16 16L15 16L15 15L16 15L16 14L17 14L17 13L15 13L15 12L14 12L14 11ZM25 11L25 12L23 12L23 13L26 13L26 15L25 15L25 16L24 16L24 15L23 15L23 16L22 16L22 15L21 15L21 14L20 14L20 15L21 15L21 16L22 16L22 17L23 17L23 18L24 18L24 17L25 17L25 20L23 20L23 22L22 22L22 23L21 23L21 24L22 24L22 26L21 26L21 25L20 25L20 27L19 27L19 28L20 28L20 29L24 29L24 30L22 30L22 31L21 31L21 30L20 30L20 31L21 31L21 32L22 32L22 33L24 33L24 35L25 35L25 34L26 34L26 37L25 37L25 36L24 36L24 37L23 37L23 38L24 38L24 39L25 39L25 38L26 38L26 37L27 37L27 38L28 38L28 35L29 35L29 34L30 34L30 33L29 33L29 32L30 32L30 30L31 30L31 31L32 31L32 32L31 32L31 35L32 35L32 33L33 33L33 32L34 32L34 33L35 33L35 31L36 31L36 29L35 29L35 30L34 30L34 29L33 29L33 30L34 30L34 31L32 31L32 29L30 29L30 30L29 30L29 29L28 29L28 28L30 28L30 26L29 26L29 25L31 25L31 28L33 28L33 27L32 27L32 25L31 25L31 24L32 24L32 23L31 23L31 24L29 24L29 22L32 22L32 21L33 21L33 20L31 20L31 21L29 21L29 16L28 16L28 15L27 15L27 13L26 13L26 11ZM8 12L8 14L7 14L7 13L6 13L6 14L7 14L7 15L6 15L6 16L7 16L7 15L8 15L8 16L9 16L9 15L8 15L8 14L9 14L9 12ZM20 12L20 13L21 13L21 12ZM2 13L2 14L3 14L3 13ZM36 13L36 16L37 16L37 13ZM14 14L14 15L15 15L15 14ZM38 14L38 16L39 16L39 14ZM0 15L0 16L1 16L1 15ZM26 15L26 17L28 17L28 16L27 16L27 15ZM4 16L4 17L2 17L2 18L1 18L1 21L2 21L2 20L3 20L3 19L2 19L2 18L5 18L5 19L6 19L6 20L7 20L7 19L8 19L8 17L5 17L5 16ZM6 18L6 19L7 19L7 18ZM26 18L26 20L25 20L25 21L24 21L24 22L26 22L26 21L27 21L27 24L28 24L28 25L29 25L29 24L28 24L28 21L27 21L27 19L28 19L28 18ZM31 18L31 19L32 19L32 18ZM37 18L37 20L38 20L38 18ZM48 19L48 22L49 22L49 19ZM15 20L15 21L16 21L16 20ZM16 22L16 23L14 23L14 24L13 24L13 26L15 26L15 28L17 28L17 27L18 27L18 26L17 26L17 27L16 27L16 26L15 26L15 24L18 24L18 22ZM33 22L33 23L34 23L34 22ZM5 23L5 26L8 26L8 23ZM23 23L23 26L26 26L26 23ZM41 23L41 26L44 26L44 23ZM6 24L6 25L7 25L7 24ZM24 24L24 25L25 25L25 24ZM42 24L42 25L43 25L43 24ZM36 25L36 26L37 26L37 25ZM0 26L0 27L1 27L1 26ZM5 27L5 31L6 31L6 32L8 32L8 30L7 30L7 29L6 29L6 28L7 28L7 27ZM9 27L9 28L10 28L10 27ZM20 27L20 28L21 28L21 27ZM23 27L23 28L28 28L28 27ZM39 27L39 28L40 28L40 27ZM2 28L2 29L3 29L3 28ZM26 29L26 30L25 30L25 31L23 31L23 32L27 32L27 33L28 33L28 34L27 34L27 35L28 35L28 34L29 34L29 33L28 33L28 29ZM6 30L6 31L7 31L7 30ZM45 31L45 32L46 32L46 31ZM48 33L48 34L47 34L47 35L46 35L46 36L47 36L47 35L48 35L48 38L49 38L49 35L48 35L48 34L49 34L49 33ZM22 34L22 35L23 35L23 34ZM33 34L33 35L34 35L34 37L33 37L33 36L32 36L32 37L33 37L33 39L34 39L34 40L35 40L35 41L36 41L36 40L38 40L38 39L36 39L36 37L37 37L37 38L38 38L38 35L37 35L37 36L35 36L35 34ZM41 34L41 35L42 35L42 34ZM12 35L12 36L13 36L13 37L15 37L15 36L14 36L14 35ZM2 36L2 37L3 37L3 36ZM6 37L6 38L7 38L7 37ZM40 38L40 39L41 39L41 38ZM9 39L9 40L10 40L10 42L12 42L12 40L11 40L11 39ZM6 40L6 41L7 41L7 40ZM23 41L23 44L26 44L26 41ZM27 41L27 43L28 43L28 41ZM38 41L38 42L39 42L39 41ZM41 41L41 44L44 44L44 41ZM24 42L24 43L25 43L25 42ZM42 42L42 43L43 43L43 42ZM8 43L8 45L9 45L9 43ZM16 43L16 44L17 44L17 43ZM47 43L47 44L45 44L45 47L47 47L47 48L48 48L48 47L47 47L47 45L48 45L48 43ZM25 45L25 46L26 46L26 45ZM42 48L42 49L43 49L43 48ZM0 0L0 7L7 7L7 0ZM1 1L1 6L6 6L6 1ZM2 2L2 5L5 5L5 2ZM42 0L42 7L49 7L49 0ZM43 1L43 6L48 6L48 1ZM44 2L44 5L47 5L47 2ZM0 42L0 49L7 49L7 42ZM1 43L1 48L6 48L6 43ZM2 44L2 47L5 47L5 44Z" fill="#000000"/></g></g></svg>
