<?xml version="1.0" encoding="UTF-8"?>
<svg xmlns="http://www.w3.org/2000/svg" version="1.1" width="300" height="300" viewBox="0 0 300 300"><rect x="0" y="0" width="300" height="300" fill="#ffffff"/><g transform="scale(5.66)"><g transform="translate(0,0)"><path fill-rule="evenodd" d="M9 0L9 1L8 1L8 2L10 2L10 3L11 3L11 4L10 4L10 8L6 8L6 9L7 9L7 10L5 10L5 11L4 11L4 9L5 9L5 8L0 8L0 10L2 10L2 9L3 9L3 12L2 12L2 14L3 14L3 12L5 12L5 13L4 13L4 15L3 15L3 17L2 17L2 15L1 15L1 14L0 14L0 17L1 17L1 18L0 18L0 19L1 19L1 20L0 20L0 21L1 21L1 22L2 22L2 21L1 21L1 20L2 20L2 19L3 19L3 17L4 17L4 16L5 16L5 17L8 17L8 18L9 18L9 20L10 20L10 19L11 19L11 22L9 22L9 21L8 21L8 19L7 19L7 18L5 18L5 19L7 19L7 20L5 20L5 21L4 21L4 28L2 28L2 27L1 27L1 26L3 26L3 24L0 24L0 25L1 25L1 26L0 26L0 27L1 27L1 29L0 29L0 32L1 32L1 33L2 33L2 34L3 34L3 35L5 35L5 38L4 38L4 37L3 37L3 38L4 38L4 39L2 39L2 37L1 37L1 39L0 39L0 41L2 41L2 42L0 42L0 43L1 43L1 44L3 44L3 45L4 45L4 44L3 44L3 43L7 43L7 42L5 42L5 40L6 40L6 41L7 41L7 40L6 40L6 39L8 39L8 41L9 41L9 39L10 39L10 38L9 38L9 37L8 37L8 35L9 35L9 36L11 36L11 41L10 41L10 42L8 42L8 47L10 47L10 46L11 46L11 45L10 45L10 44L9 44L9 43L11 43L11 41L12 41L12 44L13 44L13 46L12 46L12 47L11 47L11 48L10 48L10 49L9 49L9 48L8 48L8 53L9 53L9 52L10 52L10 53L12 53L12 52L13 52L13 53L14 53L14 52L13 52L13 51L12 51L12 50L13 50L13 47L14 47L14 44L13 44L13 43L15 43L15 42L16 42L16 43L17 43L17 42L16 42L16 41L18 41L18 40L15 40L15 42L14 42L14 41L13 41L13 40L14 40L14 39L12 39L12 38L14 38L14 37L12 37L12 34L13 34L13 35L14 35L14 36L15 36L15 35L19 35L19 36L17 36L17 37L15 37L15 39L19 39L19 41L22 41L22 40L26 40L26 38L23 38L23 39L22 39L22 40L20 40L20 39L21 39L21 37L20 37L20 38L17 38L17 37L19 37L19 36L20 36L20 35L21 35L21 36L22 36L22 37L23 37L23 36L24 36L24 35L25 35L25 37L26 37L26 34L27 34L27 36L28 36L28 37L27 37L27 38L28 38L28 37L29 37L29 38L30 38L30 40L28 40L28 41L29 41L29 43L28 43L28 42L27 42L27 41L24 41L24 43L22 43L22 44L21 44L21 46L20 46L20 42L18 42L18 43L19 43L19 44L18 44L18 46L16 46L16 45L17 45L17 44L15 44L15 46L16 46L16 47L19 47L19 48L17 48L17 49L15 49L15 48L14 48L14 49L15 49L15 50L14 50L14 51L17 51L17 52L18 52L18 53L19 53L19 52L18 52L18 51L19 51L19 50L17 50L17 49L19 49L19 48L20 48L20 50L21 50L21 48L22 48L22 50L23 50L23 51L21 51L21 52L22 52L22 53L27 53L27 52L28 52L28 53L29 53L29 52L30 52L30 53L31 53L31 51L32 51L32 50L33 50L33 49L34 49L34 50L35 50L35 52L34 52L34 51L33 51L33 53L35 53L35 52L38 52L38 49L40 49L40 50L41 50L41 51L42 51L42 52L43 52L43 53L44 53L44 52L45 52L45 51L46 51L46 53L49 53L49 52L47 52L47 51L48 51L48 50L45 50L45 51L44 51L44 52L43 52L43 50L44 50L44 49L50 49L50 48L51 48L51 47L52 47L52 48L53 48L53 46L51 46L51 47L50 47L50 48L49 48L49 46L50 46L50 45L49 45L49 44L48 44L48 43L49 43L49 42L50 42L50 44L51 44L51 45L53 45L53 43L51 43L51 42L52 42L52 40L53 40L53 39L52 39L52 37L53 37L53 36L52 36L52 37L51 37L51 38L50 38L50 39L51 39L51 42L50 42L50 41L48 41L48 40L49 40L49 39L47 39L47 38L49 38L49 37L50 37L50 36L49 36L49 37L45 37L45 39L44 39L44 41L43 41L43 39L40 39L40 41L39 41L39 40L38 40L38 39L37 39L37 38L36 38L36 37L35 37L35 36L34 36L34 37L35 37L35 38L36 38L36 39L37 39L37 41L36 41L36 44L34 44L34 43L32 43L32 42L33 42L33 41L35 41L35 40L33 40L33 41L32 41L32 39L31 39L31 38L33 38L33 39L34 39L34 38L33 38L33 37L30 37L30 36L31 36L31 35L32 35L32 34L34 34L34 35L39 35L39 34L41 34L41 33L40 33L40 32L41 32L41 31L42 31L42 32L43 32L43 33L42 33L42 35L41 35L41 36L43 36L43 37L44 37L44 35L43 35L43 33L44 33L44 31L42 31L42 29L40 29L40 28L44 28L44 30L45 30L45 29L46 29L46 30L48 30L48 29L49 29L49 31L47 31L47 33L45 33L45 35L46 35L46 34L47 34L47 33L48 33L48 35L49 35L49 34L50 34L50 35L51 35L51 34L52 34L52 35L53 35L53 33L51 33L51 34L50 34L50 33L48 33L48 32L50 32L50 31L51 31L51 32L52 32L52 30L50 30L50 29L49 29L49 28L51 28L51 26L52 26L52 25L51 25L51 26L50 26L50 23L51 23L51 24L53 24L53 23L52 23L52 22L53 22L53 21L51 21L51 22L50 22L50 21L49 21L49 20L53 20L53 18L50 18L50 17L51 17L51 16L53 16L53 15L51 15L51 14L52 14L52 13L51 13L51 14L50 14L50 11L51 11L51 12L53 12L53 11L52 11L52 10L53 10L53 9L52 9L52 8L51 8L51 9L52 9L52 10L50 10L50 8L49 8L49 10L47 10L47 9L48 9L48 8L47 8L47 9L46 9L46 8L45 8L45 9L46 9L46 10L47 10L47 11L48 11L48 13L49 13L49 14L50 14L50 16L48 16L48 17L47 17L47 16L45 16L45 18L44 18L44 19L43 19L43 18L42 18L42 19L41 19L41 20L43 20L43 21L45 21L45 23L47 23L47 24L44 24L44 22L41 22L41 21L40 21L40 22L41 22L41 23L42 23L42 24L41 24L41 25L40 25L40 23L39 23L39 22L38 22L38 23L37 23L37 22L36 22L36 21L39 21L39 20L40 20L40 19L39 19L39 16L43 16L43 17L44 17L44 15L46 15L46 13L47 13L47 12L46 12L46 11L45 11L45 10L44 10L44 9L42 9L42 10L41 10L41 9L40 9L40 8L44 8L44 7L45 7L45 6L44 6L44 7L43 7L43 3L44 3L44 4L45 4L45 3L44 3L44 1L43 1L43 0L39 0L39 2L40 2L40 4L39 4L39 3L38 3L38 2L37 2L37 1L36 1L36 0L32 0L32 1L33 1L33 6L32 6L32 3L31 3L31 1L30 1L30 0L29 0L29 1L30 1L30 2L28 2L28 0L27 0L27 1L26 1L26 0L24 0L24 1L23 1L23 0L21 0L21 1L18 1L18 0L16 0L16 1L15 1L15 2L16 2L16 3L13 3L13 2L14 2L14 1L12 1L12 0ZM11 1L11 3L12 3L12 4L13 4L13 3L12 3L12 1ZM22 1L22 2L20 2L20 3L19 3L19 2L17 2L17 3L16 3L16 5L17 5L17 7L16 7L16 6L15 6L15 4L14 4L14 5L13 5L13 7L12 7L12 5L11 5L11 7L12 7L12 10L11 10L11 11L10 11L10 9L8 9L8 11L6 11L6 12L7 12L7 13L6 13L6 14L5 14L5 15L6 15L6 16L8 16L8 17L13 17L13 18L11 18L11 19L13 19L13 18L14 18L14 19L15 19L15 20L14 20L14 22L13 22L13 21L12 21L12 22L13 22L13 23L12 23L12 24L13 24L13 25L12 25L12 26L9 26L9 27L10 27L10 28L11 28L11 29L10 29L10 32L9 32L9 33L6 33L6 34L7 34L7 35L6 35L6 36L7 36L7 35L8 35L8 34L9 34L9 35L11 35L11 34L12 34L12 33L13 33L13 34L14 34L14 35L15 35L15 34L16 34L16 33L17 33L17 32L18 32L18 34L19 34L19 33L20 33L20 34L21 34L21 35L24 35L24 34L26 34L26 32L28 32L28 31L29 31L29 32L30 32L30 33L27 33L27 34L29 34L29 35L31 35L31 34L30 34L30 33L33 33L33 32L36 32L36 30L37 30L37 31L38 31L38 32L37 32L37 33L38 33L38 32L40 32L40 31L41 31L41 30L39 30L39 29L36 29L36 27L35 27L35 26L37 26L37 25L38 25L38 24L39 24L39 23L38 23L38 24L37 24L37 25L36 25L36 24L35 24L35 23L36 23L36 22L35 22L35 21L36 21L36 20L39 20L39 19L35 19L35 16L36 16L36 14L37 14L37 15L38 15L38 16L37 16L37 17L36 17L36 18L37 18L37 17L38 17L38 16L39 16L39 15L42 15L42 14L39 14L39 13L38 13L38 12L41 12L41 10L40 10L40 9L39 9L39 8L40 8L40 6L41 6L41 7L42 7L42 6L41 6L41 5L39 5L39 7L38 7L38 5L37 5L37 4L38 4L38 3L35 3L35 2L36 2L36 1L35 1L35 2L34 2L34 4L35 4L35 7L34 7L34 6L33 6L33 7L32 7L32 6L31 6L31 7L32 7L32 8L30 8L30 6L29 6L29 9L26 9L26 11L25 11L25 12L24 12L24 13L25 13L25 14L27 14L27 13L28 13L28 15L27 15L27 16L28 16L28 17L29 17L29 18L28 18L28 19L31 19L31 20L26 20L26 21L25 21L25 19L27 19L27 17L26 17L26 15L25 15L25 16L24 16L24 17L26 17L26 18L25 18L25 19L23 19L23 18L21 18L21 17L23 17L23 16L21 16L21 15L23 15L23 12L22 12L22 14L21 14L21 13L18 13L18 12L19 12L19 11L18 11L18 12L17 12L17 10L19 10L19 7L20 7L20 10L21 10L21 8L22 8L22 6L23 6L23 8L24 8L24 6L23 6L23 5L21 5L21 3L22 3L22 2L23 2L23 1ZM40 1L40 2L41 2L41 4L42 4L42 3L43 3L43 2L42 2L42 1ZM25 2L25 4L26 4L26 3L27 3L27 2ZM8 3L8 4L9 4L9 3ZM17 3L17 5L18 5L18 7L17 7L17 8L18 8L18 7L19 7L19 6L20 6L20 7L21 7L21 5L18 5L18 3ZM28 3L28 4L29 4L29 5L31 5L31 3ZM8 5L8 7L9 7L9 5ZM25 5L25 8L28 8L28 5ZM36 5L36 7L35 7L35 8L34 8L34 7L33 7L33 9L30 9L30 11L27 11L27 12L31 12L31 10L33 10L33 11L32 11L32 13L33 13L33 14L34 14L34 15L35 15L35 14L36 14L36 13L37 13L37 11L39 11L39 10L35 10L35 11L36 11L36 13L35 13L35 14L34 14L34 13L33 13L33 11L34 11L34 9L37 9L37 8L38 8L38 7L37 7L37 5ZM14 6L14 7L13 7L13 8L14 8L14 7L15 7L15 11L14 11L14 9L13 9L13 11L11 11L11 12L10 12L10 13L9 13L9 11L8 11L8 13L7 13L7 14L6 14L6 15L8 15L8 16L10 16L10 15L9 15L9 14L10 14L10 13L11 13L11 15L12 15L12 14L13 14L13 15L14 15L14 16L13 16L13 17L16 17L16 16L15 16L15 15L17 15L17 14L15 14L15 12L16 12L16 7L15 7L15 6ZM26 6L26 7L27 7L27 6ZM22 10L22 11L24 11L24 10ZM42 10L42 11L43 11L43 10ZM49 10L49 11L50 11L50 10ZM13 11L13 12L12 12L12 13L13 13L13 12L14 12L14 11ZM20 11L20 12L21 12L21 11ZM44 11L44 14L43 14L43 15L44 15L44 14L45 14L45 11ZM42 12L42 13L43 13L43 12ZM30 13L30 14L29 14L29 15L28 15L28 16L29 16L29 17L30 17L30 18L33 18L33 19L34 19L34 18L33 18L33 17L34 17L34 16L33 16L33 15L32 15L32 16L33 16L33 17L30 17L30 16L31 16L31 15L30 15L30 14L31 14L31 13ZM18 14L18 15L19 15L19 16L18 16L18 18L15 18L15 19L17 19L17 20L16 20L16 21L15 21L15 23L18 23L18 25L17 25L17 26L15 26L15 27L14 27L14 25L13 25L13 26L12 26L12 27L11 27L11 28L12 28L12 27L14 27L14 28L13 28L13 29L16 29L16 30L12 30L12 29L11 29L11 32L10 32L10 34L11 34L11 32L12 32L12 31L14 31L14 32L13 32L13 33L15 33L15 31L19 31L19 32L20 32L20 31L21 31L21 32L22 32L22 33L21 33L21 34L23 34L23 32L22 32L22 31L21 31L21 30L20 30L20 27L21 27L21 28L22 28L22 30L23 30L23 27L24 27L24 29L27 29L27 30L28 30L28 29L29 29L29 31L30 31L30 32L31 32L31 29L32 29L32 30L34 30L34 29L35 29L35 28L32 28L32 27L31 27L31 25L30 25L30 24L31 24L31 23L30 23L30 22L29 22L29 23L28 23L28 21L27 21L27 22L26 22L26 23L28 23L28 24L24 24L24 25L23 25L23 23L25 23L25 21L22 21L22 20L23 20L23 19L21 19L21 18L20 18L20 17L19 17L19 16L20 16L20 15L21 15L21 14ZM29 15L29 16L30 16L30 15ZM40 17L40 18L41 18L41 17ZM46 17L46 18L45 18L45 19L44 19L44 20L45 20L45 21L46 21L46 22L48 22L48 24L49 24L49 23L50 23L50 22L48 22L48 20L49 20L49 19L50 19L50 18L49 18L49 17L48 17L48 18L49 18L49 19L47 19L47 17ZM1 18L1 19L2 19L2 18ZM18 19L18 20L19 20L19 24L20 24L20 25L18 25L18 26L19 26L19 27L15 27L15 28L17 28L17 29L19 29L19 27L20 27L20 26L21 26L21 27L23 27L23 25L21 25L21 23L23 23L23 22L22 22L22 21L21 21L21 19L20 19L20 20L19 20L19 19ZM31 20L31 22L33 22L33 21L35 21L35 20L33 20L33 21L32 21L32 20ZM6 21L6 22L5 22L5 23L6 23L6 24L7 24L7 23L8 23L8 24L9 24L9 25L10 25L10 24L9 24L9 23L8 23L8 22L7 22L7 21ZM16 21L16 22L18 22L18 21ZM6 22L6 23L7 23L7 22ZM20 22L20 23L21 23L21 22ZM13 23L13 24L14 24L14 23ZM29 23L29 24L30 24L30 23ZM33 24L33 25L32 25L32 26L33 26L33 25L35 25L35 24ZM42 24L42 25L41 25L41 26L40 26L40 27L39 27L39 26L38 26L38 27L37 27L37 28L40 28L40 27L43 27L43 26L44 26L44 25L43 25L43 24ZM5 25L5 28L8 28L8 25ZM25 25L25 28L28 28L28 25ZM29 25L29 27L30 27L30 25ZM45 25L45 28L48 28L48 25ZM6 26L6 27L7 27L7 26ZM26 26L26 27L27 27L27 26ZM46 26L46 27L47 27L47 26ZM49 26L49 27L50 27L50 26ZM29 28L29 29L31 29L31 28ZM3 29L3 30L1 30L1 32L2 32L2 33L3 33L3 34L4 34L4 33L3 33L3 32L2 32L2 31L4 31L4 32L5 32L5 30L7 30L7 31L6 31L6 32L8 32L8 29L5 29L5 30L4 30L4 29ZM19 30L19 31L20 31L20 30ZM32 31L32 32L33 32L33 31ZM45 31L45 32L46 32L46 31ZM24 32L24 33L25 33L25 32ZM34 33L34 34L36 34L36 33ZM0 34L0 35L1 35L1 36L2 36L2 35L1 35L1 34ZM38 36L38 37L39 37L39 38L42 38L42 37L39 37L39 36ZM6 37L6 38L5 38L5 39L6 39L6 38L7 38L7 37ZM1 39L1 40L2 40L2 39ZM45 39L45 41L47 41L47 42L46 42L46 43L48 43L48 41L47 41L47 39ZM3 40L3 42L2 42L2 43L3 43L3 42L4 42L4 40ZM30 40L30 41L31 41L31 42L32 42L32 41L31 41L31 40ZM41 40L41 41L42 41L42 42L43 42L43 43L45 43L45 42L43 42L43 41L42 41L42 40ZM37 41L37 47L36 47L36 48L35 48L35 47L33 47L33 46L31 46L31 48L30 48L30 45L34 45L34 44L32 44L32 43L31 43L31 44L30 44L30 43L29 43L29 50L28 50L28 49L27 49L27 50L26 50L26 49L25 49L25 50L26 50L26 52L27 52L27 50L28 50L28 51L30 51L30 49L31 49L31 50L32 50L32 49L33 49L33 48L35 48L35 49L36 49L36 50L37 50L37 49L38 49L38 48L39 48L39 47L43 47L43 46L44 46L44 45L43 45L43 44L42 44L42 43L41 43L41 42L39 42L39 41ZM26 42L26 43L24 43L24 44L22 44L22 46L21 46L21 47L20 47L20 46L19 46L19 47L20 47L20 48L21 48L21 47L23 47L23 48L24 48L24 44L27 44L27 42ZM38 42L38 43L39 43L39 42ZM40 43L40 44L38 44L38 46L39 46L39 45L40 45L40 44L41 44L41 45L42 45L42 44L41 44L41 43ZM6 44L6 45L7 45L7 44ZM25 45L25 48L28 48L28 45ZM35 45L35 46L36 46L36 45ZM45 45L45 48L48 48L48 45ZM26 46L26 47L27 47L27 46ZM46 46L46 47L47 47L47 46ZM32 47L32 48L33 48L33 47ZM37 47L37 48L36 48L36 49L37 49L37 48L38 48L38 47ZM40 48L40 49L41 49L41 50L42 50L42 49L44 49L44 48ZM10 49L10 51L11 51L11 50L12 50L12 49ZM50 50L50 51L52 51L52 52L53 52L53 51L52 51L52 50ZM23 51L23 52L24 52L24 51ZM39 51L39 53L40 53L40 51ZM15 52L15 53L16 53L16 52ZM0 0L0 7L7 7L7 0ZM1 1L1 6L6 6L6 1ZM2 2L2 5L5 5L5 2ZM46 0L46 7L53 7L53 0ZM47 1L47 6L52 6L52 1ZM48 2L48 5L51 5L51 2ZM0 46L0 53L7 53L7 46ZM1 47L1 52L6 52L6 47ZM2 48L2 51L5 51L5 48Z" fill="#000000"/></g></g></svg>
